<?xml version="1.0" encoding="UTF-8"?><svg id="Calque_2" xmlns="http://www.w3.org/2000/svg" viewBox="0 0 242.28 252.77"><g id="accueil_desktop"><g style="opacity:.1;"><path d="m149.88,222.93c-5.02.4-25.44-.48-25.34-8.69.07-5.71,24.15-1.77,28.8-2.41,26-3.6,46.78-25.07,58.32-47.56,11.59-22.61,14.85-46.84,8.75-71.6-3.18-12.94-8.59-24.51-18.05-34.09-.76-.77-20.73-17.86-22.65-13.16-2.67,6.54,7.01,21.24,2.76,29.99-4.82,9.95-10.94,7.58-16.99.47-8.66-10.17-19.71-48.61-7.2-57.8,5.52-4.06,19.09-7,25.88-9.33,10.14-3.48,23.01-6.94,33.58-8.29,35.46-4.54-18.35,25.84-18.33,26.2.26,4.22,15.39,12.28,18.96,16.13,8.49,9.13,14.14,20.14,18.02,31.89,6.95,21.03,7.85,45.39,2.21,66.74-11.36,43.02-40.05,81.5-88.71,81.5-7.12.56,5.99,0,0,0Z" style="fill:#222221;"/><path d="m102.84,12.67c3.07-.04,20.75.83,18.9,6.17-1.62,4.69-28.58,5.55-32.07,6.52-22.38,6.19-43.02,20.04-55.72,39.63-13.76,21.24-18.71,46.92-12.89,71.43,3.1,13.02,8.58,25.15,17.07,35.53,3.84,4.7,21.95,25.2,28.81,22.38,4.67-1.92-2.62-24.11,5.71-28.88,10.68-6.12,12.6,7.58,14.42,14.47,3.34,12.62,9.18,21.03,14.85,32.07,4.14,8.08,3.98,13.95-2.94,21.04-5.86,6.01-44.17,32.4-43.81,12.33.14-7.9,20.74-18.38,18.8-23.95-1.27-3.66-22.52-11.67-26.13-14.23C13.29,182.6-5.17,142.36,1.27,100.16,9.5,46.14,53.93,21.8,102.84,12.67c5.94-.08-4.15.78,0,0Z" style="fill:#222221;"/></g></g></svg>