<?xml version="1.0" encoding="UTF-8"?><svg id="Calque_2" xmlns="http://www.w3.org/2000/svg" viewBox="0 0 164.51 338.45"><g id="accueil_desktop"><path d="m107.65,234.5c23.12-32.08,38.71-75.4,43.09-114.57,2.49-22.21.76-44.79-2.58-66.82-1.73-11.4-3.97-22.62-6.82-33.79-.83-3.24-6.9-15.95-4.44-18.39,8.3-8.2,20.74,40.77,21.7,46.14,4.07,22.71,7.08,45.95,5.44,69.05-2.75,38.75-13.49,81.09-33.83,114.45-11.84,19.43-23.5,39.02-39.5,55.63-6.73,6.99-14.11,13.37-22.03,18.97-5.6,3.96-11.43,7.88-17.49,11.11-4.49,2.39-11.47,3.15-15.32,6.14,7.43,4.39,19.06,2.17,27.09,6.14,9.55,4.72,1.94,9.36-5.13,9.74-11.26.6-22.52-.69-33.73-1.44-9.56-.64-21.94.87-23.64-10.75-1.49-10.2.98-21.3,1.65-31.47.45-6.8-2.07-21.82,4.81-26.14,21.5-13.52,7.09,40.16,7.7,44.25,3.82-1.21,7.32-4.44,10.94-6.31,5.24-2.71,10.81-4.64,16.04-7.37,9.86-5.16,19.47-11.57,28.12-18.58,15.01-12.15,28.89-28.94,37.91-45.99,8.37-11.61-1.3,2.46,0,0Z" style="fill:#222221;"/></g></svg>