<?xml version="1.0" encoding="UTF-8"?><svg id="Calque_2" xmlns="http://www.w3.org/2000/svg" xmlns:xlink="http://www.w3.org/1999/xlink" viewBox="0 0 863 787"><defs><clipPath id="clippath"><rect width="863" height="787" style="fill:none;"/></clipPath></defs><g id="accueil_desktop"><g style="clip-path:url(#clippath);"><g style="opacity:.1;"><path d="m299.11,80.79l5.2-17.09c-7.47,1.12-14.86,2.54-22.13,4.31-2.93.65-5.81,1.35-8.7,2.12-2.5,6.81-5.31,13.55-8.47,20.25-10.82,26.02-28.18,48.73-46.85,70.21-20.36,20.09-42.65,38.92-68.21,53.7-36.22,21.98-75.95,39.15-117.18,53.85-7.78,10.78-15.21,21.63-22.17,32.53,52.62-16.71,104.63-36.49,152.36-64.78,27.14-15.44,51.58-35.53,74.06-57.24,20.79-23.33,40.15-48.43,52.43-76.83l9.66-21.02Z" style="fill:#f4f4f4;"/><path d="m385.68,83.95c1.35-6.39,2.35-12.7,3.08-18.9-9.47-1.62-18.9-2.73-28.29-3.39-3.7,33.95-10.97,67.02-25.71,98.43-10.89,25.98-28.18,48.7-46.85,70.25-20.44,20.02-42.73,38.88-68.29,53.7-50.39,30.64-107.75,51.81-166.33,70.29-28.02,8.89-56.59,17.21-85.34,25.52-3.7,8.7-7.08,17.44-10.05,26.21,34.18-9.66,68.44-19.09,102.24-29.41,59.55-18.09,118.68-39.15,172.49-71.1,27.22-15.4,51.66-35.49,74.1-57.2,20.75-23.29,40.11-48.42,52.47-76.83l9.59-21.02,6.7-21.98c5.12-14.36,8.01-29.41,10.2-44.58Z" style="fill:#f4f4f4;"/><path d="m460.32,109.66l1.16-23.02c-9.28-3.96-18.55-7.47-27.87-10.47-1.5,53.35-6.54,105.4-29.18,153.67-10.85,25.94-28.14,48.69-46.85,70.21-20.4,20.02-42.65,38.88-68.21,53.7-50.47,30.6-107.82,51.81-166.41,70.25-18.25,5.77-36.72,11.32-55.32,16.78-41.57,12.2-83.76,24.1-125.61,37.65v.04c-.69,7.66-1.04,15.32-1.04,22.94,41.8-13.36,84.34-24.98,126.65-36.92,20.82-5.89,41.61-11.86,62.21-18.13,59.51-18.09,118.72-39.15,172.53-71.1,27.18-15.4,51.58-35.49,74.02-57.2,20.82-23.29,40.11-48.43,52.47-76.87l9.7-21.02,6.58-21.94c5.16-14.36,8.01-29.41,10.28-44.58,3.16-15.24,4.54-29.87,4.89-44Z" style="fill:#f4f4f4;"/><path d="m529.99,179.34l2.27-43.11c.08-3.31.15-6.58.31-9.89-9.24-6.47-18.55-12.47-27.99-17.98-.54,9.01-.85,18.05-.96,27.14-1.19,56.97-5.39,112.67-29.49,164.02-10.82,25.98-28.18,48.73-46.89,70.25-20.4,20.02-42.57,38.84-68.21,53.66-50.46,30.64-107.78,51.85-166.41,70.29-39.57,12.55-80.18,23.94-120.87,35.99-40.92,12.13-81.95,24.91-122.18,40.3,1.77,6.7,3.81,13.4,6.12,20.02,14.59-5.43,29.29-10.55,44.11-15.4h.04c50.47-16.51,102.12-30.3,153.24-44.92,15.55-4.43,31.06-8.97,46.5-13.67,59.47-18.09,118.68-39.15,172.45-71.06,27.18-15.4,51.7-35.49,74.02-57.2,20.82-23.33,40.19-48.43,52.47-76.87l9.7-21.02,6.66-21.94c5.08-14.4,8.01-29.41,10.24-44.58,3.12-15.21,4.5-29.87,4.85-44.04Z" style="fill:#f4f4f4;"/><path d="m643.01,274.92c-.5,24.67-1.58,49.12-4.58,73.06.92-1.89,1.77-3.73,2.58-5.58,14.59-30.99,16.21-61.74,2.96-94-.54,8.81-.85,17.63-.96,26.52Z" style="fill:#f4f4f4;"/><path d="m204.3,604.66c21.79-6.12,43.46-12.32,64.98-18.9,59.47-18.09,118.68-39.15,172.53-71.06,27.18-15.4,51.62-35.45,74.02-57.2,20.82-23.33,40.15-48.43,52.43-76.83l9.66-21.06,6.74-21.9c5.08-14.4,8.01-29.45,10.16-44.61,3.2-15.24,4.54-29.83,4.85-44l2.27-43.15c.12-6.24.39-12.43.69-18.63-7.97-8.7-17.01-17.51-27.06-26.56-1.35,14.7-2.08,29.52-2.27,44.46-1.19,56.97-5.31,112.67-29.41,164.02-10.89,26.02-28.25,48.73-46.92,70.21-20.36,20.06-42.61,38.88-68.21,53.7-50.47,30.64-107.74,51.85-166.41,70.29-19.13,6.04-38.53,11.86-58.05,17.59-45.73,13.43-92.19,26.48-138.12,41.92-2.04.69-4.08,1.39-6.12,2.08-16.55,5.62-32.99,11.59-49.31,18.01-8.16,3.2-16.28,6.51-24.37,9.93,3.66,5.89,7.62,11.66,11.78,17.4,7.04-2.89,14.17-5.7,21.29-8.39,17.32-6.58,34.87-12.7,52.58-18.44,20.02-6.51,40.23-12.63,60.51-18.52,23.87-6.93,47.85-13.59,71.75-20.36Z" style="fill:#f4f4f4;"/><path d="m90.93,731.03c80.53-30.41,165.68-50.43,248.02-75.56,25.83-7.85,51.54-16.25,76.8-25.83,8.08-12.13,16.59-24.44,25.56-36.92-34.91,15.74-71.83,28.64-109.28,40.42-91.62,29.06-188.54,51.74-279.85,91.23,0,0-.04,0-.04.04-1.35.58-2.69,1.16-4,1.77,5.54,5.08,11.28,10.08,17.21,14.94,8.47-3.5,17.01-6.85,25.6-10.09Z" style="fill:#f4f4f4;"/><path d="m160.49,800.78h.04c14.44-5.47,29.06-10.59,43.77-15.47,43.88-14.55,88.73-26.95,133.38-39.5l.04-.04c7.2-9.24,14.32-19.29,21.56-29.91-51.16,15.2-103.43,29.56-154.98,46.92-23.25,7.81-46.35,16.28-69.1,25.68,8.7,4.77,17.13,8.85,25.29,12.32Z" style="fill:#f4f4f4;"/></g></g></g></svg>