<svg id="Calque_1" data-name="Calque 1" xmlns="http://www.w3.org/2000/svg" viewBox="0 0 772.02977 772.02977"><circle cx="386.01489" cy="394.50392" r="266.6003" style="fill:#fff"/><path d="M445.52813,570.13092C444.465,595.68,411.5639,628.58075,386.01489,629.6441c-25.54944-1.06329-58.45069-33.96368-59.51325-59.51318,1.06354-25.54889,33.96393-58.45038,59.51325-59.51318C411.56433,511.68115,444.465,544.58191,445.52813,570.13092Z"/><polygon points="355.966 597.93 355.912 598.427 371.226 600.066 377.287 543.411 377.341 542.913 362.027 541.276 355.966 597.93" style="fill:#72a852"/><polygon points="419.561 554.503 418.411 540.831 380.904 543.986 382.048 557.578 393.049 556.653 396.724 600.338 411.989 599.053 408.321 555.448 419.561 554.503" style="fill:#72a852"/><path d="M246.90289,237.74633a45.71947,45.71947,0,0,0-9.96924,90.33918c8.05591-29.09968,26.34265-51.11261,50.884-65.02155A45.71168,45.71168,0,0,0,246.90289,237.74633Z"/><path d="M525.12689,237.74633a45.71183,45.71183,0,0,0-40.9148,25.31763c24.54138,13.90894,42.82813,35.92187,50.88416,65.02155a45.71949,45.71949,0,0,0-9.96936-90.33918Z"/><path d="M362.04583,341.28515c5.63782-6.71973,4.863-15.00476-3.76855-27.09546-8.57508-11.88208-20.278-18.634-31.88538-18.86462-11.72461-.45435-23.3529,5.61242-34.47607,14.20068-11.1438,8.56043-19.97913,18.25348-22.5343,29.7052-2.74183,11.2818.796,24.32269,10.09558,35.64722,9.48584,11.43286,17.2976,14.29761,25.23474,10.56207,8.01843-3.50085,16.16284-13.60217,28.19592-22.68872C344.76715,353.43731,356.61309,348.14379,362.04583,341.28515Z"/><path d="M475.23468,309.52575c-11.1233-8.58826-22.75159-14.655-34.4762-14.20068-11.60742.23059-23.3103,6.98254-31.88538,18.86462-8.63159,12.0907-9.40625,20.37573-3.76855,27.09546,5.43262,6.85864,17.27868,12.15216,29.13806,21.46637,12.03308,9.08655,20.17749,19.18787,28.19592,22.68872,7.93726,3.73554,15.7489.87079,25.23462-10.56207,9.29968-11.32453,12.83765-24.36542,10.0957-35.64722C495.21368,327.77923,486.37823,318.08618,475.23468,309.52575Z"/><path d="M433.00787,413.58276a3.84085,3.84085,0,0,0-2.95337,4.55865c.76807,3.59552-.50269,6.9682-4.68726,12.43189-3.48632,4.301-10.42871,11.639-17.97143,12.78741l-.20593.03717c-8.58545,1.78644-14.70032-6.78174-16.369-9.45153a36.73145,36.73145,0,0,1-5.11072-20.59931,129.202,129.202,0,0,1,10.69739-10.593c8.67773-7.976,14.94738-13.739,12.75439-19.51556a3.8402,3.8402,0,0,0-2.43652-2.30029,83.00022,83.00022,0,0,0-50.79419,0,3.84084,3.84084,0,0,0-2.43677,2.30066c-2.192,5.77655,4.07739,11.53918,12.75464,19.51477a114.31524,114.31524,0,0,1,11.50464,11.57354,36.46586,36.46586,0,0,1-5.1272,19.61921c-1.6687,2.66979-7.78345,11.238-16.3689,9.45153l-.206-.03717c-7.54272-1.14843-14.485-8.48645-17.97131-12.78741-4.1847-5.46369-5.45545-8.83637-4.68726-12.43189a3.84084,3.84084,0,0,0-7.51208-1.60528c-1.57935,7.3927,2.01489,13.38153,6.13476,18.75226l.06189.078c5.08228,6.28064,13.14111,14.0683,22.71533,15.57233a19.042,19.042,0,0,0,3.79578.38336c7.74036-.00037,15.21558-4.76532,20.55933-13.31665a40.533,40.533,0,0,0,2.5758-4.87006,40.49567,40.49567,0,0,0,2.57556,4.87006c5.34375,8.55133,12.81909,13.31628,20.55945,13.31665a19.043,19.043,0,0,0,3.79578-.38336c9.57422-1.504,17.633-9.29169,22.71533-15.57233l.06177-.078c4.11987-5.37073,7.71423-11.35956,6.13476-18.75226A3.83983,3.83983,0,0,0,433.00787,413.58276Z"/><path d="M214.85045,402.54711a12.11381,12.11381,0,0,0,2.97607-1.72754c2.40283-1.62109,5.12207-4.90039,5.75391-11.58984a17.88178,17.88178,0,0,0-2.61914-11.4165,19.67189,19.67189,0,0,0-14.64942-9.09522c-2.8667-.27-10.73877-.29-16.44092,6.4834a19.00883,19.00883,0,0,0-4.50683,11.145,18.73375,18.73375,0,0,0,1.6665,10.44189,16.15432,16.15432,0,0,0,2.33448,3.3545,21.95532,21.95532,0,0,0,4.73242,3.5l2.22461-23.57422,9.23828.87109-3.35254,35.52051a33.29019,33.29019,0,0,1-15.36231-5.78809,27.57192,27.57192,0,0,1-11.06933-18.0791,30.254,30.254,0,0,1-.11328-7.32226,30.59725,30.59725,0,0,1,7.89941-18.1377,26.94452,26.94452,0,0,1,6.42676-5.09863,28.05921,28.05921,0,0,1,17.13281-3.606,28.767,28.767,0,0,1,26.15918,31.87744,29.37384,29.37384,0,0,1-1.47949,7.17188,28.77557,28.77557,0,0,1-10.28809,13.65332,32.00479,32.00479,0,0,1-7.83545,3.83984Z"/><path d="M235.96666,435.25268c1.43066,6.07471,2.52441,11.49561-.23828,17.3501a16.637,16.637,0,0,1-2.78321,4.20459,18.77535,18.77535,0,0,1-8.80517,5.21094,17.06095,17.06095,0,0,1-8.84912.00781,15.27819,15.27819,0,0,1-4.23389-1.94678,18.02423,18.02423,0,0,1-3.84717-3.62256,31.3652,31.3652,0,0,1-2.99121-5.08691l-16.82031,21.2959-3.19238-12.14844,16.67382-20.59424-20.65966,5.42871-2.62256-9.98144,54.62695-14.35547Zm-27.03906,2.55518,1.42285,5.4165a14.33194,14.33194,0,0,0,.54492,1.75977c.30469,1.15966,1.47656,4.98828,5.24219,6.728a8.064,8.064,0,0,0,5.47656.38037,8.561,8.561,0,0,0,4.48877-2.751c2.61963-3.25293,1.95361-7.04785,1.0542-10.78174l-1.36231-5.18506Z"/><path d="M258.59068,485.98315l-8.2998,4.82373-8.4834-14.59229-11.96533,6.95557,8.44336,14.52441-8.09229,4.70362-8.4834-14.59326L209.537,494.88159l8.48389,14.59326L209.72105,514.3l-13.751-23.65429L244.79967,462.26Z"/><path d="M281.79674,510.8186l-6.91309,6.65967-11.71191-12.15284-9.96582,9.60254,11.65722,12.09571-6.74023,6.49609L246.411,521.3645,236.2733,531.135l11.71191,12.15332-6.91211,6.66114-18.98437-19.69922,40.668-39.18994Z"/><path d="M325.119,537.40551l-27.7251,49.20215-8.22314-4.63281-2.69092-38.24414a64.10068,64.10068,0,0,1,.46729-13.05127c-.82959,2.2876-1.68946,4.46533-2.65869,6.67334-1.00831,2.27832-2.26514,4.50928-3.45167,6.77783L266.66,569.29028l-8.85059-4.98682L285.534,515.10034l8.85156,4.98681,2.55567,30.82325a98.29548,98.29548,0,0,1-.16211,19.19042c.94726-2.49609,1.89453-4.99218,2.98144-7.41015,1.07813-2.23877,2.2959-4.39942,3.44336-6.59912l13.27344-23.55518Z"/><path d="M458.329,526.40356c2.40235-1.10742,9.67383-4.644,17.23047-.7085a17.49934,17.49934,0,0,1,7.168,22.84278c-2.36914,4.72021-6.3125,7.01562-10.82422,9.436l-2.4668,1.32373,10.50977,19.59766-9.30469,4.99023-26.69336-49.769Zm6.46094,24.40137,3.73633-2.00342c2.85351-1.62061,5.17383-3.04834,5.75488-6.53467a7.27615,7.27615,0,0,0-.81543-4.7373,7.00691,7.00691,0,0,0-5.36914-3.74805c-2.51367-.28516-4.73633.81592-6.85156,1.95019l-3.52539,1.89161Z"/><path d="M490.12974,503.58862l54.2334,27.523L535.952,538.5061l-15.6875-8.15137-14,12.30762,6.19531,16.49609-8.291,7.29-20.709-56.99707ZM511.43345,525.762c-3.39843-1.80567-6.78906-3.72315-10.06738-5.63477-2.07226-1.26709-4.084-2.58691-6.09765-3.9082,1.30859,2.57861,2.56347,5.09668,3.69921,7.72119,1.38379,3.14893,2.542,6.28516,3.86719,9.48779Z"/><path d="M529.19322,449.9934l48.54492,28.87451-4.82617,8.11377-38.30176,1.79395a64.24917,64.24917,0,0,1-13.03711-.77344c2.2666.88184,4.42383,1.79444,6.61035,2.81494,2.25391,1.061,4.45411,2.36963,6.69532,3.60987L559.701,509.19165l-5.19433,8.73291-48.54395-28.875,5.19434-8.73291,30.87793-1.83252a98.30231,98.30231,0,0,1,19.18457.6123c-2.47461-1.00635-4.94727-2.01221-7.33887-3.15527-2.21387-1.12989-4.3457-2.39893-6.51855-3.59717l-23.24024-13.82471Z"/><path d="M533.77037,431.87036c.31152-1.56885.5918-2.98243.98242-4.53516.99805-4.207,4.35547-17.40479,18.15625-22.00391a29.40777,29.40777,0,0,1,14.95117-.94433,28.04493,28.04493,0,0,1,20.08594,15.4917,25.46909,25.46909,0,0,1,2.49023,8.814c.37989,3.4209.21094,5.915-.91015,12.38086l-2.99414,15.06592-55.39746-11.0083ZM579.37779,444.114l.8584-4.31494c.20215-1.4292.48242-2.84131.59082-4.20557a18.66948,18.66948,0,0,0-2.9502-13.06592,17.69374,17.69374,0,0,0-11.80859-7.89306,21.22457,21.22457,0,0,0-9.17773.21533,18.76667,18.76667,0,0,0-11.22168,9.27148,33.02972,33.02972,0,0,0-2.82911,8.89942l-.73339,3.6875Z"/><path d="M536.68834,374.04418l53.293-29.29882,1.37109,11.11523-15.57324,8.36768,2.28027,18.49951,17.11914,4.17676,1.35059,10.95605-58.75293-15.00293Zm30.32226-5.10839c-3.40625,1.7915-6.90234,3.51074-10.32812,5.14306-2.21485.99805-4.43946,1.91748-6.66309,2.83545,2.86621.37158,5.6543.75391,8.46192,1.29541,3.38281.63135,6.625,1.43994,10.01757,2.1499Z"/></svg>