<?xml version="1.0" encoding="UTF-8"?><svg id="Calque_2" xmlns="http://www.w3.org/2000/svg" xmlns:xlink="http://www.w3.org/1999/xlink" viewBox="0 0 72.87 106.13"><defs><clipPath id="clippath"><path d="m10.99,8.53C17.2,2.84,25.84,0,36.93,0c7.23,0,13.41,1.25,18.53,3.74,5.12,2.49,9,5.87,11.63,10.15,2.63,4.28,3.95,9.09,3.95,14.45,0,6.39-1.55,11.49-4.65,15.29-3.1,3.81-6.62,6.37-10.57,7.68v.56c11.37,4.23,17.05,12.31,17.05,24.24,0,5.92-1.36,11.13-4.09,15.65-2.73,4.51-6.67,8.03-11.84,10.57-5.17,2.54-11.32,3.81-18.46,3.81-11.75,0-21.03-2.84-27.84-8.53C3.83,91.92.28,83.21,0,71.46h26.92c-.19,3.76.61,6.67,2.4,8.74,1.78,2.07,4.46,3.1,8.03,3.1,2.72,0,4.86-.85,6.41-2.54s2.33-3.95,2.33-6.77c0-3.57-1.15-6.2-3.45-7.89-2.3-1.69-6.04-2.54-11.21-2.54h-4.93v-22.41h4.79c3.57.09,6.6-.49,9.09-1.76,2.49-1.27,3.74-3.83,3.74-7.68,0-2.91-.71-5.1-2.11-6.55-1.41-1.46-3.34-2.19-5.78-2.19-2.73,0-4.72.96-5.99,2.89-1.27,1.93-2,4.3-2.18,7.12H1.13c.37-10.62,3.66-18.77,9.87-24.45Z" style="fill:none;"/></clipPath></defs><g id="accueil_desktop"><path d="m10.99,8.53C17.2,2.84,25.84,0,36.93,0c7.23,0,13.41,1.25,18.53,3.74,5.12,2.49,9,5.87,11.63,10.15,2.63,4.28,3.95,9.09,3.95,14.45,0,6.39-1.55,11.49-4.65,15.29-3.1,3.81-6.62,6.37-10.57,7.68v.56c11.37,4.23,17.05,12.31,17.05,24.24,0,5.92-1.36,11.13-4.09,15.65-2.73,4.51-6.67,8.03-11.84,10.57-5.17,2.54-11.32,3.81-18.46,3.81-11.75,0-21.03-2.84-27.84-8.53C3.83,91.92.28,83.21,0,71.46h26.92c-.19,3.76.61,6.67,2.4,8.74,1.78,2.07,4.46,3.1,8.03,3.1,2.72,0,4.86-.85,6.41-2.54s2.33-3.95,2.33-6.77c0-3.57-1.15-6.2-3.45-7.89-2.3-1.69-6.04-2.54-11.21-2.54h-4.93v-22.41h4.79c3.57.09,6.6-.49,9.09-1.76,2.49-1.27,3.74-3.83,3.74-7.68,0-2.91-.71-5.1-2.11-6.55-1.41-1.46-3.34-2.19-5.78-2.19-2.73,0-4.72.96-5.99,2.89-1.27,1.93-2,4.3-2.18,7.12H1.13c.37-10.62,3.66-18.77,9.87-24.45Z" style="fill:#8bb675;"/><g style="clip-path:url(#clippath);"><path d="m-240.93,43.16s1.2-4.86,3.92-13.45c2.7-8.68,7.02-21.24,13.48-36.86,6.5-15.58,15.18-34.23,27.23-54.52,12.09-20.19,27.49-42.22,48.35-62.72,20.57-20.56,47.48-39.17,79.63-49.42,16-5.18,33.24-8.05,50.85-8.25,17.27-.39,34.15-1.62,49.72-8.92,7.87-3.3,14.76-8.56,21.28-14.22,6.07-6.17,11.78-12.91,16.28-20.68,9.28-15.29,15.71-32.67,21.29-50.44,11.25-35.47,19.36-73.6,38.95-107.41,9.78-16.75,23.24-31.68,39.66-42.16,16.4-10.56,35.25-16.41,54.03-19.08,18.91-2.99,37.73-1.68,55.93-2.73,18.22-.85,36.33-2.71,53.41-7.3,17.04-4.55,33.04-12.14,45.77-23.35,12.59-11.37,22-25.43,29.59-39.84,15.09-28.95,26.74-57.84,40.35-83.05,26.34-51.02,56.31-88.69,78.13-113.84,11.07-12.5,19.97-22.13,26.3-28.42,6.27-6.41,9.59-9.81,9.59-9.81,0,0-3.3,3.44-9.49,9.89-6.27,6.37-15.07,16.08-26.04,28.67-21.53,25.37-51.09,63.24-76.84,114.37-13.33,25.31-24.63,54.16-39.56,83.49-7.51,14.61-16.95,29.09-29.85,40.99-13.07,11.73-29.58,19.73-46.97,24.54-17.46,4.88-35.73,6.94-54.22,7.97-18.49,1.23-37.15.12-55.4,3.22-18.25,2.79-36.29,8.62-51.78,18.84-15.53,10.14-28.17,24.4-37.46,40.62-18.6,32.8-26.35,70.51-37.33,106.48-5.48,18.05-11.87,35.99-21.55,52.32-4.67,8.21-10.75,15.64-17.34,22.44-7.07,6.29-14.68,12.16-23.29,15.88l-6.38,2.93-6.65,2.02c-4.36,1.56-8.91,2.43-13.51,3.1-4.61.95-9.05,1.38-13.34,1.48l-13.08.69c-16.81.34-33.14,3.24-48.25,8.32-30.37,10.01-55.77,27.9-75.34,47.85-19.84,19.85-34.56,41.33-46.1,61.08-11.52,19.81-19.82,38.08-26,53.33-6.16,15.3-10.26,27.59-12.8,36.01-2.56,8.48-3.6,12.89-3.6,12.89l-11.59-2.91Z" style="fill:#72a552;"/><path d="m-219.81,64.3s1.21-4.85,3.91-13.47c2.71-8.68,7.03-21.24,13.5-36.84,6.49-15.6,15.18-34.25,27.23-54.52,12.09-20.19,27.48-42.24,48.34-62.74,20.58-20.56,47.48-39.17,79.63-49.41,16-5.2,33.25-8.07,50.85-8.27,17.27-.36,34.16-1.62,49.72-8.92,7.88-3.3,14.77-8.56,21.29-14.2,6.07-6.19,11.77-12.93,16.27-20.7,9.29-15.27,15.72-32.65,21.3-50.44,11.25-35.47,19.36-73.6,38.94-107.39,9.79-16.75,23.25-31.7,39.67-42.16,16.4-10.58,35.24-16.41,54.02-19.1,18.91-2.97,37.74-1.68,55.94-2.73,18.22-.85,36.33-2.71,53.4-7.3,17.06-4.53,33.05-12.14,45.78-23.35,12.58-11.37,22-25.43,29.59-39.84,15.09-28.93,26.74-57.82,40.35-83.03,26.33-51.02,56.31-88.72,78.12-113.86,11.09-12.5,19.99-22.13,26.32-28.43,6.25-6.39,9.57-9.81,9.57-9.81,0,0-3.28,3.44-9.47,9.89-6.29,6.37-15.09,16.08-26.04,28.67-21.55,25.37-51.09,63.26-76.85,114.39-13.34,25.29-24.64,54.16-39.56,83.5-7.51,14.59-16.96,29.09-29.86,40.99-13.06,11.71-29.57,19.73-46.96,24.54-17.46,4.86-35.73,6.92-54.23,7.95-18.48,1.23-37.14.14-55.39,3.22-18.25,2.79-36.28,8.62-51.78,18.84-15.54,10.14-28.18,24.4-37.47,40.62-18.59,32.8-26.35,70.53-37.33,106.5-5.48,18.05-11.87,35.97-21.54,52.3-4.67,8.23-10.76,15.64-17.34,22.44-7.07,6.31-14.68,12.18-23.3,15.9l-6.37,2.91-6.66,2.04c-4.35,1.54-8.91,2.41-13.5,3.1-4.62.93-9.05,1.38-13.35,1.46l-13.07.69c-16.8.36-33.14,3.26-48.26,8.34-30.36,10.01-55.76,27.9-75.34,47.85-19.83,19.83-34.55,41.31-46.09,61.06-11.53,19.81-19.83,38.1-26,53.35-6.16,15.27-10.26,27.58-12.79,35.99-2.56,8.48-3.61,12.89-3.61,12.89l-11.59-2.89Z" style="fill:#72a552;"/><path d="m-198.69,85.42s1.21-4.86,3.93-13.47c2.71-8.66,7.03-21.24,13.49-36.84,6.49-15.6,15.17-34.25,27.23-54.52,12.09-20.19,27.48-42.24,48.34-62.72,20.57-20.56,47.48-39.19,79.63-49.43,16-5.2,33.24-8.07,50.85-8.27,17.27-.36,34.15-1.62,49.72-8.92,7.88-3.3,14.77-8.54,21.28-14.2,6.07-6.19,11.78-12.93,16.28-20.68,9.28-15.3,15.72-32.67,21.3-50.44,11.24-35.49,19.36-73.6,38.94-107.41,9.78-16.75,23.24-31.7,39.67-42.16,16.4-10.58,35.24-16.41,54.02-19.1,18.91-2.97,37.74-1.66,55.93-2.71,18.22-.85,36.34-2.73,53.41-7.3,17.04-4.55,33.04-12.14,45.77-23.35,12.59-11.37,22-25.43,29.59-39.84,15.1-28.95,26.75-57.84,40.35-83.05,26.33-51.02,56.31-88.7,78.12-113.86,11.09-12.48,19.99-22.11,26.32-28.43,6.25-6.39,9.57-9.81,9.57-9.81,0,0-3.28,3.46-9.47,9.91-6.27,6.37-15.09,16.08-26.04,28.67-21.55,25.37-51.08,63.26-76.84,114.37-13.34,25.29-24.64,54.16-39.57,83.49-7.5,14.61-16.95,29.09-29.85,40.99-13.06,11.71-29.58,19.73-46.96,24.54-17.47,4.86-35.74,6.92-54.23,7.97-18.48,1.21-37.14.12-55.39,3.2-18.25,2.81-36.28,8.64-51.79,18.84-15.53,10.14-28.18,24.4-37.46,40.64-18.59,32.8-26.35,70.51-37.33,106.5-5.48,18.03-11.87,35.97-21.55,52.28-4.66,8.23-10.75,15.64-17.34,22.46-7.06,6.29-14.67,12.16-23.29,15.88l-6.37,2.93-6.66,2.02c-4.36,1.56-8.91,2.43-13.5,3.1-4.62.95-9.06,1.38-13.35,1.48l-13.07.69c-16.81.34-33.14,3.24-48.26,8.32-30.37,10.01-55.76,27.9-75.34,47.85-19.83,19.85-34.54,41.33-46.1,61.06-11.52,19.81-19.81,38.1-26,53.35-6.16,15.3-10.25,27.6-12.8,36.01-2.56,8.48-3.6,12.89-3.6,12.89l-11.6-2.91Z" style="fill:#72a552;"/><path d="m-177.55,106.57s1.21-4.88,3.92-13.47c2.7-8.68,7.03-21.26,13.48-36.86,6.5-15.58,15.18-34.23,27.23-54.5,12.09-20.19,27.49-42.24,48.35-62.74,20.58-20.56,47.48-39.17,79.63-49.42,16-5.18,33.24-8.07,50.85-8.26,17.27-.36,34.15-1.62,49.72-8.94,7.87-3.28,14.76-8.52,21.28-14.18,6.07-6.19,11.78-12.95,16.28-20.7,9.28-15.27,15.71-32.65,21.29-50.44,11.25-35.47,19.36-73.6,38.95-107.41,9.78-16.75,23.24-31.68,39.66-42.16,16.4-10.58,35.25-16.41,54.03-19.1,18.91-2.97,37.74-1.66,55.94-2.71,18.21-.85,36.33-2.73,53.4-7.3,17.04-4.55,33.04-12.14,45.77-23.35,12.59-11.35,22-25.43,29.59-39.84,15.09-28.93,26.74-57.84,40.35-83.05,26.34-51.02,56.3-88.67,78.11-113.84,11.09-12.5,19.99-22.13,26.34-28.44,6.23-6.39,9.57-9.79,9.57-9.79,0,0-3.3,3.44-9.49,9.89-6.27,6.37-15.09,16.08-26.02,28.67-21.55,25.37-51.1,63.26-76.86,114.39-13.33,25.27-24.63,54.14-39.56,83.47-7.51,14.61-16.95,29.09-29.85,40.99-13.06,11.71-29.58,19.75-46.97,24.54-17.46,4.88-35.73,6.92-54.22,7.97-18.49,1.21-37.16.14-55.4,3.2-18.24,2.81-36.29,8.64-51.77,18.86-15.54,10.12-28.18,24.4-37.47,40.62-18.59,32.8-26.35,70.51-37.33,106.5-5.48,18.05-11.87,35.97-21.55,52.28-4.67,8.26-10.75,15.64-17.34,22.46-7.07,6.29-14.68,12.16-23.29,15.9l-6.38,2.91-6.65,2.02c-4.36,1.56-8.91,2.43-13.51,3.1-4.61.95-9.04,1.38-13.34,1.48l-13.08.69c-16.81.34-33.14,3.24-48.25,8.31-30.37,10.01-55.77,27.92-75.34,47.85-19.84,19.85-34.56,41.33-46.1,61.08-11.52,19.81-19.82,38.08-26,53.35-6.16,15.27-10.26,27.58-12.8,35.99-2.56,8.48-3.6,12.89-3.6,12.89l-11.59-2.89Z" style="fill:#72a552;"/><path d="m-156.43,127.69s1.21-4.86,3.92-13.47c2.71-8.66,7.03-21.24,13.5-36.86,6.49-15.58,15.18-34.23,27.24-54.5,12.08-20.19,27.47-42.24,48.33-62.72,20.58-20.56,47.48-39.19,79.63-49.42,16.01-5.2,33.25-8.07,50.85-8.27,17.28-.36,34.16-1.62,49.73-8.92,7.87-3.3,14.76-8.54,21.28-14.2,6.07-6.19,11.77-12.93,16.28-20.68,9.28-15.3,15.71-32.67,21.29-50.44,11.25-35.49,19.36-73.6,38.94-107.41,9.79-16.75,23.25-31.7,39.67-42.18,16.4-10.56,35.24-16.41,54.02-19.08,18.91-2.99,37.74-1.68,55.94-2.73,18.22-.83,36.33-2.71,53.41-7.28,17.04-4.55,33.04-12.14,45.77-23.35,12.58-11.37,22-25.43,29.59-39.84,15.09-28.95,26.73-57.86,40.36-83.07,26.32-51.02,56.3-88.67,78.11-113.84,11.07-12.48,19.97-22.11,26.32-28.45,6.23-6.39,9.57-9.79,9.57-9.79,0,0-3.3,3.44-9.49,9.89-6.27,6.37-15.07,16.08-26.02,28.69-21.52,25.35-51.1,63.24-76.84,114.37-13.35,25.29-24.65,54.14-39.57,83.49-7.51,14.59-16.95,29.07-29.86,40.97-13.06,11.73-29.57,19.75-46.96,24.56-17.46,4.86-35.73,6.92-54.22,7.97-18.49,1.21-37.16.12-55.4,3.2-18.25,2.79-36.28,8.62-51.78,18.84-15.54,10.14-28.18,24.4-37.47,40.64-18.59,32.77-26.35,70.49-37.33,106.48-5.48,18.05-11.87,35.99-21.54,52.3-4.67,8.23-10.75,15.64-17.34,22.44-7.07,6.31-14.68,12.16-23.3,15.9l-6.37,2.93-6.66,2c-4.35,1.56-8.91,2.43-13.5,3.1-4.62.97-9.05,1.38-13.34,1.5l-13.08.67c-16.8.34-33.14,3.24-48.25,8.32-30.37,10.01-55.77,27.92-75.35,47.85-19.83,19.87-34.55,41.35-46.09,61.08-11.52,19.81-19.83,38.09-26,53.35-6.16,15.3-10.26,27.57-12.8,35.99-2.56,8.48-3.61,12.89-3.61,12.89l-11.59-2.89Z" style="fill:#72a552;"/><path d="m-135.3,148.81s1.21-4.85,3.92-13.47c2.71-8.66,7.03-21.24,13.5-36.84,6.49-15.6,15.17-34.25,27.23-54.52C-78.57,23.78-63.17,1.72-42.31-18.75-21.74-39.3,5.17-57.92,37.32-68.17c16-5.2,33.24-8.07,50.85-8.25,17.27-.39,34.15-1.64,49.72-8.94,7.88-3.28,14.77-8.54,21.28-14.2,6.07-6.19,11.78-12.91,16.28-20.68,9.28-15.3,15.72-32.67,21.3-50.44,11.24-35.47,19.36-73.6,38.94-107.41,9.78-16.75,23.25-31.68,39.67-42.16,16.4-10.56,35.24-16.43,54.02-19.1,18.91-2.97,37.74-1.68,55.94-2.71,18.21-.85,36.33-2.71,53.4-7.3,17.04-4.55,33.04-12.14,45.77-23.35,12.59-11.37,22.01-25.43,29.59-39.84,15.11-28.95,26.75-57.84,40.36-83.07,26.34-51,56.33-88.67,78.13-113.82,11.07-12.5,19.97-22.13,26.3-28.45,6.25-6.39,9.59-9.79,9.59-9.79,0,0-3.32,3.42-9.49,9.87-6.27,6.37-15.07,16.1-26.04,28.69-21.53,25.37-51.08,63.24-76.84,114.37-13.35,25.29-24.64,54.16-39.57,83.49-7.5,14.61-16.95,29.09-29.85,40.99-13.06,11.71-29.58,19.73-46.96,24.54-17.46,4.86-35.73,6.94-54.23,7.97-18.48,1.21-37.14.12-55.39,3.22-18.25,2.79-36.28,8.6-51.79,18.82-15.53,10.14-28.17,24.4-37.46,40.64-18.59,32.8-26.35,70.51-37.33,106.48-5.48,18.05-11.87,35.99-21.54,52.3-4.67,8.23-10.76,15.66-17.35,22.44-7.06,6.31-14.67,12.16-23.29,15.9l-6.37,2.93-6.66,2.02c-4.36,1.54-8.91,2.43-13.5,3.1-4.61.95-9.06,1.38-13.35,1.48l-13.07.67c-16.81.36-33.14,3.26-48.25,8.34C9.76-49.42-15.63-31.53-35.21-11.59c-19.83,19.85-34.55,41.33-46.1,61.08-11.52,19.81-19.81,38.08-26,53.33-6.16,15.3-10.25,27.58-12.79,36.01-2.56,8.48-3.6,12.87-3.6,12.87l-11.6-2.89Z" style="fill:#72a552;"/><path d="m-114.16,169.93s1.21-4.86,3.91-13.46c2.7-8.68,7.03-21.24,13.5-36.86,6.49-15.58,15.17-34.23,27.22-54.5C-57.44,44.9-42.04,22.87-21.18,2.37-.6-18.18,26.31-36.8,58.45-47.05c16-5.18,33.24-8.05,50.85-8.25,17.27-.36,34.15-1.62,49.72-8.92,7.87-3.3,14.76-8.56,21.28-14.22,6.07-6.17,11.78-12.91,16.28-20.68,9.29-15.3,15.71-32.67,21.29-50.44,11.25-35.47,19.37-73.6,38.95-107.41,9.78-16.75,23.24-31.68,39.66-42.16,16.4-10.56,35.25-16.41,54.03-19.08,18.91-2.97,37.74-1.68,55.94-2.73,18.21-.85,36.33-2.71,53.4-7.3,17.05-4.55,33.04-12.14,45.77-23.35,12.6-11.37,21.99-25.43,29.6-39.84,15.09-28.95,26.75-57.84,40.34-83.05,26.34-51,56.33-88.69,78.13-113.84,11.09-12.5,19.97-22.13,26.32-28.43,6.25-6.41,9.57-9.81,9.57-9.81,0,0-3.3,3.44-9.49,9.89-6.27,6.37-15.07,16.08-26.04,28.67-21.53,25.37-51.08,63.26-76.84,114.37-13.33,25.31-24.64,54.16-39.57,83.52-7.49,14.59-16.95,29.07-29.84,40.97-13.06,11.73-29.58,19.73-46.97,24.56-17.46,4.86-35.73,6.92-54.22,7.95-18.48,1.23-37.16.12-55.39,3.22-18.25,2.79-36.28,8.62-51.78,18.84-15.54,10.14-28.18,24.4-37.47,40.62-18.59,32.79-26.35,70.51-37.33,106.5-5.48,18.03-11.87,35.97-21.55,52.3-4.66,8.21-10.75,15.64-17.34,22.44-7.07,6.31-14.68,12.16-23.29,15.88l-6.38,2.93-6.65,2.04c-4.35,1.54-8.91,2.41-13.51,3.07-4.61.95-9.04,1.38-13.34,1.48l-13.07.69c-16.81.34-33.14,3.26-48.26,8.32C30.9-28.28,5.5-10.41-14.08,9.54c-19.84,19.85-34.55,41.33-46.1,61.08-11.52,19.81-19.82,38.08-26,53.33-6.16,15.3-10.26,27.6-12.8,36.01-2.56,8.48-3.6,12.89-3.6,12.89l-11.59-2.91Z" style="fill:#72a552;"/><path d="m-93.04,191.07s1.21-4.86,3.92-13.47c2.71-8.68,7.03-21.24,13.5-36.84,6.49-15.6,15.18-34.25,27.23-54.52C-36.31,66.04-20.91,43.99-.06,23.51,20.52,2.94,47.43-15.67,79.58-25.91c16-5.2,33.24-8.07,50.84-8.27,17.28-.36,34.16-1.62,49.73-8.92,7.87-3.3,14.76-8.56,21.28-14.2,6.07-6.19,11.77-12.93,16.28-20.7,9.28-15.27,15.71-32.65,21.29-50.44,11.25-35.47,19.36-73.58,38.94-107.39,9.79-16.75,23.25-31.7,39.67-42.16,16.4-10.58,35.24-16.41,54.03-19.1,18.91-2.97,37.73-1.68,55.93-2.73,18.22-.83,36.33-2.71,53.41-7.3,17.05-4.53,33.04-12.14,45.78-23.33,12.58-11.37,21.99-25.45,29.58-39.86,15.09-28.93,26.75-57.82,40.34-83.03,26.34-51.02,56.32-88.69,78.13-113.86,11.09-12.5,19.99-22.13,26.32-28.43,6.25-6.39,9.57-9.81,9.57-9.81,0,0-3.28,3.44-9.47,9.89-6.27,6.37-15.09,16.08-26.04,28.67-21.55,25.39-51.08,63.26-76.86,114.39-13.31,25.29-24.62,54.16-39.55,83.49-7.51,14.61-16.95,29.09-29.86,40.99-13.05,11.71-29.57,19.73-46.96,24.54-17.46,4.86-35.73,6.92-54.22,7.97-18.49,1.21-37.16.12-55.4,3.2-18.25,2.79-36.28,8.62-51.78,18.84-15.53,10.14-28.18,24.4-37.47,40.62-18.59,32.81-26.35,70.53-37.32,106.5-5.49,18.05-11.87,35.97-21.55,52.3-4.67,8.23-10.75,15.64-17.34,22.44-7.06,6.31-14.68,12.18-23.3,15.9l-6.37,2.91-6.65,2.04c-4.36,1.54-8.92,2.43-13.51,3.1-4.62.95-9.05,1.38-13.34,1.46l-13.08.69c-16.8.36-33.14,3.26-48.25,8.33C52.03-7.16,26.63,10.73,7.04,30.68c-19.83,19.83-34.55,41.31-46.09,61.06-11.52,19.81-19.82,38.1-26,53.35-6.16,15.27-10.26,27.58-12.8,35.99-2.56,8.48-3.61,12.89-3.61,12.89l-11.59-2.89Z" style="fill:#72a552;"/><path d="m-71.91,212.21s1.21-4.88,3.92-13.47c2.71-8.68,7.03-21.26,13.5-36.86,6.49-15.58,15.18-34.25,27.23-54.52C-15.18,87.16.22,65.13,21.07,44.64,41.65,24.08,68.56,5.45,100.71-4.79c16-5.18,33.25-8.07,50.85-8.27,17.27-.36,34.16-1.6,49.72-8.92,7.88-3.28,14.77-8.54,21.28-14.2,6.08-6.17,11.78-12.93,16.28-20.68,9.28-15.3,15.72-32.67,21.3-50.44,11.24-35.49,19.36-73.6,38.94-107.41,9.78-16.75,23.25-31.7,39.67-42.16,16.4-10.58,35.24-16.41,54.02-19.1,18.91-2.97,37.74-1.66,55.94-2.71,18.21-.85,36.32-2.73,53.4-7.3,17.06-4.55,33.04-12.14,45.78-23.35,12.58-11.37,22.01-25.43,29.58-39.84,15.09-28.95,26.75-57.84,40.34-83.05,26.34-51.02,56.33-88.69,78.13-113.86,11.09-12.48,19.99-22.11,26.34-28.43,6.23-6.39,9.55-9.81,9.55-9.81,0,0-3.28,3.46-9.47,9.91-6.27,6.37-15.09,16.08-26.04,28.67-21.55,25.37-51.08,63.26-76.84,114.37-13.33,25.29-24.64,54.16-39.55,83.49-7.53,14.61-16.98,29.09-29.86,40.99-13.07,11.71-29.58,19.73-46.97,24.54-17.46,4.88-35.73,6.92-54.23,7.97-18.48,1.21-37.14.12-55.39,3.2-18.25,2.81-36.28,8.64-51.78,18.84-15.54,10.14-28.18,24.42-37.47,40.65-18.59,32.79-26.35,70.51-37.33,106.5-5.48,18.03-11.87,35.97-21.54,52.28-4.67,8.23-10.76,15.64-17.34,22.46-7.07,6.29-14.68,12.16-23.3,15.88l-6.37,2.93-6.66,2.02c-4.36,1.56-8.91,2.43-13.5,3.1-4.61.95-9.05,1.38-13.35,1.48l-13.07.69c-16.81.34-33.14,3.24-48.25,8.31-30.37,10.01-55.77,27.9-75.35,47.85C8.35,71.64-6.37,93.13-17.92,112.86c-11.52,19.81-19.81,38.09-25.99,53.35-6.16,15.3-10.26,27.59-12.8,36.01-2.56,8.48-3.61,12.89-3.61,12.89l-11.59-2.89Z" style="fill:#72a552;"/><path d="m-50.78,233.33s1.21-4.86,3.92-13.47c2.71-8.68,7.03-21.24,13.5-36.86,6.49-15.58,15.17-34.23,27.23-54.5,12.09-20.19,27.49-42.24,48.34-62.74,20.58-20.55,47.48-39.17,79.63-49.4,16-5.2,33.24-8.09,50.85-8.27,17.27-.36,34.15-1.62,49.72-8.92,7.87-3.3,14.76-8.54,21.28-14.2,6.07-6.19,11.78-12.95,16.28-20.7,9.29-15.27,15.71-32.65,21.3-50.42,11.24-35.49,19.36-73.62,38.94-107.41,9.78-16.75,23.25-31.7,39.67-42.18,16.4-10.56,35.24-16.41,54.02-19.1,18.91-2.97,37.74-1.66,55.94-2.71,18.21-.85,36.33-2.73,53.41-7.3,17.03-4.55,33.04-12.14,45.76-23.35,12.59-11.35,22.01-25.43,29.58-39.84,15.09-28.93,26.75-57.84,40.36-83.05,26.34-51.02,56.33-88.67,78.13-113.84,11.07-12.5,19.97-22.13,26.32-28.45,6.23-6.39,9.57-9.79,9.57-9.79,0,0-3.3,3.44-9.49,9.89-6.27,6.37-15.09,16.08-26.02,28.67-21.55,25.37-51.1,63.26-76.84,114.39-13.35,25.29-24.64,54.14-39.57,83.47-7.51,14.61-16.95,29.09-29.86,40.99-13.07,11.71-29.58,19.75-46.98,24.54-17.45,4.88-35.72,6.92-54.21,7.97-18.48,1.23-37.14.14-55.39,3.22-18.25,2.79-36.28,8.62-51.78,18.84-15.54,10.14-28.18,24.4-37.47,40.62-18.59,32.79-26.35,70.51-37.33,106.5-5.48,18.05-11.87,35.97-21.55,52.28-4.66,8.25-10.75,15.66-17.34,22.46-7.06,6.29-14.68,12.16-23.29,15.9l-6.37,2.91-6.66,2.02c-4.35,1.56-8.91,2.43-13.51,3.1-4.61.95-9.04,1.38-13.33,1.48l-13.08.69c-16.81.34-33.14,3.24-48.25,8.32-30.38,10.01-55.78,27.92-75.35,47.85C29.48,92.77,14.75,114.27,3.21,134c-11.52,19.81-19.82,38.1-26,53.35-6.16,15.27-10.25,27.57-12.8,35.99-2.56,8.48-3.6,12.89-3.6,12.89l-11.59-2.89Z" style="fill:#72a552;"/><path d="m-29.66,254.46s1.21-4.85,3.91-13.47c2.71-8.66,7.03-21.24,13.51-36.84,6.49-15.6,15.17-34.25,27.23-54.52,12.08-20.19,27.47-42.24,48.34-62.72,20.57-20.55,47.48-39.19,79.63-49.42,16-5.2,33.24-8.07,50.85-8.27,17.27-.36,34.15-1.62,49.72-8.92,7.87-3.3,14.76-8.54,21.28-14.2,6.07-6.19,11.78-12.93,16.28-20.68,9.28-15.29,15.71-32.67,21.29-50.44,11.25-35.49,19.36-73.6,38.95-107.41,9.78-16.75,23.24-31.68,39.66-42.16,16.4-10.58,35.24-16.43,54.03-19.1,18.91-2.99,37.73-1.68,55.94-2.71,18.21-.85,36.33-2.73,53.4-7.3,17.04-4.55,33.04-12.14,45.76-23.35,12.6-11.37,22.01-25.43,29.6-39.84,15.09-28.95,26.72-57.84,40.36-83.07,26.34-51.02,56.3-88.67,78.11-113.84,11.07-12.48,19.97-22.11,26.32-28.43,6.25-6.39,9.59-9.81,9.59-9.81,0,0-3.32,3.44-9.51,9.89-6.27,6.37-15.07,16.08-26.02,28.69-21.53,25.35-51.1,63.24-76.84,114.37-13.35,25.29-24.64,54.16-39.57,83.49-7.51,14.59-16.95,29.09-29.86,40.97-13.07,11.73-29.58,19.75-46.96,24.56-17.46,4.86-35.73,6.92-54.22,7.97-18.49,1.21-37.16.12-55.4,3.2-18.25,2.81-36.29,8.62-51.78,18.84-15.53,10.13-28.18,24.4-37.47,40.64-18.59,32.77-26.34,70.49-37.32,106.48-5.48,18.04-11.87,35.99-21.55,52.3-4.67,8.23-10.75,15.64-17.34,22.44-7.06,6.31-14.68,12.16-23.3,15.9l-6.37,2.93-6.65,2c-4.36,1.56-8.92,2.43-13.51,3.12-4.62.95-9.05,1.38-13.34,1.48l-13.08.67c-16.8.34-33.14,3.24-48.25,8.34-30.37,10.01-55.77,27.9-75.34,47.85-19.83,19.85-34.55,41.33-46.1,61.06-11.52,19.81-19.82,38.1-26,53.35-6.16,15.3-10.26,27.58-12.79,36.01-2.56,8.46-3.61,12.87-3.61,12.87l-11.59-2.89Z" style="fill:#72a552;"/><path d="m-8.52,275.58s1.21-4.86,3.92-13.47c2.71-8.66,7.03-21.24,13.49-36.84,6.49-15.6,15.18-34.25,27.23-54.52,12.09-20.19,27.48-42.24,48.34-62.72,20.59-20.56,47.48-39.17,79.63-49.43,16-5.2,33.25-8.07,50.85-8.25,17.27-.36,34.16-1.64,49.72-8.94,7.88-3.28,14.77-8.54,21.29-14.2,6.07-6.19,11.77-12.91,16.27-20.68,9.29-15.3,15.72-32.67,21.3-50.44,11.25-35.47,19.36-73.6,38.94-107.41,9.79-16.75,23.25-31.68,39.67-42.16,16.4-10.56,35.24-16.41,54.02-19.1,18.91-2.97,37.74-1.66,55.94-2.71,18.2-.85,36.33-2.71,53.4-7.3,17.06-4.55,33.04-12.14,45.78-23.35,12.58-11.37,21.99-25.43,29.6-39.84,15.09-28.95,26.72-57.84,40.34-83.05,26.34-51.02,56.32-88.69,78.13-113.84,11.07-12.5,19.97-22.13,26.3-28.45,6.25-6.39,9.59-9.79,9.59-9.79,0,0-3.3,3.44-9.49,9.89-6.27,6.35-15.07,16.08-26.04,28.67-21.52,25.37-51.08,63.26-76.84,114.37-13.35,25.29-24.64,54.16-39.57,83.52-7.49,14.59-16.95,29.07-29.86,40.97-13.03,11.71-29.56,19.73-46.94,24.54-17.48,4.86-35.73,6.94-54.24,7.97-18.48,1.21-37.15.12-55.39,3.22-18.25,2.79-36.29,8.6-51.78,18.84-15.54,10.12-28.18,24.38-37.47,40.62-18.59,32.79-26.35,70.51-37.33,106.5-5.48,18.03-11.87,35.97-21.54,52.28-4.67,8.23-10.76,15.66-17.34,22.44-7.07,6.31-14.68,12.18-23.3,15.9l-6.37,2.93-6.66,2.02c-4.36,1.54-8.91,2.43-13.5,3.1-4.61.95-9.05,1.38-13.35,1.48l-13.07.69c-16.81.34-33.14,3.24-48.25,8.32-30.37,10.01-55.77,27.9-75.35,47.85-19.83,19.85-34.55,41.33-46.09,61.08-11.53,19.81-19.82,38.08-26,53.33-6.16,15.3-10.26,27.6-12.8,36.01-2.56,8.48-3.61,12.89-3.61,12.89l-11.59-2.91Z" style="fill:#72a552;"/><path d="m12.61,296.72s1.21-4.88,3.92-13.47c2.71-8.68,7.03-21.24,13.5-36.86,6.49-15.58,15.17-34.23,27.23-54.5,12.09-20.21,27.48-42.24,48.34-62.72,20.58-20.58,47.48-39.19,79.63-49.45,16-5.18,33.24-8.05,50.85-8.26,17.27-.36,34.15-1.62,49.72-8.92,7.88-3.3,14.77-8.56,21.28-14.22,6.07-6.17,11.78-12.91,16.28-20.68,9.29-15.3,15.71-32.65,21.3-50.44,11.24-35.47,19.36-73.6,38.94-107.41,9.78-16.75,23.25-31.68,39.67-42.16,16.4-10.56,35.24-16.41,54.02-19.08,18.91-2.97,37.75-1.68,55.94-2.73,18.21-.83,36.31-2.71,53.41-7.3,17.04-4.53,33.04-12.14,45.76-23.33,12.6-11.37,21.99-25.45,29.6-39.86,15.09-28.93,26.75-57.84,40.34-83.05,26.34-51,56.32-88.67,78.13-113.84,11.09-12.5,19.99-22.13,26.32-28.43,6.25-6.41,9.57-9.81,9.57-9.81,0,0-3.3,3.44-9.49,9.89-6.25,6.37-15.07,16.08-26.04,28.67-21.53,25.37-51.09,63.26-76.84,114.39-13.33,25.29-24.62,54.14-39.57,83.49-7.49,14.59-16.95,29.07-29.84,40.97-13.05,11.73-29.58,19.75-46.96,24.56-17.48,4.86-35.73,6.92-54.22,7.97-18.49,1.21-37.16.1-55.4,3.19-18.25,2.79-36.29,8.62-51.78,18.84-15.54,10.14-28.18,24.4-37.47,40.63-18.59,32.79-26.35,70.51-37.33,106.5-5.48,18.03-11.87,35.97-21.55,52.3-4.66,8.23-10.74,15.64-17.34,22.44-7.06,6.31-14.67,12.16-23.29,15.88l-6.37,2.93-6.65,2.04c-4.36,1.54-8.92,2.43-13.51,3.08-4.62.97-9.05,1.38-13.34,1.48l-13.08.69c-16.81.34-33.14,3.26-48.25,8.31-30.38,10.04-55.77,27.9-75.35,47.85-19.83,19.85-34.56,41.33-46.1,61.08-11.52,19.81-19.82,38.07-26,53.35-6.16,15.27-10.25,27.57-12.8,35.99-2.56,8.48-3.6,12.89-3.6,12.89l-11.59-2.89Z" style="fill:#72a552;"/><path d="m33.74,317.84s1.2-4.86,3.92-13.47c2.7-8.66,7.03-21.24,13.49-36.84,6.49-15.6,15.17-34.25,27.23-54.52,12.08-20.19,27.47-42.24,48.34-62.72,20.57-20.57,47.48-39.19,79.63-49.42,16-5.2,33.24-8.07,50.85-8.27,17.27-.36,34.15-1.6,49.72-8.92,7.87-3.28,14.76-8.54,21.28-14.2,6.07-6.19,11.78-12.93,16.28-20.7,9.28-15.27,15.71-32.65,21.29-50.44,11.25-35.47,19.36-73.58,38.95-107.39,9.78-16.75,23.24-31.7,39.66-42.16,16.4-10.58,35.25-16.41,54.03-19.1,18.91-2.97,37.74-1.68,55.95-2.73,18.21-.83,36.3-2.71,53.39-7.3,17.05-4.53,33.04-12.14,45.78-23.33,12.58-11.37,21.99-25.45,29.58-39.84,15.09-28.95,26.75-57.84,40.34-83.05,26.34-51.02,56.33-88.69,78.13-113.86,11.09-12.48,19.99-22.13,26.32-28.43,6.25-6.39,9.57-9.81,9.57-9.81,0,0-3.28,3.44-9.47,9.89-6.27,6.37-15.09,16.08-26.04,28.67-21.55,25.39-51.09,63.26-76.86,114.39-13.31,25.29-24.62,54.16-39.55,83.49-7.51,14.61-16.95,29.09-29.84,40.99-13.07,11.72-29.58,19.73-46.98,24.54-17.44,4.86-35.73,6.92-54.22,7.97-18.49,1.21-37.14.12-55.4,3.2-18.25,2.79-36.29,8.62-51.78,18.84-15.53,10.13-28.17,24.42-37.46,40.62-18.6,32.82-26.35,70.53-37.33,106.5-5.48,18.05-11.87,35.99-21.55,52.3-4.67,8.23-10.75,15.64-17.34,22.44-7.06,6.31-14.68,12.18-23.29,15.9l-6.38,2.91-6.65,2.04c-4.36,1.56-8.91,2.43-13.51,3.1-4.61.95-9.05,1.38-13.34,1.48l-13.08.67c-16.8.36-33.14,3.26-48.25,8.34-30.37,10.01-55.76,27.9-75.34,47.85-19.83,19.83-34.55,41.31-46.1,61.06-11.52,19.81-19.82,38.1-26,53.35-6.16,15.27-10.26,27.57-12.79,35.99-2.57,8.48-3.61,12.89-3.61,12.89l-11.59-2.89Z" style="fill:#72a552;"/><path d="m54.86,338.98s1.21-4.86,3.91-13.47c2.71-8.68,7.03-21.24,13.49-36.86,6.49-15.58,15.18-34.23,27.23-54.5,12.09-20.21,27.48-42.24,48.34-62.74,20.59-20.56,47.48-39.19,79.63-49.43,16-5.18,33.25-8.07,50.85-8.25,17.27-.36,34.16-1.62,49.72-8.92,7.88-3.3,14.77-8.56,21.29-14.2,6.07-6.19,11.78-12.95,16.27-20.7,9.29-15.29,15.72-32.67,21.31-50.44,11.24-35.49,19.35-73.6,38.93-107.41,9.79-16.75,23.25-31.7,39.67-42.16,16.4-10.56,35.24-16.41,54.01-19.1,18.92-2.97,37.75-1.66,55.96-2.71,18.21-.85,36.32-2.73,53.41-7.3,17.03-4.55,33.02-12.14,45.76-23.35,12.58-11.37,22.01-25.43,29.58-39.83,15.09-28.95,26.75-57.84,40.36-83.05,26.34-51.02,56.3-88.69,78.11-113.86,11.09-12.48,19.99-22.11,26.34-28.43,6.23-6.39,9.55-9.81,9.55-9.81,0,0-3.28,3.46-9.47,9.91-6.27,6.37-15.09,16.08-26.02,28.67-21.57,25.37-51.1,63.26-76.86,114.37-13.33,25.31-24.64,54.16-39.55,83.5-7.53,14.61-16.95,29.09-29.86,40.99-13.07,11.71-29.58,19.72-46.98,24.54-17.44,4.88-35.73,6.92-54.22,7.97-18.49,1.23-37.15.12-55.4,3.22-18.25,2.79-36.28,8.62-51.78,18.82-15.54,10.16-28.18,24.42-37.47,40.64-18.59,32.79-26.35,70.51-37.33,106.5-5.48,18.03-11.87,35.97-21.54,52.28-4.67,8.25-10.76,15.64-17.34,22.46-7.07,6.29-14.68,12.16-23.3,15.88l-6.37,2.93-6.66,2.02c-4.35,1.56-8.9,2.43-13.5,3.1-4.61.95-9.05,1.38-13.35,1.48l-13.07.69c-16.8.34-33.14,3.24-48.25,8.32-30.37,10.01-55.77,27.9-75.35,47.85-19.83,19.85-34.55,41.33-46.09,61.06-11.53,19.81-19.82,38.1-26,53.35-6.16,15.3-10.26,27.59-12.8,36.01-2.56,8.48-3.61,12.89-3.61,12.89l-11.59-2.89Z" style="fill:#72a552;"/></g></g></svg>