<?xml version="1.0" encoding="UTF-8"?><svg id="Calque_2" xmlns="http://www.w3.org/2000/svg" xmlns:xlink="http://www.w3.org/1999/xlink" viewBox="0 0 77.52 106.98"><defs><clipPath id="clippath"><path d="m2.4,27.63c0-5.07,1.34-9.7,4.02-13.88,2.68-4.18,6.74-7.52,12.19-10.01C24.05,1.25,30.77,0,38.76,0s14.7,1.25,20.16,3.74c5.45,2.49,9.51,5.83,12.19,10.01,2.68,4.18,4.02,8.81,4.02,13.88s-1.11,9.28-3.31,12.9c-2.21,3.62-5.29,6.51-9.23,8.67,4.88,2.54,8.6,5.92,11.13,10.15,2.54,4.23,3.81,9.21,3.81,14.94,0,6.86-1.74,12.76-5.21,17.69-3.48,4.93-8.15,8.67-14.02,11.21-5.87,2.54-12.38,3.81-19.52,3.81s-13.65-1.27-19.52-3.81c-5.87-2.54-10.55-6.27-14.02-11.21-3.48-4.93-5.21-10.83-5.21-17.69,0-5.73,1.27-10.71,3.81-14.94,2.54-4.23,6.25-7.61,11.13-10.15-8.36-4.6-12.54-11.79-12.54-21.56Zm27.7,36.58c-2.21,2.11-3.31,4.96-3.31,8.53,0,3.38,1.08,6.16,3.24,8.32,2.16,2.16,5.07,3.24,8.74,3.24s6.55-1.08,8.67-3.24c2.11-2.16,3.17-4.93,3.17-8.32,0-3.57-1.08-6.41-3.24-8.53-2.16-2.11-5.03-3.17-8.6-3.17s-6.46,1.06-8.67,3.17Zm15.43-39.89c-1.69-1.83-3.95-2.75-6.77-2.75s-4.96.94-6.7,2.82c-1.74,1.88-2.61,4.42-2.61,7.61s.87,5.69,2.61,7.47c1.74,1.79,3.97,2.68,6.7,2.68s4.96-.89,6.7-2.68c1.74-1.78,2.61-4.27,2.61-7.47s-.85-5.85-2.54-7.68Z" style="fill:none;"/></clipPath></defs><g id="accueil_desktop"><path d="m2.4,27.63c0-5.07,1.34-9.7,4.02-13.88,2.68-4.18,6.74-7.52,12.19-10.01C24.05,1.25,30.77,0,38.76,0s14.7,1.25,20.16,3.74c5.45,2.49,9.51,5.83,12.19,10.01,2.68,4.18,4.02,8.81,4.02,13.88s-1.11,9.28-3.31,12.9c-2.21,3.62-5.29,6.51-9.23,8.67,4.88,2.54,8.6,5.92,11.13,10.15,2.54,4.23,3.81,9.21,3.81,14.94,0,6.86-1.74,12.76-5.21,17.69-3.48,4.93-8.15,8.67-14.02,11.21-5.87,2.54-12.38,3.81-19.52,3.81s-13.65-1.27-19.52-3.81c-5.87-2.54-10.55-6.27-14.02-11.21-3.48-4.93-5.21-10.83-5.21-17.69,0-5.73,1.27-10.71,3.81-14.94,2.54-4.23,6.25-7.61,11.13-10.15-8.36-4.6-12.54-11.79-12.54-21.56Zm27.7,36.58c-2.21,2.11-3.31,4.96-3.31,8.53,0,3.38,1.08,6.16,3.24,8.32,2.16,2.16,5.07,3.24,8.74,3.24s6.55-1.08,8.67-3.24c2.11-2.16,3.17-4.93,3.17-8.32,0-3.57-1.08-6.41-3.24-8.53-2.16-2.11-5.03-3.17-8.6-3.17s-6.46,1.06-8.67,3.17Zm15.43-39.89c-1.69-1.83-3.95-2.75-6.77-2.75s-4.96.94-6.7,2.82c-1.74,1.88-2.61,4.42-2.61,7.61s.87,5.69,2.61,7.47c1.74,1.79,3.97,2.68,6.7,2.68s4.96-.89,6.7-2.68c1.74-1.78,2.61-4.27,2.61-7.47s-.85-5.85-2.54-7.68Z" style="fill:#8bb675;"/><g style="clip-path:url(#clippath);"><path d="m-794.86,64.16s1.21-4.85,3.91-13.47c2.71-8.68,7.03-21.24,13.5-36.84,6.49-15.6,15.18-34.25,27.23-54.52,12.09-20.19,27.48-42.24,48.34-62.74,20.58-20.56,47.48-39.17,79.63-49.41,16-5.2,33.25-8.07,50.85-8.27,17.27-.36,34.16-1.62,49.72-8.92,7.88-3.3,14.77-8.56,21.29-14.2,6.07-6.19,11.77-12.93,16.27-20.7,9.29-15.27,15.72-32.65,21.3-50.44,11.25-35.47,19.36-73.6,38.94-107.39,9.79-16.75,23.25-31.7,39.67-42.16,16.4-10.58,35.24-16.41,54.02-19.1,18.91-2.97,37.74-1.68,55.94-2.73,18.22-.85,36.33-2.71,53.4-7.3,17.06-4.53,33.05-12.14,45.78-23.35,12.58-11.37,22-25.43,29.59-39.84,15.09-28.93,26.74-57.82,40.35-83.03,26.33-51.02,56.31-88.72,78.12-113.86,11.09-12.5,19.99-22.13,26.32-28.43,6.25-6.39,9.57-9.81,9.57-9.81,0,0-3.28,3.44-9.47,9.89-6.29,6.37-15.09,16.08-26.04,28.67-21.55,25.37-51.09,63.26-76.85,114.39-13.34,25.29-24.64,54.16-39.56,83.5-7.51,14.59-16.96,29.09-29.86,40.99-13.06,11.71-29.57,19.73-46.96,24.54-17.46,4.86-35.73,6.92-54.23,7.95-18.48,1.23-37.14.14-55.39,3.22-18.25,2.79-36.28,8.62-51.78,18.84-15.54,10.14-28.18,24.4-37.47,40.62-18.59,32.8-26.35,70.53-37.33,106.5-5.48,18.05-11.87,35.97-21.54,52.3-4.67,8.23-10.76,15.64-17.34,22.44-7.07,6.31-14.68,12.18-23.3,15.9l-6.37,2.91-6.66,2.04c-4.35,1.54-8.91,2.41-13.5,3.1-4.62.93-9.05,1.38-13.35,1.46l-13.07.69c-16.8.36-33.14,3.26-48.26,8.34-30.36,10.01-55.76,27.9-75.34,47.85-19.83,19.83-34.55,41.31-46.09,61.06-11.53,19.81-19.83,38.1-26,53.35-6.16,15.27-10.26,27.58-12.79,35.99-2.56,8.48-3.61,12.89-3.61,12.89l-11.59-2.89Z" style="fill:#72a552;"/><path d="m-773.74,85.28s1.21-4.86,3.93-13.47c2.71-8.66,7.03-21.24,13.49-36.84,6.49-15.6,15.17-34.25,27.23-54.52,12.09-20.19,27.48-42.24,48.34-62.72,20.57-20.56,47.48-39.19,79.63-49.43,16-5.2,33.24-8.07,50.85-8.27,17.27-.36,34.15-1.62,49.72-8.92,7.88-3.3,14.77-8.54,21.28-14.2,6.07-6.19,11.78-12.93,16.28-20.68,9.28-15.3,15.72-32.67,21.3-50.44,11.24-35.49,19.36-73.6,38.94-107.41,9.78-16.75,23.24-31.7,39.67-42.16,16.4-10.58,35.24-16.41,54.02-19.1,18.91-2.97,37.74-1.66,55.93-2.71,18.22-.85,36.34-2.73,53.41-7.3,17.04-4.55,33.04-12.14,45.77-23.35,12.59-11.37,22-25.43,29.59-39.84,15.1-28.95,26.75-57.84,40.35-83.05,26.33-51.02,56.31-88.7,78.12-113.86,11.09-12.48,19.99-22.11,26.32-28.43,6.25-6.39,9.57-9.81,9.57-9.81,0,0-3.28,3.46-9.47,9.91-6.27,6.37-15.09,16.08-26.04,28.67-21.55,25.37-51.08,63.26-76.84,114.37-13.34,25.29-24.64,54.16-39.57,83.49-7.5,14.61-16.95,29.09-29.85,40.99-13.06,11.71-29.58,19.73-46.96,24.54-17.47,4.86-35.74,6.92-54.23,7.97-18.48,1.21-37.14.12-55.39,3.2-18.25,2.81-36.28,8.64-51.79,18.84-15.53,10.14-28.18,24.4-37.46,40.64-18.59,32.8-26.35,70.51-37.33,106.5-5.48,18.03-11.87,35.97-21.55,52.28-4.66,8.23-10.75,15.64-17.34,22.46-7.06,6.29-14.67,12.16-23.29,15.88l-6.37,2.93-6.66,2.02c-4.36,1.56-8.91,2.43-13.5,3.1-4.62.95-9.06,1.38-13.35,1.48l-13.07.69c-16.81.34-33.14,3.24-48.26,8.32-30.37,10.01-55.76,27.9-75.34,47.85-19.83,19.85-34.54,41.33-46.1,61.06-11.52,19.81-19.81,38.1-26,53.35-6.16,15.3-10.25,27.6-12.8,36.01-2.56,8.48-3.6,12.89-3.6,12.89l-11.6-2.91Z" style="fill:#72a552;"/><path d="m-752.6,106.42s1.21-4.88,3.92-13.47c2.7-8.68,7.03-21.26,13.48-36.86,6.5-15.58,15.18-34.23,27.23-54.5,12.09-20.19,27.49-42.24,48.35-62.74,20.58-20.56,47.48-39.17,79.63-49.42,16-5.18,33.24-8.07,50.85-8.26,17.27-.36,34.15-1.62,49.72-8.94,7.87-3.28,14.76-8.52,21.28-14.18,6.07-6.19,11.78-12.95,16.28-20.7,9.28-15.27,15.71-32.65,21.29-50.44,11.25-35.47,19.36-73.6,38.95-107.41,9.78-16.75,23.24-31.68,39.66-42.16,16.4-10.58,35.25-16.41,54.03-19.1,18.91-2.97,37.74-1.66,55.94-2.71,18.21-.85,36.33-2.73,53.4-7.3,17.04-4.55,33.04-12.14,45.77-23.35,12.59-11.35,22-25.43,29.59-39.84,15.09-28.93,26.74-57.84,40.35-83.05,26.34-51.02,56.3-88.67,78.11-113.84,11.09-12.5,19.99-22.13,26.34-28.44,6.23-6.39,9.57-9.79,9.57-9.79,0,0-3.3,3.44-9.49,9.89-6.27,6.37-15.09,16.08-26.02,28.67-21.55,25.37-51.1,63.26-76.86,114.39-13.33,25.27-24.63,54.14-39.56,83.47-7.51,14.61-16.95,29.09-29.85,40.99-13.06,11.71-29.58,19.75-46.97,24.54-17.46,4.88-35.73,6.92-54.22,7.97-18.49,1.21-37.16.14-55.4,3.2-18.24,2.81-36.29,8.64-51.77,18.86-15.54,10.12-28.18,24.4-37.47,40.62-18.59,32.8-26.35,70.51-37.33,106.5-5.48,18.05-11.87,35.97-21.55,52.28-4.67,8.26-10.75,15.64-17.34,22.46-7.07,6.29-14.68,12.16-23.29,15.9l-6.38,2.91-6.65,2.02c-4.36,1.56-8.91,2.43-13.51,3.1-4.61.95-9.04,1.38-13.34,1.48l-13.08.69c-16.81.34-33.14,3.24-48.25,8.31-30.37,10.01-55.77,27.92-75.34,47.85-19.84,19.85-34.56,41.33-46.1,61.08-11.52,19.81-19.82,38.08-26,53.35-6.16,15.27-10.26,27.58-12.8,35.99-2.56,8.48-3.6,12.89-3.6,12.89l-11.59-2.89Z" style="fill:#72a552;"/><path d="m-731.48,127.55s1.21-4.86,3.92-13.47c2.71-8.66,7.03-21.24,13.5-36.86,6.49-15.58,15.18-34.23,27.24-54.5,12.08-20.19,27.47-42.24,48.33-62.72,20.58-20.56,47.48-39.19,79.63-49.42,16.01-5.2,33.25-8.07,50.85-8.27,17.28-.36,34.16-1.62,49.73-8.92,7.87-3.3,14.76-8.54,21.28-14.2,6.07-6.19,11.77-12.93,16.28-20.68,9.28-15.3,15.71-32.67,21.29-50.44,11.25-35.49,19.36-73.6,38.94-107.41,9.79-16.75,23.25-31.7,39.67-42.18,16.4-10.56,35.24-16.41,54.02-19.08,18.91-2.99,37.74-1.68,55.94-2.73,18.22-.83,36.33-2.71,53.41-7.28,17.04-4.55,33.04-12.14,45.77-23.35,12.58-11.37,22-25.43,29.59-39.84,15.09-28.95,26.73-57.86,40.36-83.07,26.32-51.02,56.3-88.67,78.11-113.84,11.07-12.48,19.97-22.11,26.32-28.45,6.23-6.39,9.57-9.79,9.57-9.79,0,0-3.3,3.44-9.49,9.89-6.27,6.37-15.07,16.08-26.02,28.69-21.52,25.35-51.1,63.24-76.84,114.37-13.35,25.29-24.65,54.14-39.57,83.49-7.51,14.59-16.95,29.07-29.86,40.97-13.06,11.73-29.57,19.75-46.96,24.56-17.46,4.86-35.73,6.92-54.22,7.97-18.49,1.21-37.16.12-55.4,3.2-18.25,2.79-36.28,8.62-51.78,18.84-15.54,10.14-28.18,24.4-37.47,40.64-18.59,32.77-26.35,70.49-37.33,106.48-5.48,18.05-11.87,35.99-21.54,52.3-4.67,8.23-10.75,15.64-17.34,22.44-7.07,6.31-14.68,12.16-23.3,15.9l-6.37,2.93-6.66,2c-4.35,1.56-8.91,2.43-13.5,3.1-4.62.97-9.05,1.38-13.34,1.5l-13.08.67c-16.8.34-33.14,3.24-48.25,8.32-30.37,10.01-55.77,27.92-75.35,47.85-19.83,19.87-34.55,41.35-46.09,61.08-11.52,19.81-19.83,38.09-26,53.35-6.16,15.3-10.26,27.57-12.8,35.99-2.56,8.48-3.61,12.89-3.61,12.89l-11.59-2.89Z" style="fill:#72a552;"/><path d="m-710.35,148.67s1.21-4.85,3.92-13.47c2.71-8.66,7.03-21.24,13.5-36.84,6.49-15.6,15.17-34.25,27.23-54.52,12.09-20.19,27.49-42.24,48.34-62.72,20.58-20.55,47.48-39.17,79.63-49.42,16-5.2,33.24-8.07,50.85-8.25,17.27-.39,34.15-1.64,49.72-8.94,7.88-3.28,14.77-8.54,21.28-14.2,6.07-6.19,11.78-12.91,16.28-20.68,9.28-15.3,15.72-32.67,21.3-50.44,11.24-35.47,19.36-73.6,38.94-107.41,9.78-16.75,23.25-31.68,39.67-42.16,16.4-10.56,35.24-16.43,54.02-19.1,18.91-2.97,37.74-1.68,55.94-2.71,18.21-.85,36.33-2.71,53.4-7.3,17.04-4.55,33.04-12.14,45.77-23.35,12.59-11.37,22.01-25.43,29.59-39.84,15.11-28.95,26.75-57.84,40.36-83.07,26.34-51,56.33-88.67,78.13-113.82,11.07-12.5,19.97-22.13,26.3-28.45,6.25-6.39,9.59-9.79,9.59-9.79,0,0-3.32,3.42-9.49,9.87-6.27,6.37-15.07,16.1-26.04,28.69-21.53,25.37-51.08,63.24-76.84,114.37-13.35,25.29-24.64,54.16-39.57,83.49-7.5,14.61-16.95,29.09-29.85,40.99-13.06,11.71-29.58,19.73-46.96,24.54-17.46,4.86-35.73,6.94-54.23,7.97-18.48,1.21-37.14.12-55.39,3.22-18.25,2.79-36.28,8.6-51.79,18.82-15.53,10.14-28.17,24.4-37.46,40.64-18.59,32.8-26.35,70.51-37.33,106.48-5.48,18.05-11.87,35.99-21.54,52.3-4.67,8.23-10.76,15.66-17.35,22.44-7.06,6.31-14.67,12.16-23.29,15.9l-6.37,2.93-6.66,2.02c-4.36,1.54-8.91,2.43-13.5,3.1-4.61.95-9.06,1.38-13.35,1.48l-13.07.67c-16.81.36-33.14,3.26-48.25,8.34-30.38,10.01-55.77,27.9-75.35,47.85-19.83,19.85-34.55,41.33-46.1,61.08-11.52,19.81-19.81,38.08-26,53.33-6.16,15.3-10.25,27.58-12.79,36.01-2.56,8.48-3.6,12.87-3.6,12.87l-11.6-2.89Z" style="fill:#72a552;"/><path d="m-689.21,169.79s1.21-4.86,3.91-13.46c2.7-8.68,7.03-21.24,13.5-36.86,6.49-15.58,15.17-34.23,27.22-54.5,12.09-20.21,27.49-42.24,48.35-62.74,20.57-20.56,47.48-39.17,79.63-49.43,16-5.18,33.24-8.05,50.85-8.25,17.27-.36,34.15-1.62,49.72-8.92,7.87-3.3,14.76-8.56,21.28-14.22,6.07-6.17,11.78-12.91,16.28-20.68,9.29-15.3,15.71-32.67,21.29-50.44,11.25-35.47,19.37-73.6,38.95-107.41,9.78-16.75,23.24-31.68,39.66-42.16,16.4-10.56,35.25-16.41,54.03-19.08,18.91-2.97,37.74-1.68,55.94-2.73,18.21-.85,36.33-2.71,53.4-7.3,17.05-4.55,33.04-12.14,45.77-23.35,12.6-11.37,21.99-25.43,29.6-39.84,15.09-28.95,26.75-57.84,40.34-83.05,26.34-51,56.33-88.69,78.13-113.84,11.09-12.5,19.97-22.13,26.32-28.43,6.25-6.41,9.57-9.81,9.57-9.81,0,0-3.3,3.44-9.49,9.89-6.27,6.37-15.07,16.08-26.04,28.67-21.53,25.37-51.08,63.26-76.84,114.37-13.33,25.31-24.64,54.16-39.57,83.52-7.49,14.59-16.95,29.07-29.84,40.97-13.06,11.73-29.58,19.73-46.97,24.56-17.46,4.86-35.73,6.92-54.22,7.95-18.48,1.23-37.16.12-55.39,3.22-18.25,2.79-36.28,8.62-51.78,18.84-15.54,10.14-28.18,24.4-37.47,40.62-18.59,32.79-26.35,70.51-37.33,106.5-5.48,18.03-11.87,35.97-21.55,52.3-4.66,8.21-10.75,15.64-17.34,22.44-7.07,6.31-14.68,12.16-23.29,15.88l-6.38,2.93-6.65,2.04c-4.35,1.54-8.91,2.41-13.51,3.07-4.61.95-9.04,1.38-13.34,1.48l-13.07.69c-16.81.34-33.14,3.26-48.26,8.32-30.37,10.04-55.77,27.9-75.34,47.85-19.84,19.85-34.55,41.33-46.1,61.08-11.52,19.81-19.82,38.08-26,53.33-6.16,15.3-10.26,27.6-12.8,36.01-2.56,8.48-3.6,12.89-3.6,12.89l-11.59-2.91Z" style="fill:#72a552;"/><path d="m-668.09,190.93s1.21-4.86,3.92-13.47c2.71-8.68,7.03-21.24,13.5-36.84,6.49-15.6,15.18-34.25,27.23-54.52,12.08-20.19,27.47-42.24,48.33-62.72,20.58-20.58,47.48-39.19,79.64-49.43,16-5.2,33.24-8.07,50.84-8.27,17.28-.36,34.16-1.62,49.73-8.92,7.87-3.3,14.76-8.56,21.28-14.2,6.07-6.19,11.77-12.93,16.28-20.7,9.28-15.27,15.71-32.65,21.29-50.44,11.25-35.47,19.36-73.58,38.94-107.39,9.79-16.75,23.25-31.7,39.67-42.16,16.4-10.58,35.24-16.41,54.03-19.1,18.91-2.97,37.73-1.68,55.93-2.73,18.22-.83,36.33-2.71,53.41-7.3,17.05-4.53,33.04-12.14,45.78-23.33,12.58-11.37,21.99-25.45,29.58-39.86,15.09-28.93,26.75-57.82,40.34-83.03,26.34-51.02,56.32-88.69,78.13-113.86,11.09-12.5,19.99-22.13,26.32-28.43,6.25-6.39,9.57-9.81,9.57-9.81,0,0-3.28,3.44-9.47,9.89-6.27,6.37-15.09,16.08-26.04,28.67-21.55,25.39-51.08,63.26-76.86,114.39-13.31,25.29-24.62,54.16-39.55,83.49-7.51,14.61-16.95,29.09-29.86,40.99-13.05,11.71-29.57,19.73-46.96,24.54-17.46,4.86-35.73,6.92-54.22,7.97-18.49,1.21-37.16.12-55.4,3.2-18.25,2.79-36.28,8.62-51.78,18.84-15.53,10.14-28.18,24.4-37.47,40.62-18.59,32.81-26.35,70.53-37.32,106.5-5.49,18.05-11.87,35.97-21.55,52.3-4.67,8.23-10.75,15.64-17.34,22.44-7.06,6.31-14.68,12.18-23.3,15.9l-6.37,2.91-6.65,2.04c-4.36,1.54-8.92,2.43-13.51,3.1-4.62.95-9.05,1.38-13.34,1.46l-13.08.69c-16.8.36-33.14,3.26-48.25,8.33-30.37,10.01-55.77,27.9-75.35,47.85-19.83,19.83-34.55,41.31-46.09,61.06-11.52,19.81-19.82,38.1-26,53.35-6.16,15.27-10.26,27.58-12.8,35.99-2.56,8.48-3.61,12.89-3.61,12.89l-11.59-2.89Z" style="fill:#72a552;"/><path d="m-646.96,212.07s1.21-4.88,3.92-13.47c2.71-8.68,7.03-21.26,13.5-36.86,6.49-15.58,15.18-34.25,27.23-54.52,12.09-20.19,27.49-42.22,48.34-62.72,20.58-20.56,47.48-39.19,79.63-49.42,16-5.18,33.25-8.07,50.85-8.27,17.27-.36,34.16-1.6,49.72-8.92,7.88-3.28,14.77-8.54,21.28-14.2,6.08-6.17,11.78-12.93,16.28-20.68,9.28-15.3,15.72-32.67,21.3-50.44,11.24-35.49,19.36-73.6,38.94-107.41,9.78-16.75,23.25-31.7,39.67-42.16,16.4-10.58,35.24-16.41,54.02-19.1,18.91-2.97,37.74-1.66,55.94-2.71,18.21-.85,36.32-2.73,53.4-7.3,17.06-4.55,33.04-12.14,45.78-23.35,12.58-11.37,22.01-25.43,29.58-39.84,15.09-28.95,26.75-57.84,40.34-83.05,26.34-51.02,56.33-88.69,78.13-113.86,11.09-12.48,19.99-22.11,26.34-28.43,6.23-6.39,9.55-9.81,9.55-9.81,0,0-3.28,3.46-9.47,9.91-6.27,6.37-15.09,16.08-26.04,28.67-21.55,25.37-51.08,63.26-76.84,114.37-13.33,25.29-24.64,54.16-39.55,83.49-7.53,14.61-16.98,29.09-29.86,40.99-13.07,11.71-29.58,19.73-46.97,24.54-17.46,4.88-35.73,6.92-54.23,7.97-18.48,1.21-37.14.12-55.39,3.2-18.25,2.81-36.28,8.64-51.78,18.84-15.54,10.14-28.18,24.42-37.47,40.65-18.59,32.79-26.35,70.51-37.33,106.5-5.48,18.03-11.87,35.97-21.54,52.28-4.67,8.23-10.76,15.64-17.34,22.46-7.07,6.29-14.68,12.16-23.3,15.88l-6.37,2.93-6.66,2.02c-4.36,1.56-8.91,2.43-13.5,3.1-4.61.95-9.05,1.38-13.35,1.48l-13.07.69c-16.81.34-33.14,3.24-48.25,8.31-30.37,10.01-55.77,27.9-75.35,47.85-19.83,19.85-34.55,41.33-46.1,61.06-11.52,19.81-19.81,38.09-25.99,53.35-6.16,15.3-10.26,27.59-12.8,36.01-2.56,8.48-3.61,12.89-3.61,12.89l-11.59-2.89Z" style="fill:#72a552;"/><path d="m-625.83,233.19s1.21-4.86,3.92-13.47c2.71-8.68,7.03-21.24,13.5-36.86,6.49-15.58,15.17-34.23,27.23-54.5,12.09-20.19,27.49-42.24,48.34-62.74,20.58-20.55,47.48-39.17,79.63-49.4,16-5.2,33.24-8.09,50.85-8.27,17.27-.36,34.15-1.62,49.72-8.92,7.87-3.3,14.76-8.54,21.28-14.2,6.07-6.19,11.78-12.95,16.28-20.7,9.29-15.27,15.71-32.65,21.3-50.42,11.24-35.49,19.36-73.62,38.94-107.41,9.78-16.75,23.25-31.7,39.67-42.18,16.4-10.56,35.24-16.41,54.02-19.1,18.91-2.97,37.74-1.66,55.94-2.71,18.21-.85,36.33-2.73,53.41-7.3,17.03-4.55,33.04-12.14,45.76-23.35,12.59-11.35,22.01-25.43,29.58-39.84,15.09-28.93,26.75-57.84,40.36-83.05,26.34-51.02,56.33-88.67,78.13-113.84,11.07-12.5,19.97-22.13,26.32-28.45,6.23-6.39,9.57-9.79,9.57-9.79,0,0-3.3,3.44-9.49,9.89-6.27,6.37-15.09,16.08-26.02,28.67-21.55,25.37-51.1,63.26-76.84,114.39-13.35,25.29-24.64,54.14-39.57,83.47-7.51,14.61-16.95,29.09-29.86,40.99-13.07,11.71-29.58,19.75-46.98,24.54-17.45,4.88-35.72,6.92-54.21,7.97-18.48,1.23-37.14.14-55.39,3.22-18.25,2.79-36.28,8.62-51.78,18.84-15.54,10.14-28.18,24.4-37.47,40.62-18.59,32.79-26.35,70.51-37.33,106.5-5.48,18.05-11.87,35.97-21.55,52.28-4.66,8.25-10.75,15.66-17.34,22.46-7.06,6.29-14.68,12.16-23.29,15.9l-6.37,2.91-6.66,2.02c-4.35,1.56-8.91,2.43-13.51,3.1-4.61.95-9.04,1.38-13.33,1.48l-13.08.69c-16.81.34-33.14,3.24-48.25,8.32-30.38,10.01-55.78,27.92-75.35,47.85-19.83,19.85-34.56,41.35-46.1,61.08-11.52,19.81-19.82,38.1-26,53.35-6.16,15.27-10.25,27.57-12.8,35.99-2.56,8.48-3.6,12.89-3.6,12.89l-11.59-2.89Z" style="fill:#72a552;"/><path d="m-604.7,254.31s1.21-4.85,3.91-13.47c2.71-8.66,7.03-21.24,13.51-36.84,6.49-15.6,15.17-34.25,27.23-54.52,12.08-20.19,27.47-42.24,48.34-62.72,20.57-20.55,47.48-39.19,79.63-49.42,16-5.2,33.24-8.07,50.85-8.27,17.27-.36,34.15-1.62,49.72-8.92,7.87-3.3,14.76-8.54,21.28-14.2,6.07-6.19,11.78-12.93,16.28-20.68,9.28-15.29,15.71-32.67,21.29-50.44,11.25-35.49,19.36-73.6,38.95-107.41,9.78-16.75,23.24-31.68,39.66-42.16,16.4-10.58,35.24-16.43,54.03-19.1,18.91-2.99,37.73-1.68,55.94-2.71,18.21-.85,36.33-2.73,53.4-7.3,17.04-4.55,33.04-12.14,45.76-23.35,12.6-11.37,22.01-25.43,29.6-39.84,15.09-28.95,26.72-57.84,40.36-83.07,26.34-51.02,56.3-88.67,78.11-113.84,11.07-12.48,19.97-22.11,26.32-28.43,6.25-6.39,9.59-9.81,9.59-9.81,0,0-3.32,3.44-9.51,9.89-6.27,6.37-15.07,16.08-26.02,28.69-21.53,25.35-51.1,63.24-76.84,114.37-13.35,25.29-24.64,54.16-39.57,83.49-7.51,14.59-16.95,29.09-29.86,40.97-13.07,11.73-29.58,19.75-46.96,24.56-17.46,4.86-35.73,6.92-54.22,7.97-18.49,1.21-37.16.12-55.4,3.2-18.25,2.81-36.29,8.62-51.78,18.84-15.53,10.13-28.18,24.4-37.47,40.64-18.59,32.77-26.34,70.49-37.32,106.48-5.48,18.04-11.87,35.99-21.55,52.3-4.67,8.23-10.75,15.64-17.34,22.44-7.06,6.31-14.68,12.16-23.3,15.9l-6.37,2.93-6.65,2c-4.36,1.56-8.92,2.43-13.51,3.12-4.62.95-9.05,1.38-13.34,1.48l-13.08.67c-16.8.34-33.14,3.24-48.25,8.34-30.37,10.01-55.77,27.9-75.34,47.85-19.83,19.85-34.55,41.33-46.1,61.06-11.52,19.81-19.82,38.1-26,53.35-6.16,15.3-10.26,27.58-12.79,36.01-2.56,8.46-3.61,12.87-3.61,12.87l-11.59-2.89Z" style="fill:#72a552;"/><path d="m-583.57,275.44s1.21-4.86,3.92-13.47c2.71-8.66,7.03-21.24,13.49-36.84,6.49-15.6,15.18-34.25,27.23-54.52,12.09-20.19,27.48-42.24,48.34-62.72,20.59-20.56,47.48-39.17,79.63-49.43,16-5.2,33.25-8.07,50.85-8.25,17.27-.36,34.16-1.64,49.72-8.94,7.88-3.28,14.77-8.54,21.29-14.2,6.07-6.19,11.77-12.91,16.27-20.68,9.29-15.3,15.72-32.67,21.3-50.44,11.25-35.47,19.36-73.6,38.94-107.41,9.79-16.75,23.25-31.68,39.67-42.16,16.4-10.56,35.24-16.41,54.02-19.1,18.91-2.97,37.74-1.66,55.94-2.71,18.2-.85,36.33-2.71,53.4-7.3,17.06-4.55,33.04-12.14,45.78-23.35,12.58-11.37,21.99-25.43,29.6-39.84,15.09-28.95,26.72-57.84,40.34-83.05,26.34-51.02,56.32-88.69,78.13-113.84,11.07-12.5,19.97-22.13,26.3-28.45,6.25-6.39,9.59-9.79,9.59-9.79,0,0-3.3,3.44-9.49,9.89-6.27,6.35-15.07,16.08-26.04,28.67-21.52,25.37-51.08,63.26-76.84,114.37-13.35,25.29-24.64,54.16-39.57,83.52-7.49,14.59-16.95,29.07-29.86,40.97-13.03,11.71-29.56,19.73-46.94,24.54-17.48,4.86-35.73,6.94-54.24,7.97-18.48,1.21-37.15.12-55.39,3.22-18.25,2.79-36.29,8.6-51.78,18.84-15.54,10.12-28.18,24.38-37.47,40.62-18.59,32.79-26.35,70.51-37.33,106.5-5.48,18.03-11.87,35.97-21.54,52.28-4.67,8.23-10.76,15.66-17.34,22.44-7.07,6.31-14.68,12.18-23.3,15.9l-6.37,2.93-6.66,2.02c-4.36,1.54-8.91,2.43-13.5,3.1-4.61.95-9.05,1.38-13.35,1.48l-13.07.69c-16.81.34-33.14,3.24-48.25,8.32-30.37,10.01-55.77,27.9-75.35,47.85-19.83,19.85-34.55,41.33-46.09,61.08-11.53,19.81-19.82,38.08-26,53.33-6.16,15.3-10.26,27.6-12.8,36.01-2.56,8.48-3.61,12.89-3.61,12.89l-11.59-2.91Z" style="fill:#72a552;"/><path d="m-562.44,296.58s1.21-4.88,3.92-13.47c2.71-8.68,7.03-21.24,13.5-36.86,6.49-15.58,15.17-34.23,27.23-54.5,12.09-20.21,27.48-42.24,48.34-62.72,20.58-20.58,47.48-39.19,79.63-49.45,16-5.18,33.24-8.05,50.85-8.26,17.27-.36,34.15-1.62,49.72-8.92,7.88-3.3,14.77-8.56,21.28-14.22,6.07-6.17,11.78-12.91,16.28-20.68,9.29-15.3,15.71-32.65,21.3-50.44,11.24-35.47,19.36-73.6,38.94-107.41,9.78-16.75,23.25-31.68,39.67-42.16,16.4-10.56,35.24-16.41,54.02-19.08,18.91-2.97,37.75-1.68,55.94-2.73,18.21-.83,36.31-2.71,53.41-7.3,17.04-4.53,33.04-12.14,45.76-23.33,12.6-11.37,21.99-25.45,29.6-39.86,15.09-28.93,26.75-57.84,40.34-83.05,26.34-51,56.32-88.67,78.13-113.84,11.09-12.5,19.99-22.13,26.32-28.43,6.25-6.41,9.57-9.81,9.57-9.81,0,0-3.3,3.44-9.49,9.89-6.25,6.37-15.07,16.08-26.04,28.67-21.53,25.37-51.09,63.26-76.84,114.39-13.33,25.29-24.62,54.14-39.57,83.49-7.49,14.59-16.95,29.07-29.84,40.97-13.05,11.73-29.58,19.75-46.96,24.56-17.48,4.86-35.73,6.92-54.22,7.97-18.49,1.21-37.16.1-55.4,3.19-18.25,2.79-36.29,8.62-51.78,18.84-15.54,10.14-28.18,24.4-37.47,40.63-18.59,32.79-26.35,70.51-37.33,106.5-5.48,18.03-11.87,35.97-21.55,52.3-4.66,8.23-10.74,15.64-17.34,22.44-7.06,6.31-14.67,12.16-23.29,15.88l-6.37,2.93-6.65,2.04c-4.36,1.54-8.92,2.43-13.51,3.08-4.62.97-9.05,1.38-13.34,1.48l-13.08.69c-16.81.34-33.14,3.26-48.25,8.31-30.38,10.04-55.77,27.9-75.35,47.85-19.83,19.85-34.56,41.33-46.1,61.08-11.52,19.81-19.82,38.07-26,53.35-6.16,15.27-10.25,27.57-12.8,35.99-2.56,8.48-3.6,12.89-3.6,12.89l-11.59-2.89Z" style="fill:#72a552;"/><path d="m-541.31,317.7s1.2-4.86,3.92-13.47c2.7-8.66,7.03-21.24,13.49-36.84,6.49-15.6,15.17-34.25,27.23-54.52,12.08-20.19,27.47-42.24,48.34-62.72,20.57-20.57,47.48-39.19,79.63-49.42,16-5.2,33.24-8.07,50.85-8.27,17.27-.36,34.15-1.6,49.72-8.92,7.87-3.28,14.76-8.54,21.28-14.2,6.07-6.19,11.78-12.93,16.28-20.7,9.28-15.27,15.71-32.65,21.29-50.44,11.25-35.47,19.36-73.58,38.95-107.39,9.78-16.75,23.24-31.7,39.66-42.16,16.4-10.58,35.25-16.41,54.03-19.1,18.91-2.97,37.74-1.68,55.95-2.73,18.21-.83,36.3-2.71,53.39-7.3,17.05-4.53,33.04-12.14,45.78-23.33,12.58-11.37,21.99-25.45,29.58-39.84,15.09-28.95,26.75-57.84,40.34-83.05,26.34-51.02,56.33-88.69,78.13-113.86,11.09-12.48,19.99-22.13,26.32-28.43,6.25-6.39,9.57-9.81,9.57-9.81,0,0-3.28,3.44-9.47,9.89-6.27,6.37-15.09,16.08-26.04,28.67-21.55,25.39-51.09,63.26-76.86,114.39-13.31,25.29-24.62,54.16-39.55,83.49-7.51,14.61-16.95,29.09-29.84,40.99-13.07,11.72-29.58,19.73-46.98,24.54-17.44,4.86-35.73,6.92-54.22,7.97-18.49,1.21-37.14.12-55.4,3.2-18.25,2.79-36.29,8.62-51.78,18.84-15.53,10.13-28.17,24.42-37.46,40.62-18.6,32.82-26.35,70.53-37.33,106.5-5.48,18.05-11.87,35.99-21.55,52.3-4.67,8.23-10.75,15.64-17.34,22.44-7.06,6.31-14.68,12.18-23.29,15.9l-6.38,2.91-6.65,2.04c-4.36,1.56-8.91,2.43-13.51,3.1-4.61.95-9.05,1.38-13.34,1.48l-13.08.67c-16.8.36-33.14,3.26-48.25,8.34-30.37,10.01-55.76,27.9-75.34,47.85-19.83,19.83-34.55,41.31-46.1,61.06-11.52,19.81-19.82,38.1-26,53.35-6.16,15.27-10.26,27.57-12.79,35.99-2.57,8.48-3.61,12.89-3.61,12.89l-11.59-2.89Z" style="fill:#72a552;"/><path d="m-520.19,338.84s1.21-4.86,3.91-13.47c2.71-8.68,7.03-21.24,13.49-36.86,6.49-15.58,15.18-34.23,27.23-54.5,12.09-20.21,27.48-42.24,48.34-62.74,20.59-20.56,47.48-39.19,79.63-49.43,16-5.18,33.25-8.07,50.85-8.25,17.27-.36,34.16-1.62,49.72-8.92,7.88-3.3,14.77-8.56,21.29-14.2,6.07-6.19,11.78-12.95,16.27-20.7,9.29-15.29,15.72-32.67,21.31-50.44,11.24-35.49,19.35-73.6,38.93-107.41,9.79-16.75,23.25-31.7,39.67-42.16,16.4-10.56,35.24-16.41,54.01-19.1,18.92-2.97,37.75-1.66,55.96-2.71,18.21-.85,36.32-2.73,53.41-7.3,17.03-4.55,33.02-12.14,45.76-23.35,12.58-11.37,22.01-25.43,29.58-39.83,15.09-28.95,26.75-57.84,40.36-83.05,26.34-51.02,56.3-88.69,78.11-113.86,11.09-12.48,19.99-22.11,26.34-28.43,6.23-6.39,9.55-9.81,9.55-9.81,0,0-3.28,3.46-9.47,9.91-6.27,6.37-15.09,16.08-26.02,28.67-21.57,25.37-51.1,63.26-76.86,114.37-13.33,25.31-24.64,54.16-39.55,83.5-7.53,14.61-16.95,29.09-29.86,40.99-13.07,11.71-29.58,19.72-46.98,24.54-17.44,4.88-35.73,6.92-54.22,7.97-18.49,1.23-37.15.12-55.4,3.22-18.25,2.79-36.28,8.62-51.78,18.82-15.54,10.16-28.18,24.42-37.47,40.64-18.59,32.79-26.35,70.51-37.33,106.5-5.48,18.03-11.87,35.97-21.54,52.28-4.67,8.25-10.76,15.64-17.34,22.46-7.07,6.29-14.68,12.16-23.3,15.88l-6.37,2.93-6.66,2.02c-4.35,1.56-8.9,2.43-13.5,3.1-4.61.95-9.05,1.38-13.35,1.48l-13.07.69c-16.8.34-33.14,3.24-48.25,8.32-30.37,10.01-55.77,27.9-75.35,47.85-19.83,19.85-34.55,41.33-46.09,61.06-11.53,19.81-19.82,38.1-26,53.35-6.16,15.3-10.26,27.59-12.8,36.01-2.56,8.48-3.61,12.89-3.61,12.89l-11.59-2.89Z" style="fill:#72a552;"/><path d="m-499.06,359.96s1.21-4.85,3.91-13.47c2.71-8.68,7.03-21.24,13.49-36.84,6.49-15.6,15.17-34.25,27.23-54.52,12.09-20.19,27.48-42.24,48.34-62.74,20.58-20.56,47.48-39.17,79.63-49.41,16-5.2,33.24-8.09,50.85-8.27,17.27-.36,34.15-1.62,49.72-8.92,7.88-3.3,14.77-8.54,21.28-14.2,6.07-6.19,11.79-12.93,16.28-20.7,9.29-15.27,15.72-32.65,21.3-50.42,11.24-35.49,19.36-73.62,38.94-107.41,9.78-16.75,23.25-31.7,39.67-42.16,16.4-10.58,35.24-16.43,54.02-19.1,18.92-3,37.73-1.68,55.94-2.71,18.21-.87,36.34-2.73,53.41-7.32,17.04-4.55,33.04-12.14,45.76-23.35,12.58-11.35,22.01-25.43,29.58-39.83,15.11-28.93,26.75-57.82,40.36-83.05,26.36-51.02,56.32-88.67,78.13-113.84,11.07-12.5,19.97-22.13,26.32-28.43,6.23-6.41,9.57-9.81,9.57-9.81,0,0-3.3,3.44-9.49,9.89-6.27,6.37-15.07,16.08-26.02,28.67-21.55,25.37-51.1,63.26-76.84,114.39-13.35,25.29-24.64,54.16-39.57,83.47-7.51,14.61-16.95,29.09-29.86,40.99-13.07,11.73-29.58,19.75-46.96,24.54-17.46,4.87-35.75,6.94-54.24,7.97-18.47,1.23-37.15.14-55.39,3.22-18.25,2.81-36.28,8.62-51.77,18.84-15.54,10.14-28.18,24.4-37.47,40.62-18.59,32.79-26.35,70.51-37.33,106.5-5.47,18.05-11.87,35.97-21.54,52.3-4.67,8.23-10.75,15.64-17.35,22.44-7.06,6.29-14.67,12.16-23.29,15.9l-6.37,2.91-6.65,2.02c-4.36,1.56-8.92,2.43-13.51,3.1-4.62.95-9.05,1.39-13.34,1.48l-13.08.69c-16.81.34-33.14,3.24-48.25,8.32-30.38,10.04-55.77,27.92-75.35,47.87-19.83,19.83-34.55,41.33-46.1,61.06-11.52,19.81-19.81,38.1-26,53.35-6.16,15.27-10.25,27.58-12.8,35.99-2.56,8.48-3.6,12.89-3.6,12.89l-11.59-2.89Z" style="fill:#72a552;"/><path d="m-477.92,381.09s1.21-4.86,3.91-13.47c2.7-8.66,7.03-21.24,13.49-36.84,6.49-15.6,15.17-34.25,27.23-54.52,12.08-20.19,27.48-42.24,48.34-62.72,20.58-20.56,47.48-39.19,79.63-49.43,16-5.2,33.24-8.07,50.85-8.27,17.27-.34,34.15-1.62,49.72-8.92,7.87-3.3,14.76-8.54,21.28-14.2,6.07-6.19,11.78-12.93,16.28-20.68,9.29-15.3,15.71-32.67,21.29-50.44,11.25-35.49,19.36-73.6,38.94-107.41,9.78-16.75,23.24-31.68,39.66-42.16,16.41-10.58,35.26-16.41,54.04-19.1,18.9-2.97,37.73-1.66,55.92-2.71,18.21-.85,36.34-2.73,53.41-7.3,17.04-4.55,33.04-12.14,45.76-23.35,12.6-11.37,22.01-25.43,29.6-39.84,15.09-28.95,26.75-57.84,40.36-83.05,26.34-51.02,56.3-88.69,78.11-113.86,11.07-12.48,19.99-22.11,26.32-28.43,6.25-6.39,9.59-9.81,9.59-9.81,0,0-3.32,3.46-9.51,9.89-6.27,6.37-15.05,16.1-26.02,28.69-21.52,25.35-51.1,63.26-76.84,114.37-13.35,25.29-24.64,54.16-39.57,83.49-7.51,14.59-16.95,29.09-29.86,40.99-13.05,11.71-29.58,19.73-46.96,24.54-17.46,4.86-35.73,6.92-54.22,7.97-18.49,1.21-37.17.12-55.41,3.19-18.23,2.81-36.28,8.62-51.76,18.84-15.54,10.14-28.18,24.4-37.47,40.64-18.59,32.78-26.35,70.51-37.33,106.48-5.48,18.05-11.87,35.99-21.55,52.3-4.67,8.23-10.75,15.64-17.34,22.44-7.06,6.31-14.68,12.18-23.29,15.9l-6.38,2.93-6.65,2c-4.36,1.56-8.91,2.43-13.51,3.12-4.61.95-9.04,1.38-13.34,1.48l-13.08.69c-16.8.34-33.14,3.22-48.25,8.31-30.37,10.01-55.76,27.9-75.34,47.85-19.83,19.85-34.55,41.33-46.1,61.06-11.52,19.81-19.82,38.09-26,53.35-6.16,15.29-10.26,27.59-12.79,36.01-2.57,8.48-3.61,12.89-3.61,12.89l-11.59-2.91Z" style="fill:#72a552;"/><path d="m-456.8,402.23s1.21-4.88,3.91-13.5c2.71-8.66,7.03-21.24,13.49-36.84,6.49-15.6,15.18-34.25,27.24-54.52,12.08-20.19,27.47-42.24,48.33-62.72,20.59-20.56,47.48-39.17,79.63-49.42,16.01-5.2,33.25-8.05,50.85-8.26,17.28-.36,34.16-1.62,49.73-8.94,7.87-3.28,14.76-8.54,21.28-14.2,6.07-6.19,11.78-12.91,16.28-20.68,9.28-15.3,15.71-32.67,21.3-50.44,11.24-35.47,19.35-73.6,38.93-107.41,9.79-16.75,23.24-31.68,39.68-42.16,16.39-10.56,35.24-16.41,54.02-19.1,18.9-2.97,37.73-1.66,55.92-2.71,18.23-.85,36.34-2.71,53.41-7.3,17.05-4.55,33.06-12.14,45.78-23.33,12.58-11.39,21.99-25.45,29.6-39.86,15.09-28.95,26.73-57.84,40.34-83.05,26.34-51.02,56.32-88.69,78.13-113.84,11.07-12.5,19.99-22.13,26.3-28.45,6.25-6.39,9.59-9.79,9.59-9.79,0,0-3.3,3.44-9.49,9.89-6.27,6.37-15.07,16.08-26.04,28.67-21.53,25.37-51.09,63.26-76.84,114.39-13.33,25.27-24.64,54.14-39.57,83.49-7.49,14.59-16.95,29.07-29.86,40.97-13.03,11.72-29.56,19.75-46.94,24.54-17.48,4.86-35.73,6.94-54.22,7.97-18.49,1.21-37.16.12-55.41,3.22-18.25,2.79-36.28,8.6-51.77,18.83-15.54,10.12-28.19,24.38-37.48,40.63-18.59,32.79-26.35,70.51-37.33,106.5-5.48,18.03-11.87,35.97-21.54,52.28-4.67,8.26-10.75,15.66-17.34,22.46-7.07,6.29-14.68,12.16-23.3,15.88l-6.37,2.93-6.66,2.02c-4.35,1.56-8.9,2.43-13.5,3.1-4.61.97-9.05,1.38-13.34,1.48l-13.08.69c-16.8.34-33.14,3.24-48.25,8.32-30.37,10.01-55.77,27.9-75.35,47.85-19.82,19.85-34.55,41.33-46.09,61.08-11.52,19.81-19.82,38.08-26,53.35-6.16,15.27-10.25,27.57-12.8,35.99-2.56,8.48-3.61,12.89-3.61,12.89l-11.59-2.89Z" style="fill:#72a552;"/><path d="m-435.67,423.35s1.21-4.87,3.91-13.47c2.71-8.66,7.03-21.24,13.49-36.86,6.49-15.58,15.18-34.23,27.23-54.5,12.09-20.21,27.48-42.24,48.34-62.72,20.58-20.57,47.48-39.19,79.64-49.45,15.99-5.18,33.24-8.05,50.84-8.25,17.27-.36,34.15-1.62,49.72-8.92,7.88-3.3,14.77-8.56,21.28-14.22,6.07-6.17,11.79-12.91,16.28-20.68,9.29-15.29,15.72-32.65,21.3-50.44,11.24-35.47,19.36-73.58,38.94-107.41,9.77-16.75,23.25-31.68,39.67-42.16,16.39-10.56,35.24-16.41,54.02-19.08,18.92-2.97,37.75-1.68,55.94-2.73,18.21-.83,36.32-2.71,53.41-7.3,17.03-4.53,33.04-12.14,45.76-23.33,12.6-11.37,22.01-25.45,29.6-39.84,15.09-28.95,26.75-57.86,40.34-83.07,26.34-51,56.33-88.67,78.13-113.84,11.09-12.48,19.99-22.13,26.32-28.43,6.25-6.41,9.57-9.81,9.57-9.81,0,0-3.3,3.44-9.47,9.89-6.27,6.37-15.09,16.08-26.06,28.67-21.53,25.37-51.07,63.26-76.84,114.39-13.33,25.29-24.62,54.14-39.55,83.49-7.51,14.59-16.97,29.07-29.86,40.97-13.05,11.73-29.56,19.75-46.96,24.56-17.46,4.86-35.73,6.92-54.22,7.97-18.49,1.21-37.14.12-55.39,3.2-18.25,2.79-36.29,8.62-51.79,18.84C-37.6-31.05-50.24-16.79-59.53-.56c-18.59,32.79-26.35,70.51-37.33,106.5-5.47,18.05-11.87,35.99-21.54,52.3-4.67,8.23-10.75,15.64-17.35,22.44-7.06,6.31-14.67,12.16-23.29,15.9l-6.37,2.91-6.65,2.04c-4.36,1.54-8.91,2.43-13.51,3.07-4.61.97-9.05,1.4-13.34,1.5l-13.08.67c-16.81.34-33.14,3.26-48.25,8.34-30.38,10.01-55.77,27.88-75.35,47.83-19.83,19.85-34.55,41.33-46.1,61.08-11.52,19.81-19.81,38.08-25.99,53.35-6.16,15.27-10.26,27.57-12.81,35.99-2.56,8.48-3.6,12.89-3.6,12.89l-11.59-2.89Z" style="fill:#72a552;"/><path d="m-414.54,444.47s1.21-4.86,3.91-13.46c2.7-8.68,7.03-21.24,13.49-36.86,6.49-15.6,15.17-34.25,27.23-54.52,12.08-20.19,27.48-42.24,48.34-62.72,20.58-20.56,47.48-39.19,79.63-49.43,16-5.2,33.24-8.07,50.85-8.25,17.27-.39,34.16-1.62,49.72-8.94,7.87-3.28,14.76-8.54,21.28-14.2,6.07-6.17,11.79-12.93,16.28-20.68,9.29-15.29,15.71-32.67,21.3-50.46,11.24-35.47,19.36-73.58,38.95-107.39C-33.77.82-20.32-14.14-3.89-24.6c16.41-10.58,35.24-16.41,54.02-19.1,18.92-2.97,37.75-1.68,55.96-2.73,18.21-.83,36.31-2.71,53.39-7.28,17.05-4.55,33.04-12.16,45.78-23.35,12.58-11.37,21.99-25.43,29.58-39.83,15.09-28.95,26.75-57.84,40.34-83.05,26.34-51.02,56.32-88.69,78.13-113.86,11.09-12.48,19.99-22.11,26.32-28.43,6.25-6.39,9.57-9.81,9.57-9.81,0,0-3.28,3.44-9.47,9.89-6.27,6.37-15.09,16.08-26.04,28.69-21.55,25.37-51.08,63.24-76.84,114.37-13.33,25.29-24.64,54.16-39.57,83.5-7.51,14.61-16.95,29.09-29.84,40.99-13.07,11.71-29.58,19.72-46.98,24.54-17.44,4.85-35.73,6.92-54.22,7.97-18.49,1.21-37.15.12-55.4,3.22C32.61-36.11,14.56-30.28-.94-20.06-16.48-9.93-29.1,4.36-38.41,20.58c-18.57,32.79-26.34,70.51-37.32,106.48-5.48,18.05-11.87,35.99-21.55,52.3-4.66,8.23-10.75,15.64-17.34,22.44-7.06,6.31-14.68,12.18-23.29,15.9l-6.38,2.91-6.65,2.04c-4.35,1.56-8.91,2.43-13.51,3.1-4.61.95-9.04,1.38-13.34,1.48l-13.07.67c-16.81.36-33.14,3.26-48.26,8.34-30.37,10.01-55.76,27.9-75.34,47.85-19.83,19.85-34.55,41.33-46.1,61.06-11.52,19.81-19.82,38.1-26,53.35-6.16,15.3-10.26,27.58-12.79,35.99-2.57,8.48-3.61,12.89-3.61,12.89l-11.59-2.89Z" style="fill:#72a552;"/><path d="m-393.42,465.61s1.21-4.86,3.91-13.47c2.71-8.68,7.03-21.24,13.5-36.86,6.49-15.58,15.17-34.23,27.23-54.5,12.08-20.21,27.47-42.24,48.34-62.74,20.58-20.56,47.47-39.17,79.63-49.43,16-5.18,33.24-8.07,50.85-8.25,17.27-.36,34.15-1.62,49.72-8.92,7.88-3.3,14.76-8.56,21.28-14.2,6.07-6.19,11.78-12.95,16.28-20.7,9.28-15.3,15.71-32.67,21.31-50.44,11.23-35.47,19.34-73.6,38.93-107.41C-12.63,21.96.8,6.99,17.23-3.47c16.41-10.56,35.24-16.41,54.04-19.08,18.92-2.99,37.73-1.68,55.94-2.73,18.21-.85,36.31-2.71,53.41-7.3,17.04-4.55,33.02-12.14,45.76-23.35,12.58-11.37,22.01-25.43,29.58-39.84,15.09-28.95,26.75-57.84,40.36-83.05,26.34-51.02,56.3-88.69,78.13-113.86,11.06-12.48,19.97-22.11,26.32-28.43,6.23-6.39,9.57-9.81,9.57-9.81,0,0-3.3,3.46-9.49,9.91-6.27,6.37-15.09,16.08-26.02,28.67-21.55,25.37-51.1,63.26-76.86,114.37-13.33,25.31-24.62,54.16-39.55,83.5-7.53,14.61-16.95,29.09-29.86,40.99-13.07,11.71-29.58,19.73-46.98,24.54-17.44,4.87-35.73,6.94-54.22,7.97-18.49,1.23-37.15.12-55.39,3.22C53.73-14.96,35.68-9.14,20.18,1.06,4.66,11.22-7.98,25.48-17.29,41.7c-18.57,32.8-26.34,70.51-37.31,106.5-5.48,18.03-11.87,35.97-21.55,52.28-4.67,8.25-10.75,15.64-17.34,22.46-7.06,6.29-14.68,12.16-23.3,15.88l-6.37,2.93-6.65,2.02c-4.36,1.56-8.91,2.43-13.51,3.1-4.61.95-9.05,1.39-13.34,1.48l-13.08.69c-16.8.34-33.14,3.24-48.25,8.31-30.37,10.04-55.76,27.9-75.35,47.85-19.82,19.85-34.53,41.33-46.09,61.06-11.52,19.81-19.82,38.09-26,53.35-6.16,15.29-10.25,27.59-12.8,36.01-2.56,8.48-3.61,12.89-3.61,12.89l-11.59-2.89Z" style="fill:#72a552;"/><path d="m-372.29,486.73s1.21-4.86,3.91-13.47c2.71-8.68,7.03-21.24,13.49-36.84,6.49-15.6,15.18-34.25,27.23-54.52,12.09-20.19,27.48-42.24,48.34-62.74,20.59-20.56,47.48-39.17,79.64-49.4,15.99-5.2,33.24-8.07,50.84-8.28,17.27-.36,34.16-1.62,49.72-8.92,7.88-3.3,14.77-8.54,21.28-14.2,6.08-6.19,11.79-12.93,16.27-20.7,9.31-15.27,15.74-32.65,21.32-50.42C-29,131.75-20.89,93.62-1.3,59.83c9.79-16.75,23.24-31.7,39.67-42.16C54.78,7.09,73.61,1.26,92.39-1.43c18.92-2.97,37.73-1.68,55.94-2.71,18.21-.87,36.34-2.73,53.41-7.33,17.04-4.55,33.04-12.14,45.76-23.35,12.58-11.35,22.01-25.43,29.58-39.84,15.11-28.93,26.75-57.82,40.36-83.05,26.36-51.02,56.32-88.67,78.13-113.84,11.07-12.5,19.99-22.13,26.32-28.43,6.23-6.39,9.57-9.81,9.57-9.81,0,0-3.3,3.44-9.49,9.89-6.27,6.37-15.05,16.08-26.02,28.67-21.55,25.37-51.1,63.26-76.84,114.39-13.35,25.29-24.64,54.16-39.57,83.47-7.51,14.61-16.95,29.11-29.86,41.01-13.07,11.72-29.58,19.73-46.96,24.54C185.27-2.95,167-.88,148.49.15c-18.47,1.23-37.14.14-55.39,3.22-18.25,2.81-36.28,8.62-51.77,18.83C25.79,32.34,13.14,46.6,3.86,62.83c-18.59,32.79-26.36,70.51-37.33,106.5-5.46,18.05-11.85,35.97-21.52,52.3-4.69,8.23-10.76,15.64-17.35,22.44-7.07,6.31-14.68,12.18-23.3,15.9l-6.37,2.91-6.65,2.02c-4.36,1.56-8.91,2.43-13.51,3.12-4.61.93-9.05,1.38-13.34,1.46l-13.08.69c-16.81.36-33.14,3.24-48.25,8.33-30.37,10.01-55.77,27.9-75.35,47.85-19.83,19.83-34.55,41.33-46.1,61.06-11.52,19.81-19.81,38.09-25.99,53.35-6.16,15.27-10.26,27.59-12.8,35.99-2.56,8.48-3.6,12.89-3.6,12.89l-11.6-2.89Z" style="fill:#72a552;"/><path d="m-351.15,507.88s1.21-4.88,3.91-13.5c2.71-8.66,7.03-21.24,13.49-36.84,6.49-15.6,15.17-34.25,27.23-54.52,12.09-20.19,27.48-42.24,48.34-62.72,20.58-20.56,47.48-39.19,79.63-49.42,16-5.2,33.24-8.07,50.85-8.27,17.27-.34,34.16-1.62,49.72-8.92,7.87-3.3,14.77-8.54,21.27-14.2,6.07-6.19,11.8-12.93,16.29-20.68,9.29-15.3,15.72-32.67,21.3-50.44C-7.86,152.88.26,114.76,19.82,80.95c9.79-16.75,23.27-31.68,39.69-42.16,16.39-10.58,35.24-16.41,54.02-19.1,18.9-2.97,37.73-1.66,55.92-2.71,18.21-.85,36.34-2.73,53.41-7.3,17.03-4.55,33.06-12.14,45.76-23.35,12.6-11.37,22.01-25.43,29.62-39.84,15.07-28.95,26.73-57.84,40.34-83.05,26.34-51.02,56.3-88.7,78.13-113.86,11.07-12.48,19.97-22.11,26.3-28.43,6.25-6.39,9.59-9.81,9.59-9.81,0,0-3.32,3.46-9.49,9.91-6.29,6.37-15.07,16.08-26.04,28.67-21.53,25.35-51.1,63.26-76.84,114.39-13.35,25.27-24.64,54.14-39.57,83.47-7.49,14.61-16.95,29.09-29.86,40.99-13.05,11.71-29.58,19.72-46.96,24.54-17.46,4.86-35.73,6.92-54.22,7.97-18.47,1.21-37.14.12-55.39,3.2-18.25,2.81-36.28,8.62-51.77,18.84-15.54,10.13-28.2,24.4-37.47,40.64C6.39,116.76-1.36,154.47-12.35,190.46c-5.46,18.03-11.86,35.97-21.53,52.28-4.67,8.26-10.76,15.64-17.36,22.46-7.04,6.29-14.67,12.16-23.28,15.88l-6.37,2.93-6.65,2.02c-4.35,1.56-8.91,2.43-13.52,3.1-4.61.95-9.04,1.38-13.33,1.48l-13.08.69c-16.81.34-33.14,3.24-48.25,8.32-30.38,10.01-55.77,27.9-75.35,47.85-19.83,19.85-34.55,41.33-46.1,61.06-11.51,19.81-19.82,38.1-26,53.35-6.15,15.3-10.25,27.59-12.79,36.01-2.57,8.48-3.61,12.89-3.61,12.89l-11.59-2.89Z" style="fill:#72a552;"/><path d="m-330.03,529s1.21-4.87,3.91-13.49c2.71-8.66,7.03-21.24,13.5-36.84,6.49-15.6,15.17-34.25,27.23-54.52,12.08-20.19,27.47-42.24,48.34-62.72,20.58-20.56,47.48-39.17,79.63-49.43,16-5.2,33.24-8.05,50.85-8.25,17.27-.36,34.15-1.62,49.72-8.94,7.87-3.28,14.75-8.54,21.28-14.2,6.07-6.19,11.8-12.91,16.29-20.68,9.26-15.29,15.7-32.65,21.28-50.44,11.25-35.47,19.36-73.6,38.95-107.41,9.77-16.75,23.25-31.68,39.67-42.16,16.39-10.56,35.24-16.41,54.02-19.1,18.9-2.97,37.73-1.66,55.94-2.71,18.21-.85,36.31-2.71,53.39-7.3,17.05-4.55,33.06-12.14,45.78-23.33,12.6-11.37,22.01-25.45,29.6-39.86,15.09-28.93,26.72-57.84,40.34-83.05,26.34-51.02,56.33-88.67,78.13-113.84,11.07-12.5,19.99-22.13,26.3-28.45,6.25-6.39,9.59-9.79,9.59-9.79,0,0-3.3,3.44-9.49,9.89-6.27,6.37-15.07,16.08-26.04,28.67-21.53,25.37-51.08,63.26-76.84,114.39-13.33,25.27-24.64,54.14-39.57,83.49-7.49,14.59-16.95,29.07-29.84,40.97-13.05,11.71-29.58,19.75-46.96,24.54-17.46,4.85-35.73,6.94-54.22,7.97-18.49,1.21-37.16.14-55.41,3.22-18.25,2.79-36.27,8.62-51.77,18.84-15.54,10.12-28.2,24.4-37.47,40.62-18.61,32.79-26.34,70.51-37.33,106.5-5.48,18.05-11.88,35.97-21.55,52.28-4.67,8.25-10.76,15.66-17.34,22.46-7.06,6.29-14.67,12.16-23.29,15.9l-6.39,2.91-6.64,2.02c-4.36,1.56-8.91,2.43-13.52,3.1-4.61.97-9.05,1.38-13.34,1.48l-13.08.69c-16.8.34-33.14,3.24-48.25,8.32-30.37,10.01-55.76,27.9-75.34,47.85-19.83,19.85-34.55,41.33-46.1,61.08-11.52,19.81-19.82,38.08-26,53.35-6.16,15.27-10.25,27.58-12.8,35.99-2.56,8.48-3.61,12.89-3.61,12.89l-11.59-2.89Z" style="fill:#72a552;"/><path d="m-308.9,550.12s1.21-4.88,3.91-13.47c2.71-8.66,7.03-21.24,13.49-36.86,6.49-15.58,15.18-34.23,27.23-54.5,12.09-20.19,27.48-42.24,48.34-62.72,20.59-20.56,47.48-39.19,79.64-49.45,15.99-5.18,33.24-8.05,50.84-8.23,17.27-.39,34.16-1.64,49.72-8.94,7.87-3.3,14.77-8.54,21.3-14.2,6.07-6.19,11.78-12.93,16.27-20.68,9.27-15.3,15.7-32.67,21.28-50.46,11.25-35.47,19.38-73.58,38.95-107.39,9.79-16.77,23.25-31.7,39.68-42.18,16.39-10.56,35.24-16.41,54.02-19.08,18.92-2.97,37.75-1.68,55.94-2.73,18.21-.83,36.34-2.71,53.41-7.28,17.06-4.55,33.04-12.16,45.78-23.35,12.58-11.37,21.99-25.43,29.58-39.83,15.09-28.95,26.75-57.86,40.34-83.07,26.34-51,56.32-88.67,78.13-113.84,11.09-12.48,19.99-22.13,26.32-28.43,6.25-6.41,9.57-9.81,9.57-9.81,0,0-3.3,3.44-9.47,9.89-6.27,6.37-15.09,16.08-26.04,28.69-21.55,25.35-51.1,63.24-76.86,114.37-13.31,25.29-24.62,54.14-39.55,83.5-7.51,14.61-16.98,29.07-29.86,40.97-13.05,11.73-29.56,19.75-46.96,24.56-17.46,4.85-35.73,6.92-54.22,7.97-18.49,1.21-37.15.12-55.4,3.2-18.25,2.79-36.29,8.62-51.79,18.84-15.54,10.14-28.18,24.4-37.47,40.64-18.59,32.78-26.34,70.49-37.33,106.48-5.48,18.05-11.87,35.99-21.55,52.3-4.66,8.23-10.74,15.64-17.32,22.44-7.08,6.31-14.69,12.16-23.31,15.9l-6.37,2.91-6.66,2.04c-4.35,1.54-8.9,2.43-13.51,3.08-4.6.97-9.05,1.39-13.33,1.5l-13.08.67c-16.81.34-33.14,3.26-48.25,8.33-30.37,10.01-55.77,27.9-75.35,47.83-19.83,19.87-34.55,41.35-46.09,61.08-11.53,19.81-19.82,38.1-26,53.35-6.16,15.3-10.26,27.58-12.8,35.99-2.56,8.48-3.6,12.89-3.6,12.89l-11.6-2.89Z" style="fill:#72a552;"/><path d="m-287.77,571.24s1.21-4.86,3.91-13.45c2.71-8.68,7.03-21.24,13.49-36.86,6.49-15.6,15.17-34.25,27.23-54.52,12.09-20.19,27.48-42.24,48.34-62.72,20.58-20.56,47.48-39.19,79.63-49.42,16.01-5.2,33.24-8.07,50.85-8.26,17.28-.38,34.15-1.62,49.73-8.94,7.87-3.28,14.77-8.54,21.28-14.2,6.07-6.17,11.77-12.93,16.26-20.68,9.29-15.3,15.7-32.67,21.31-50.44,11.23-35.49,19.36-73.6,38.94-107.41,9.77-16.75,23.23-31.7,39.65-42.16,16.41-10.56,35.24-16.41,54.02-19.1,18.94-2.97,37.75-1.68,55.96-2.71,18.21-.85,36.31-2.71,53.41-7.3,17.04-4.55,33.02-12.14,45.76-23.35,12.58-11.37,22.01-25.43,29.58-39.84,15.09-28.95,26.75-57.84,40.34-83.05,26.36-51.02,56.33-88.69,78.13-113.86,11.09-12.48,19.99-22.11,26.34-28.42,6.23-6.39,9.55-9.81,9.55-9.81,0,0-3.28,3.44-9.47,9.89-6.27,6.37-15.09,16.08-26.04,28.69-21.55,25.37-51.08,63.24-76.86,114.37-13.31,25.29-24.6,54.16-39.53,83.5-7.53,14.61-16.98,29.09-29.86,40.99-13.07,11.72-29.58,19.73-46.98,24.54-17.44,4.86-35.73,6.94-54.22,7.97-18.49,1.21-37.15.12-55.39,3.22-18.25,2.77-36.3,8.6-51.79,18.82-15.54,10.16-28.16,24.42-37.47,40.65-18.57,32.79-26.34,70.51-37.31,106.48-5.5,18.05-11.87,35.99-21.57,52.3-4.65,8.23-10.72,15.64-17.32,22.44-7.08,6.31-14.69,12.18-23.31,15.9l-6.35,2.93-6.66,2.02c-4.35,1.56-8.92,2.43-13.51,3.1-4.63.95-9.04,1.38-13.33,1.48l-13.09.67c-16.81.36-33.14,3.26-48.25,8.33-30.38,10.01-55.77,27.9-75.35,47.85-19.83,19.85-34.55,41.33-46.1,61.06-11.51,19.81-19.82,38.09-26,53.35-6.15,15.29-10.25,27.57-12.79,36.01-2.57,8.46-3.61,12.87-3.61,12.87l-11.59-2.89Z" style="fill:#72a552;"/></g></g></svg>