<?xml version="1.0" encoding="UTF-8"?><svg id="Calque_2" xmlns="http://www.w3.org/2000/svg" viewBox="0 0 38.53 101.55"><g id="accueil_desktop"><path d="m0,0v22.12h13.77v79.43h24.76V0H0Z" style="fill:#8bb675;"/><path d="m13.53.01c-3.49,7.22-6.5,14.62-9.21,22.11h5.82C12.83,14.58,15.84,7.18,19.34.01h-5.81Zm24.46,65.66c-4.01,11.93-7.4,24-10.89,35.88h6.14c1.76-6.21,3.49-12.44,5.29-18.64v-18.83c-.18.53-.36,1.06-.54,1.59Zm-.2-59.21c-11.1,19.18-17.9,39.98-24.02,60.66v21.13c3.8-13.28,7.38-26.7,11.67-39.81h0c2.69-8.21,5.66-16.29,9.14-24.14,1.24-2.82,2.56-5.61,3.95-8.37V5.23c-.26.41-.5.82-.74,1.23Z" style="fill:#72a552;"/></g></svg>