<?xml version="1.0" encoding="UTF-8"?><svg id="Calque_2" xmlns="http://www.w3.org/2000/svg" viewBox="0 0 80.29 106"><g id="accueil_desktop"><path d="m9.5,14.14C15.83,4.71,26.05,0,40.14,0s24.31,4.71,30.64,14.14c6.33,9.43,9.5,22.33,9.5,38.71s-3.17,29.57-9.5,39c-6.33,9.43-16.55,14.14-30.64,14.14s-24.31-4.71-30.64-14.14C3.16,82.43,0,69.43,0,52.86S3.16,23.57,9.5,14.14Zm43.64,16.5c-2.1-5.19-6.43-7.79-13-7.79s-10.91,2.6-13,7.79c-2.1,5.19-3.14,12.6-3.14,22.21,0,6.48.38,11.84,1.14,16.07.76,4.24,2.31,7.67,4.64,10.29,2.33,2.62,5.79,3.93,10.36,3.93s8.02-1.31,10.36-3.93c2.33-2.62,3.88-6.05,4.64-10.29.76-4.24,1.14-9.59,1.14-16.07,0-9.62-1.05-17.02-3.14-22.21Z" style="fill:#8bb675;"/><path d="m60.62,4.68c-11.36,2.56-22.95,4.43-34.3,6.85-4,.85-12.29,2.47-17.56,3.75-1.06,1.69-2.02,3.48-2.88,5.38,6.78-1.89,15.91-3.85,21.33-5.05,12.31-2.76,25.08-4.86,37.68-8-1.32-1.1-2.75-2.08-4.27-2.93ZM17.15,48.54c-5.08,2.32-9.76,5.52-14.08,9.04-.96.91-1.91,1.83-2.84,2.78H.23c.14,2.21.35,4.33.62,6.37,1.63-1.98,3.44-3.84,5.3-5.64,3.94-3.25,8.19-6.27,12.99-8.51,1.6-.79,3.23-1.53,4.89-2.22.03-1.7.1-3.32.21-4.87-2.4.92-4.77,1.93-7.09,3.05Zm14.03,31.98c-1.87,1.28-3.67,2.66-5.43,4.08-4.06,3.83-7.9,8.01-10.55,12.88l-.29.52c1.23,1.05,2.54,2,3.94,2.84.17-.31.35-.63.53-.94,2.35-4.46,5.78-8.24,9.44-11.8,2.32-1.9,4.74-3.72,7.31-5.35-1.93-.42-3.58-1.16-4.95-2.23Zm20,8.53c-5.07,2.33-9.74,5.54-14.09,9.06-2.34,2.21-4.61,4.53-6.61,7.04,1.78.34,3.65.58,5.6.71h.01c1.29-1.47,2.68-2.87,4.09-4.24,3.94-3.27,8.2-6.28,12.99-8.52,6.64-3.27,13.8-5.68,21.18-7.63.71-1.56,1.36-3.19,1.95-4.89-8.61,2.04-17.11,4.62-25.12,8.47Zm29.01-40.88c-2.82.54-5.65,1.07-8.47,1.61-3.8.72-7.6,1.46-11.37,2.26-1.36.29-2.72.59-4.07.9,0,1.52-.02,2.97-.06,4.36,1.66-.4,3.33-.79,5.01-1.16,3.34-.75,6.72-1.45,10.12-2.14,2.96-.6,5.94-1.18,8.93-1.78-.01-1.37-.04-2.72-.09-4.05Zm-7.12-30.23c-3.46.79-6.94,1.52-10.43,2.21-4.36.87-8.74,1.69-13.11,2.52-1.44.28-2.88.55-4.32.83,2.17.6,3.97,1.64,5.38,3.11,7.9-1.59,15.9-3.14,23.85-5.06.11-.03.22-.05.33-.08-.53-1.22-1.09-2.4-1.7-3.53Zm5.28,14.84c-6.92,1.44-13.91,2.7-20.85,4.05-.82.16-1.64.31-2.46.48.24,1.28.45,2.64.62,4.08,5.39-1.13,10.86-2.18,16.34-3.3,2.35-.48,4.71-.97,7.06-1.49-.21-1.31-.45-2.58-.71-3.82Zm-6.65,32.77c-5.62,1.19-11.23,2.52-16.73,4.19h0c-.38,1.88-.93,3.58-1.65,5.12,6.21-2.12,12.7-3.77,19.25-5.22,2.21-.49,4.43-.97,6.66-1.43.21-1.39.38-2.82.53-4.28-2.7.52-5.39,1.05-8.06,1.62Zm-46.56,3.38c-.26-1.48-.48-3.09-.65-4.84-3.56,2.02-6.91,4.43-10.08,7-3.67,3.44-7.12,7.17-9.71,11.43.74,1.91,1.56,3.73,2.47,5.44.28-.53.57-1.05.87-1.57,2.34-4.46,5.78-8.25,9.44-11.79,2.42-2,4.96-3.91,7.67-5.6h0s-.01-.05-.01-.07ZM5.8,35.03c-1.61.74-3.18,1.56-4.72,2.46-.29,1.89-.52,3.85-.69,5.87,2.33-1.61,4.79-3.06,7.4-4.29,5.93-2.93,12.27-5.16,18.83-7,.16-.5.34-.97.52-1.43.59-1.45,1.35-2.7,2.29-3.74-8.1,2-16.09,4.5-23.63,8.13Z" style="fill:#8bb675;"/><path d="m76.3,80.58c-.59,1.7-1.24,3.33-1.95,4.89-7.38,1.95-14.54,4.36-21.18,7.63-4.79,2.24-9.05,5.25-12.99,8.52-1.41,1.37-2.8,2.77-4.09,4.24h-.01c-1.95-.13-3.82-.37-5.6-.71,2-2.51,4.27-4.83,6.61-7.04,4.35-3.52,9.02-6.73,14.09-9.06,8.01-3.85,16.51-6.43,25.12-8.47Z" style="fill:#72a552;"/><path d="m31.18,80.52c1.37,1.07,3.02,1.81,4.95,2.23-2.57,1.63-4.99,3.45-7.31,5.35-3.66,3.56-7.09,7.34-9.44,11.8-.18.31-.36.63-.53.94-1.4-.84-2.71-1.79-3.94-2.84l.29-.52c2.65-4.87,6.49-9.05,10.55-12.88,1.76-1.42,3.56-2.8,5.43-4.08Z" style="fill:#72a552;"/><path d="m79.76,63.93c-.15,1.46-.32,2.89-.53,4.28-2.23.46-4.45.94-6.66,1.43-6.55,1.45-13.04,3.1-19.25,5.22.72-1.54,1.27-3.24,1.65-5.11h0c5.5-1.68,11.11-3.01,16.73-4.2,2.67-.57,5.36-1.1,8.06-1.62Z" style="fill:#72a552;"/><path d="m25.14,68.93s.01.04.01.06h0c-2.71,1.7-5.25,3.61-7.67,5.61-3.66,3.54-7.1,7.33-9.44,11.79-.3.52-.59,1.04-.87,1.57-.91-1.71-1.73-3.53-2.47-5.44,2.59-4.26,6.04-7.99,9.71-11.43,3.17-2.57,6.52-4.98,10.08-7,.17,1.75.39,3.36.65,4.84Z" style="fill:#72a552;"/><path d="m80.28,52.22c-2.99.6-5.97,1.18-8.93,1.78-3.4.69-6.78,1.39-10.12,2.14-1.68.37-3.35.76-5.01,1.16.04-1.39.06-2.84.06-4.36,1.35-.31,2.71-.61,4.07-.9,3.77-.8,7.57-1.54,11.37-2.26,2.82-.54,5.65-1.07,8.47-1.61.05,1.33.08,2.68.09,4.05Z" style="fill:#72a552;"/><path d="m17.15,48.54c2.32-1.12,4.69-2.13,7.09-3.05-.11,1.55-.18,3.17-.21,4.87-1.66.69-3.29,1.43-4.89,2.22-4.8,2.24-9.05,5.26-12.99,8.51-1.86,1.8-3.67,3.66-5.3,5.64-.27-2.04-.48-4.16-.62-6.36H.23c.93-.96,1.88-1.88,2.84-2.79,4.32-3.52,9-6.72,14.08-9.04Z" style="fill:#72a552;"/><path d="m79.06,36.6c-2.35.52-4.71,1.01-7.06,1.49-5.48,1.12-10.95,2.17-16.34,3.3-.17-1.44-.38-2.8-.62-4.08.82-.17,1.64-.32,2.46-.48,6.94-1.35,13.93-2.61,20.85-4.05.26,1.24.5,2.51.71,3.82Z" style="fill:#72a552;"/><path d="m5.8,35.03c7.54-3.63,15.53-6.13,23.63-8.13-.94,1.04-1.7,2.29-2.29,3.74-.18.46-.36.93-.52,1.43-6.56,1.84-12.9,4.07-18.83,7-2.61,1.23-5.07,2.68-7.4,4.29.17-2.02.4-3.98.69-5.87,1.54-.9,3.11-1.72,4.72-2.46Z" style="fill:#72a552;"/><path d="m74.77,21.47c-.11.03-.22.05-.33.08-7.95,1.92-15.95,3.47-23.85,5.06-1.41-1.47-3.21-2.51-5.38-3.11,1.44-.28,2.88-.55,4.32-.83,4.37-.83,8.75-1.65,13.11-2.52,3.49-.69,6.97-1.42,10.43-2.21.61,1.13,1.17,2.31,1.7,3.53Z" style="fill:#72a552;"/><path d="m64.89,7.61c-12.6,3.14-25.37,5.24-37.68,8-5.42,1.2-14.55,3.16-21.33,5.05.86-1.9,1.82-3.69,2.88-5.38,5.27-1.28,13.56-2.9,17.56-3.75,11.35-2.42,22.94-4.29,34.3-6.85,1.52.85,2.95,1.83,4.27,2.93Z" style="fill:#72a552;"/></g></svg>