<?xml version="1.0" encoding="UTF-8"?><svg id="Calque_2" xmlns="http://www.w3.org/2000/svg" xmlns:xlink="http://www.w3.org/1999/xlink" viewBox="0 0 74.42 105.99"><defs><clipPath id="clippath"><path d="m38.76,83.72c4.23,0,7.12-2,8.67-5.99,1.55-3.99,2.33-10.41,2.33-19.24-1.88,2.73-4.51,4.89-7.89,6.48-3.38,1.6-7.19,2.4-11.42,2.4-9.02,0-16.35-2.82-21.99-8.46S0,45.15,0,34.53c0-6.95,1.46-13.04,4.37-18.25,2.91-5.21,7.07-9.23,12.47-12.05C22.25,1.41,28.56,0,35.8,0c14.38,0,24.41,4.35,30.09,13.04,5.68,8.69,8.53,21.31,8.53,37.84,0,18.51-2.75,32.33-8.25,41.44-5.5,9.12-14.92,13.67-28.26,13.67-7.24,0-13.46-1.48-18.68-4.44s-9.21-6.86-11.98-11.7c-2.77-4.84-4.35-10.08-4.72-15.71h25.79c1.13,6.39,4.6,9.58,10.43,9.58Zm6.06-40.66c1.88-1.92,2.82-4.53,2.82-7.82,0-3.76-.96-6.58-2.89-8.46-1.93-1.88-4.58-2.82-7.96-2.82s-6.04.96-7.96,2.89-2.89,4.68-2.89,8.25c0,3.29.96,5.92,2.89,7.89,1.92,1.97,4.67,2.96,8.25,2.96,3.29,0,5.87-.96,7.75-2.89Z" style="fill:none;"/></clipPath></defs><g id="accueil_desktop"><path d="m38.76,83.72c4.23,0,7.12-2,8.67-5.99,1.55-3.99,2.33-10.41,2.33-19.24-1.88,2.73-4.51,4.89-7.89,6.48-3.38,1.6-7.19,2.4-11.42,2.4-9.02,0-16.35-2.82-21.99-8.46S0,45.15,0,34.53c0-6.95,1.46-13.04,4.37-18.25,2.91-5.21,7.07-9.23,12.47-12.05C22.25,1.41,28.56,0,35.8,0c14.38,0,24.41,4.35,30.09,13.04,5.68,8.69,8.53,21.31,8.53,37.84,0,18.51-2.75,32.33-8.25,41.44-5.5,9.12-14.92,13.67-28.26,13.67-7.24,0-13.46-1.48-18.68-4.44s-9.21-6.86-11.98-11.7c-2.77-4.84-4.35-10.08-4.72-15.71h25.79c1.13,6.39,4.6,9.58,10.43,9.58Zm6.06-40.66c1.88-1.92,2.82-4.53,2.82-7.82,0-3.76-.96-6.58-2.89-8.46-1.93-1.88-4.58-2.82-7.96-2.82s-6.04.96-7.96,2.89-2.89,4.68-2.89,8.25c0,3.29.96,5.92,2.89,7.89,1.92,1.97,4.67,2.96,8.25,2.96,3.29,0,5.87-.96,7.75-2.89Z" style="fill:#8bb675;"/><g style="clip-path:url(#clippath);"><path d="m-785.64,191.07s1.21-4.86,3.92-13.47c2.71-8.68,7.03-21.24,13.5-36.84,6.49-15.6,15.18-34.25,27.23-54.52,12.08-20.19,27.47-42.24,48.33-62.72,20.58-20.58,47.48-39.19,79.64-49.43,16-5.2,33.24-8.07,50.84-8.27,17.28-.36,34.16-1.62,49.73-8.92,7.87-3.3,14.76-8.56,21.28-14.2,6.07-6.19,11.77-12.93,16.28-20.7,9.28-15.27,15.71-32.65,21.29-50.44,11.25-35.47,19.36-73.58,38.94-107.39,9.79-16.75,23.25-31.7,39.67-42.16,16.4-10.58,35.24-16.41,54.03-19.1,18.91-2.97,37.73-1.68,55.93-2.73,18.22-.83,36.33-2.71,53.41-7.3,17.05-4.53,33.04-12.14,45.78-23.33,12.58-11.37,21.99-25.45,29.58-39.86,15.09-28.93,26.75-57.82,40.34-83.03,26.34-51.02,56.32-88.69,78.13-113.86,11.09-12.5,19.99-22.13,26.32-28.43,6.25-6.39,9.57-9.81,9.57-9.81,0,0-3.28,3.44-9.47,9.89-6.27,6.37-15.09,16.08-26.04,28.67-21.55,25.39-51.08,63.26-76.86,114.39-13.31,25.29-24.62,54.16-39.55,83.49-7.51,14.61-16.95,29.09-29.86,40.99-13.05,11.71-29.57,19.73-46.96,24.54-17.46,4.86-35.73,6.92-54.22,7.97-18.49,1.21-37.16.12-55.4,3.2-18.25,2.79-36.28,8.62-51.78,18.84-15.53,10.14-28.18,24.4-37.47,40.62-18.59,32.81-26.35,70.53-37.32,106.5-5.49,18.05-11.87,35.97-21.55,52.3-4.67,8.23-10.75,15.64-17.34,22.44-7.06,6.31-14.68,12.18-23.3,15.9l-6.37,2.91-6.65,2.04c-4.36,1.54-8.92,2.43-13.51,3.1-4.62.95-9.05,1.38-13.34,1.46l-13.08.69c-16.8.36-33.14,3.26-48.25,8.33-30.37,10.01-55.77,27.9-75.35,47.85-19.83,19.83-34.55,41.31-46.09,61.06-11.52,19.81-19.82,38.1-26,53.35-6.16,15.27-10.26,27.58-12.8,35.99-2.56,8.48-3.61,12.89-3.61,12.89l-11.59-2.89Z" style="fill:#72a552;"/><path d="m-764.51,212.21s1.21-4.88,3.92-13.47c2.71-8.68,7.03-21.26,13.5-36.86,6.49-15.58,15.18-34.25,27.23-54.52,12.09-20.19,27.49-42.22,48.34-62.72,20.58-20.56,47.48-39.19,79.63-49.42,16-5.18,33.25-8.07,50.85-8.27,17.27-.36,34.16-1.6,49.72-8.92,7.88-3.28,14.77-8.54,21.28-14.2,6.08-6.17,11.78-12.93,16.28-20.68,9.28-15.3,15.72-32.67,21.3-50.44,11.24-35.49,19.36-73.6,38.94-107.41,9.78-16.75,23.25-31.7,39.67-42.16,16.4-10.58,35.24-16.41,54.02-19.1,18.91-2.97,37.74-1.66,55.94-2.71,18.21-.85,36.32-2.73,53.4-7.3,17.06-4.55,33.04-12.14,45.78-23.35,12.58-11.37,22.01-25.43,29.58-39.84,15.09-28.95,26.75-57.84,40.34-83.05,26.34-51.02,56.33-88.69,78.13-113.86,11.09-12.48,19.99-22.11,26.34-28.43,6.23-6.39,9.55-9.81,9.55-9.81,0,0-3.28,3.46-9.47,9.91-6.27,6.37-15.09,16.08-26.04,28.67-21.55,25.37-51.08,63.26-76.84,114.37-13.33,25.29-24.64,54.16-39.55,83.49-7.53,14.61-16.98,29.09-29.86,40.99-13.07,11.71-29.58,19.73-46.97,24.54-17.46,4.88-35.73,6.92-54.23,7.97-18.48,1.21-37.14.12-55.39,3.2-18.25,2.81-36.28,8.64-51.78,18.84-15.54,10.14-28.18,24.42-37.47,40.65-18.59,32.79-26.35,70.51-37.33,106.5-5.48,18.03-11.87,35.97-21.54,52.28-4.67,8.23-10.76,15.64-17.34,22.46-7.07,6.29-14.68,12.16-23.3,15.88l-6.37,2.93-6.66,2.02c-4.36,1.56-8.91,2.43-13.5,3.1-4.61.95-9.05,1.38-13.35,1.48l-13.07.69c-16.81.34-33.14,3.24-48.25,8.31-30.37,10.01-55.77,27.9-75.35,47.85-19.83,19.85-34.55,41.33-46.1,61.06-11.52,19.81-19.81,38.09-25.99,53.35-6.16,15.3-10.26,27.59-12.8,36.01-2.56,8.48-3.61,12.89-3.61,12.89l-11.59-2.89Z" style="fill:#72a552;"/><path d="m-743.37,233.33s1.21-4.86,3.92-13.47c2.71-8.68,7.03-21.24,13.5-36.86,6.49-15.58,15.17-34.23,27.23-54.5,12.09-20.19,27.49-42.24,48.34-62.74,20.58-20.55,47.48-39.17,79.63-49.4,16-5.2,33.24-8.09,50.85-8.27,17.27-.36,34.15-1.62,49.72-8.92,7.87-3.3,14.76-8.54,21.28-14.2,6.07-6.19,11.78-12.95,16.28-20.7,9.29-15.27,15.71-32.65,21.3-50.42,11.24-35.49,19.36-73.62,38.94-107.41,9.78-16.75,23.25-31.7,39.67-42.18,16.4-10.56,35.24-16.41,54.02-19.1,18.91-2.97,37.74-1.66,55.94-2.71,18.21-.85,36.33-2.73,53.41-7.3,17.03-4.55,33.04-12.14,45.76-23.35,12.59-11.35,22.01-25.43,29.58-39.84,15.09-28.93,26.75-57.84,40.36-83.05,26.34-51.02,56.33-88.67,78.13-113.84,11.07-12.5,19.97-22.13,26.32-28.45,6.23-6.39,9.57-9.79,9.57-9.79,0,0-3.3,3.44-9.49,9.89-6.27,6.37-15.09,16.08-26.02,28.67-21.55,25.37-51.1,63.26-76.84,114.39-13.35,25.29-24.64,54.14-39.57,83.47-7.51,14.61-16.95,29.09-29.86,40.99-13.07,11.71-29.58,19.75-46.98,24.54-17.45,4.88-35.72,6.92-54.21,7.97-18.48,1.23-37.14.14-55.39,3.22-18.25,2.79-36.28,8.62-51.78,18.84-15.54,10.14-28.18,24.4-37.47,40.62-18.59,32.79-26.35,70.51-37.33,106.5-5.48,18.05-11.87,35.97-21.55,52.28-4.66,8.25-10.75,15.66-17.34,22.46-7.06,6.29-14.68,12.16-23.29,15.9l-6.37,2.91-6.66,2.02c-4.35,1.56-8.91,2.43-13.51,3.1-4.61.95-9.04,1.38-13.33,1.48l-13.08.69c-16.81.34-33.14,3.24-48.25,8.32-30.38,10.01-55.78,27.92-75.35,47.85-19.83,19.85-34.56,41.35-46.1,61.08-11.52,19.81-19.82,38.1-26,53.35-6.16,15.27-10.25,27.57-12.8,35.99-2.56,8.48-3.6,12.89-3.6,12.89l-11.59-2.89Z" style="fill:#72a552;"/><path d="m-722.25,254.46s1.21-4.85,3.91-13.47c2.71-8.66,7.03-21.24,13.51-36.84,6.49-15.6,15.17-34.25,27.23-54.52,12.08-20.19,27.47-42.24,48.34-62.72,20.57-20.55,47.48-39.19,79.63-49.42,16-5.2,33.24-8.07,50.85-8.27,17.27-.36,34.15-1.62,49.72-8.92,7.87-3.3,14.76-8.54,21.28-14.2,6.07-6.19,11.78-12.93,16.28-20.68,9.28-15.29,15.71-32.67,21.29-50.44,11.25-35.49,19.36-73.6,38.95-107.41,9.78-16.75,23.24-31.68,39.66-42.16,16.4-10.58,35.24-16.43,54.03-19.1,18.91-2.99,37.73-1.68,55.94-2.71,18.21-.85,36.33-2.73,53.4-7.3,17.04-4.55,33.04-12.14,45.76-23.35,12.6-11.37,22.01-25.43,29.6-39.84,15.09-28.95,26.72-57.84,40.36-83.07,26.34-51.02,56.3-88.67,78.11-113.84,11.07-12.48,19.97-22.11,26.32-28.43,6.25-6.39,9.59-9.81,9.59-9.81,0,0-3.32,3.44-9.51,9.89-6.27,6.37-15.07,16.08-26.02,28.69-21.53,25.35-51.1,63.24-76.84,114.37-13.35,25.29-24.64,54.16-39.57,83.49-7.51,14.59-16.95,29.09-29.86,40.97-13.07,11.73-29.58,19.75-46.96,24.56-17.46,4.86-35.73,6.92-54.22,7.97-18.49,1.21-37.16.12-55.4,3.2-18.25,2.81-36.29,8.62-51.78,18.84-15.53,10.13-28.18,24.4-37.47,40.64-18.59,32.77-26.34,70.49-37.32,106.48-5.48,18.04-11.87,35.99-21.55,52.3-4.67,8.23-10.75,15.64-17.34,22.44-7.06,6.31-14.68,12.16-23.3,15.9l-6.37,2.93-6.65,2c-4.36,1.56-8.92,2.43-13.51,3.12-4.62.95-9.05,1.38-13.34,1.48l-13.08.67c-16.8.34-33.14,3.24-48.25,8.34-30.37,10.01-55.77,27.9-75.34,47.85-19.83,19.85-34.55,41.33-46.1,61.06-11.52,19.81-19.82,38.1-26,53.35-6.16,15.3-10.26,27.58-12.79,36.01-2.56,8.46-3.61,12.87-3.61,12.87l-11.59-2.89Z" style="fill:#72a552;"/><path d="m-701.12,275.58s1.21-4.86,3.92-13.47c2.71-8.66,7.03-21.24,13.49-36.84,6.49-15.6,15.18-34.25,27.23-54.52,12.09-20.19,27.48-42.24,48.34-62.72,20.59-20.56,47.48-39.17,79.63-49.43,16-5.2,33.25-8.07,50.85-8.25,17.27-.36,34.16-1.64,49.72-8.94,7.88-3.28,14.77-8.54,21.29-14.2,6.07-6.19,11.77-12.91,16.27-20.68,9.29-15.3,15.72-32.67,21.3-50.44,11.25-35.47,19.36-73.6,38.94-107.41,9.79-16.75,23.25-31.68,39.67-42.16,16.4-10.56,35.24-16.41,54.02-19.1,18.91-2.97,37.74-1.66,55.94-2.71,18.2-.85,36.33-2.71,53.4-7.3,17.06-4.55,33.04-12.14,45.78-23.35,12.58-11.37,21.99-25.43,29.6-39.84,15.09-28.95,26.72-57.84,40.34-83.05,26.34-51.02,56.32-88.69,78.13-113.84,11.07-12.5,19.97-22.13,26.3-28.45,6.25-6.39,9.59-9.79,9.59-9.79,0,0-3.3,3.44-9.49,9.89-6.27,6.35-15.07,16.08-26.04,28.67-21.52,25.37-51.08,63.26-76.84,114.37-13.35,25.29-24.64,54.16-39.57,83.52-7.49,14.59-16.95,29.07-29.86,40.97-13.03,11.71-29.56,19.73-46.94,24.54-17.48,4.86-35.73,6.94-54.24,7.97-18.48,1.21-37.15.12-55.39,3.22-18.25,2.79-36.29,8.6-51.78,18.84-15.54,10.12-28.18,24.38-37.47,40.62-18.59,32.79-26.35,70.51-37.33,106.5-5.48,18.03-11.87,35.97-21.54,52.28-4.67,8.23-10.76,15.66-17.34,22.44-7.07,6.31-14.68,12.18-23.3,15.9l-6.37,2.93-6.66,2.02c-4.36,1.54-8.91,2.43-13.5,3.1-4.61.95-9.05,1.38-13.35,1.48l-13.07.69c-16.81.34-33.14,3.24-48.25,8.32-30.37,10.01-55.77,27.9-75.35,47.85-19.83,19.85-34.55,41.33-46.09,61.08-11.53,19.81-19.82,38.08-26,53.33-6.16,15.3-10.26,27.6-12.8,36.01-2.56,8.48-3.61,12.89-3.61,12.89l-11.59-2.91Z" style="fill:#72a552;"/><path d="m-679.99,296.72s1.21-4.88,3.92-13.47c2.71-8.68,7.03-21.24,13.5-36.86,6.49-15.58,15.17-34.23,27.23-54.5,12.09-20.21,27.48-42.24,48.34-62.72,20.58-20.58,47.48-39.19,79.63-49.45,16-5.18,33.24-8.05,50.85-8.26,17.27-.36,34.15-1.62,49.72-8.92,7.88-3.3,14.77-8.56,21.28-14.22,6.07-6.17,11.78-12.91,16.28-20.68,9.29-15.3,15.71-32.65,21.3-50.44,11.24-35.47,19.36-73.6,38.94-107.41,9.78-16.75,23.25-31.68,39.67-42.16,16.4-10.56,35.24-16.41,54.02-19.08,18.91-2.97,37.75-1.68,55.94-2.73,18.21-.83,36.31-2.71,53.41-7.3,17.04-4.53,33.04-12.14,45.76-23.33,12.6-11.37,21.99-25.45,29.6-39.86,15.09-28.93,26.75-57.84,40.34-83.05,26.34-51,56.32-88.67,78.13-113.84,11.09-12.5,19.99-22.13,26.32-28.43,6.25-6.41,9.57-9.81,9.57-9.81,0,0-3.3,3.44-9.49,9.89-6.25,6.37-15.07,16.08-26.04,28.67-21.53,25.37-51.09,63.26-76.84,114.39-13.33,25.29-24.62,54.14-39.57,83.49-7.49,14.59-16.95,29.07-29.84,40.97-13.05,11.73-29.58,19.75-46.96,24.56-17.48,4.86-35.73,6.92-54.22,7.97-18.49,1.21-37.16.1-55.4,3.19-18.25,2.79-36.29,8.62-51.78,18.84-15.54,10.14-28.18,24.4-37.47,40.63-18.59,32.79-26.35,70.51-37.33,106.5-5.48,18.03-11.87,35.97-21.55,52.3-4.66,8.23-10.74,15.64-17.34,22.44-7.06,6.31-14.67,12.16-23.29,15.88l-6.37,2.93-6.65,2.04c-4.36,1.54-8.92,2.43-13.51,3.08-4.62.97-9.05,1.38-13.34,1.48l-13.08.69c-16.81.34-33.14,3.26-48.25,8.31-30.38,10.04-55.77,27.9-75.35,47.85-19.83,19.85-34.56,41.33-46.1,61.08-11.52,19.81-19.82,38.07-26,53.35-6.16,15.27-10.25,27.57-12.8,35.99-2.56,8.48-3.6,12.89-3.6,12.89l-11.59-2.89Z" style="fill:#72a552;"/><path d="m-658.86,317.84s1.2-4.86,3.92-13.47c2.7-8.66,7.03-21.24,13.49-36.84,6.49-15.6,15.17-34.25,27.23-54.52,12.08-20.19,27.47-42.24,48.34-62.72,20.57-20.57,47.48-39.19,79.63-49.42,16-5.2,33.24-8.07,50.85-8.27,17.27-.36,34.15-1.6,49.72-8.92,7.87-3.28,14.76-8.54,21.28-14.2,6.07-6.19,11.78-12.93,16.28-20.7,9.28-15.27,15.71-32.65,21.29-50.44,11.25-35.47,19.36-73.58,38.95-107.39,9.78-16.75,23.24-31.7,39.66-42.16,16.4-10.58,35.25-16.41,54.03-19.1,18.91-2.97,37.74-1.68,55.95-2.73,18.21-.83,36.3-2.71,53.39-7.3,17.05-4.53,33.04-12.14,45.78-23.33,12.58-11.37,21.99-25.45,29.58-39.84,15.09-28.95,26.75-57.84,40.34-83.05,26.34-51.02,56.33-88.69,78.13-113.86,11.09-12.48,19.99-22.13,26.32-28.43,6.25-6.39,9.57-9.81,9.57-9.81,0,0-3.28,3.44-9.47,9.89-6.27,6.37-15.09,16.08-26.04,28.67-21.55,25.39-51.09,63.26-76.86,114.39-13.31,25.29-24.62,54.16-39.55,83.49-7.51,14.61-16.95,29.09-29.84,40.99-13.07,11.72-29.58,19.73-46.98,24.54-17.44,4.86-35.73,6.92-54.22,7.97-18.49,1.21-37.14.12-55.4,3.2-18.25,2.79-36.29,8.62-51.78,18.84-15.53,10.13-28.17,24.42-37.46,40.62-18.6,32.82-26.35,70.53-37.33,106.5-5.48,18.05-11.87,35.99-21.55,52.3-4.67,8.23-10.75,15.64-17.34,22.44-7.06,6.31-14.68,12.18-23.29,15.9l-6.38,2.91-6.65,2.04c-4.36,1.56-8.91,2.43-13.51,3.1-4.61.95-9.05,1.38-13.34,1.48l-13.08.67c-16.8.36-33.14,3.26-48.25,8.34-30.37,10.01-55.76,27.9-75.34,47.85-19.83,19.83-34.55,41.31-46.1,61.06-11.52,19.81-19.82,38.1-26,53.35-6.16,15.27-10.26,27.57-12.79,35.99-2.57,8.48-3.61,12.89-3.61,12.89l-11.59-2.89Z" style="fill:#72a552;"/><path d="m-637.73,338.98s1.21-4.86,3.91-13.47c2.71-8.68,7.03-21.24,13.49-36.86,6.49-15.58,15.18-34.23,27.23-54.5,12.09-20.21,27.48-42.24,48.34-62.74,20.59-20.56,47.48-39.19,79.63-49.43,16-5.18,33.25-8.07,50.85-8.25,17.27-.36,34.16-1.62,49.72-8.92,7.88-3.3,14.77-8.56,21.29-14.2,6.07-6.19,11.78-12.95,16.27-20.7,9.29-15.29,15.72-32.67,21.31-50.44,11.24-35.49,19.35-73.6,38.93-107.41,9.79-16.75,23.25-31.7,39.67-42.16,16.4-10.56,35.24-16.41,54.01-19.1,18.92-2.97,37.75-1.66,55.96-2.71,18.21-.85,36.32-2.73,53.41-7.3,17.03-4.55,33.02-12.14,45.76-23.35,12.58-11.37,22.01-25.43,29.58-39.83,15.09-28.95,26.75-57.84,40.36-83.05,26.34-51.02,56.3-88.69,78.11-113.86,11.09-12.48,19.99-22.11,26.34-28.43,6.23-6.39,9.55-9.81,9.55-9.81,0,0-3.28,3.46-9.47,9.91-6.27,6.37-15.09,16.08-26.02,28.67-21.57,25.37-51.1,63.26-76.86,114.37-13.33,25.31-24.64,54.16-39.55,83.5-7.53,14.61-16.95,29.09-29.86,40.99-13.07,11.71-29.58,19.72-46.98,24.54-17.44,4.88-35.73,6.92-54.22,7.97-18.49,1.23-37.15.12-55.4,3.22-18.25,2.79-36.28,8.62-51.78,18.82-15.54,10.16-28.18,24.42-37.47,40.64-18.59,32.79-26.35,70.51-37.33,106.5-5.48,18.03-11.87,35.97-21.54,52.28-4.67,8.25-10.76,15.64-17.34,22.46-7.07,6.29-14.68,12.16-23.3,15.88l-6.37,2.93-6.66,2.02c-4.35,1.56-8.9,2.43-13.5,3.1-4.61.95-9.05,1.38-13.35,1.48l-13.07.69c-16.8.34-33.14,3.24-48.25,8.32-30.37,10.01-55.77,27.9-75.35,47.85-19.83,19.85-34.55,41.33-46.09,61.06-11.53,19.81-19.82,38.1-26,53.35-6.16,15.3-10.26,27.59-12.8,36.01-2.56,8.48-3.61,12.89-3.61,12.89l-11.59-2.89Z" style="fill:#72a552;"/><path d="m-616.6,360.1s1.21-4.85,3.91-13.47c2.71-8.68,7.03-21.24,13.49-36.84,6.49-15.6,15.17-34.25,27.23-54.52,12.09-20.19,27.48-42.24,48.34-62.74,20.58-20.56,47.48-39.17,79.63-49.41,16-5.2,33.24-8.09,50.85-8.27,17.27-.36,34.15-1.62,49.72-8.92,7.88-3.3,14.77-8.54,21.28-14.2,6.07-6.19,11.79-12.93,16.28-20.7,9.29-15.27,15.72-32.65,21.3-50.42,11.24-35.49,19.36-73.62,38.94-107.41,9.78-16.75,23.25-31.7,39.67-42.16,16.4-10.58,35.24-16.43,54.02-19.1,18.92-3,37.73-1.68,55.94-2.71,18.21-.87,36.34-2.73,53.41-7.32,17.04-4.55,33.04-12.14,45.76-23.35,12.58-11.35,22.01-25.43,29.58-39.83,15.11-28.93,26.75-57.82,40.36-83.05,26.36-51.02,56.32-88.67,78.13-113.84,11.07-12.5,19.97-22.13,26.32-28.43,6.23-6.41,9.57-9.81,9.57-9.81,0,0-3.3,3.44-9.49,9.89-6.27,6.37-15.07,16.08-26.02,28.67-21.55,25.37-51.1,63.26-76.84,114.39-13.35,25.29-24.64,54.16-39.57,83.47-7.51,14.61-16.95,29.09-29.86,40.99-13.07,11.73-29.58,19.75-46.96,24.54-17.46,4.87-35.75,6.94-54.24,7.97-18.47,1.23-37.15.14-55.39,3.22-18.25,2.81-36.28,8.62-51.77,18.84-15.54,10.14-28.18,24.4-37.47,40.62-18.59,32.79-26.35,70.51-37.33,106.5-5.47,18.05-11.87,35.97-21.54,52.3-4.67,8.23-10.75,15.64-17.35,22.44-7.06,6.29-14.67,12.16-23.29,15.9l-6.37,2.91-6.65,2.02c-4.36,1.56-8.92,2.43-13.51,3.1-4.62.95-9.05,1.39-13.34,1.48l-13.08.69c-16.81.34-33.14,3.24-48.25,8.32-30.38,10.04-55.77,27.92-75.35,47.87-19.83,19.83-34.55,41.33-46.1,61.06-11.52,19.81-19.81,38.1-26,53.35-6.16,15.27-10.25,27.58-12.8,35.99-2.56,8.48-3.6,12.89-3.6,12.89l-11.59-2.89Z" style="fill:#72a552;"/><path d="m-595.47,381.23s1.21-4.86,3.91-13.47c2.7-8.66,7.03-21.24,13.49-36.84,6.49-15.6,15.17-34.25,27.23-54.52,12.08-20.19,27.48-42.24,48.34-62.72,20.58-20.56,47.48-39.19,79.63-49.43,16-5.2,33.24-8.07,50.85-8.27,17.27-.34,34.15-1.62,49.72-8.92,7.87-3.3,14.76-8.54,21.28-14.2,6.07-6.19,11.78-12.93,16.28-20.68,9.29-15.3,15.71-32.67,21.29-50.44,11.25-35.49,19.36-73.6,38.94-107.41,9.78-16.75,23.24-31.68,39.66-42.16,16.41-10.58,35.26-16.41,54.04-19.1,18.9-2.97,37.73-1.66,55.92-2.71,18.21-.85,36.34-2.73,53.41-7.3,17.04-4.55,33.04-12.14,45.76-23.35,12.6-11.37,22.01-25.43,29.6-39.84,15.09-28.95,26.75-57.84,40.36-83.05,26.34-51.02,56.3-88.69,78.11-113.86,11.07-12.48,19.99-22.11,26.32-28.43,6.25-6.39,9.59-9.81,9.59-9.81,0,0-3.32,3.46-9.51,9.89-6.27,6.37-15.05,16.1-26.02,28.69-21.52,25.35-51.1,63.26-76.84,114.37-13.35,25.29-24.64,54.16-39.57,83.49-7.51,14.59-16.95,29.09-29.86,40.99-13.05,11.71-29.58,19.73-46.96,24.54-17.46,4.86-35.73,6.92-54.22,7.97-18.49,1.21-37.17.12-55.41,3.19-18.23,2.81-36.28,8.62-51.76,18.84-15.54,10.14-28.18,24.4-37.47,40.64-18.59,32.78-26.35,70.51-37.33,106.48-5.48,18.05-11.87,35.99-21.55,52.3-4.67,8.23-10.75,15.64-17.34,22.44-7.06,6.31-14.68,12.18-23.29,15.9l-6.38,2.93-6.65,2c-4.36,1.56-8.91,2.43-13.51,3.12-4.61.95-9.04,1.38-13.34,1.48l-13.08.69c-16.8.34-33.14,3.22-48.25,8.31-30.37,10.01-55.76,27.9-75.34,47.85-19.83,19.85-34.55,41.33-46.1,61.06-11.52,19.81-19.82,38.09-26,53.35-6.16,15.29-10.26,27.59-12.79,36.01-2.57,8.48-3.61,12.89-3.61,12.89l-11.59-2.91Z" style="fill:#72a552;"/><path d="m-574.35,402.37s1.21-4.88,3.91-13.5c2.71-8.66,7.03-21.24,13.49-36.84,6.49-15.6,15.18-34.25,27.24-54.52,12.08-20.19,27.47-42.24,48.33-62.72,20.59-20.56,47.48-39.17,79.63-49.42,16.01-5.2,33.25-8.05,50.85-8.26,17.28-.36,34.16-1.62,49.73-8.94,7.87-3.28,14.76-8.54,21.28-14.2,6.07-6.19,11.78-12.91,16.28-20.68,9.28-15.3,15.71-32.67,21.3-50.44,11.24-35.47,19.35-73.6,38.93-107.41,9.79-16.75,23.24-31.68,39.68-42.16,16.39-10.56,35.24-16.41,54.02-19.1,18.9-2.97,37.73-1.66,55.92-2.71,18.23-.85,36.34-2.71,53.41-7.3,17.05-4.55,33.06-12.14,45.78-23.33,12.58-11.39,21.99-25.45,29.6-39.86,15.09-28.95,26.73-57.84,40.34-83.05,26.34-51.02,56.32-88.69,78.13-113.84,11.07-12.5,19.99-22.13,26.3-28.45,6.25-6.39,9.59-9.79,9.59-9.79,0,0-3.3,3.44-9.49,9.89-6.27,6.37-15.07,16.08-26.04,28.67-21.53,25.37-51.09,63.26-76.84,114.39-13.33,25.27-24.64,54.14-39.57,83.49-7.49,14.59-16.95,29.07-29.86,40.97-13.03,11.72-29.56,19.75-46.94,24.54-17.48,4.86-35.73,6.94-54.22,7.97-18.49,1.21-37.16.12-55.41,3.22-18.25,2.79-36.28,8.6-51.77,18.83-15.54,10.12-28.19,24.38-37.48,40.63-18.59,32.79-26.35,70.51-37.33,106.5-5.48,18.03-11.87,35.97-21.54,52.28-4.67,8.26-10.75,15.66-17.34,22.46-7.07,6.29-14.68,12.16-23.3,15.88l-6.37,2.93-6.66,2.02c-4.35,1.56-8.9,2.43-13.5,3.1-4.61.97-9.05,1.38-13.34,1.48l-13.08.69c-16.8.34-33.14,3.24-48.25,8.32-30.37,10.01-55.77,27.9-75.35,47.85-19.82,19.85-34.55,41.33-46.09,61.08-11.52,19.81-19.82,38.08-26,53.35-6.16,15.27-10.25,27.57-12.8,35.99-2.56,8.48-3.61,12.89-3.61,12.89l-11.59-2.89Z" style="fill:#72a552;"/><path d="m-553.22,423.49s1.21-4.87,3.91-13.47c2.71-8.66,7.03-21.24,13.49-36.86,6.49-15.58,15.18-34.23,27.23-54.5,12.09-20.21,27.48-42.24,48.34-62.72,20.58-20.57,47.48-39.19,79.64-49.45,15.99-5.18,33.24-8.05,50.84-8.25,17.27-.36,34.15-1.62,49.72-8.92,7.88-3.3,14.77-8.56,21.28-14.22,6.07-6.17,11.79-12.91,16.28-20.68,9.29-15.29,15.72-32.65,21.3-50.44,11.24-35.47,19.36-73.58,38.94-107.41,9.77-16.75,23.25-31.68,39.67-42.16,16.39-10.56,35.24-16.41,54.02-19.08,18.92-2.97,37.75-1.68,55.94-2.73,18.21-.83,36.32-2.71,53.41-7.3,17.03-4.53,33.04-12.14,45.76-23.33,12.6-11.37,22.01-25.45,29.6-39.84,15.09-28.95,26.75-57.86,40.34-83.07,26.34-51,56.33-88.67,78.13-113.84,11.09-12.48,19.99-22.13,26.32-28.43,6.25-6.41,9.57-9.81,9.57-9.81,0,0-3.3,3.44-9.47,9.89-6.27,6.37-15.09,16.08-26.06,28.67-21.53,25.37-51.07,63.26-76.84,114.39-13.33,25.29-24.62,54.14-39.55,83.49-7.51,14.59-16.97,29.07-29.86,40.97-13.05,11.73-29.56,19.75-46.96,24.56-17.46,4.86-35.73,6.92-54.22,7.97-18.49,1.21-37.14.12-55.39,3.2-18.25,2.79-36.29,8.62-51.79,18.84-15.54,10.13-28.18,24.4-37.47,40.62-18.59,32.79-26.35,70.51-37.33,106.5-5.47,18.05-11.87,35.99-21.54,52.3-4.67,8.23-10.75,15.64-17.35,22.44-7.06,6.31-14.67,12.16-23.29,15.9l-6.37,2.91-6.65,2.04c-4.36,1.54-8.91,2.43-13.51,3.07-4.61.97-9.05,1.4-13.34,1.5l-13.08.67c-16.81.34-33.14,3.26-48.25,8.34-30.38,10.01-55.77,27.88-75.35,47.83-19.83,19.85-34.55,41.33-46.1,61.08-11.52,19.81-19.81,38.08-25.99,53.35-6.16,15.27-10.26,27.57-12.81,35.99-2.56,8.48-3.6,12.89-3.6,12.89l-11.59-2.89Z" style="fill:#72a552;"/><path d="m-532.09,444.61s1.21-4.86,3.91-13.46c2.7-8.68,7.03-21.24,13.49-36.86,6.49-15.6,15.17-34.25,27.23-54.52,12.08-20.19,27.48-42.24,48.34-62.72,20.58-20.56,47.48-39.19,79.63-49.43,16-5.2,33.24-8.07,50.85-8.25,17.27-.39,34.16-1.62,49.72-8.94,7.87-3.28,14.76-8.54,21.28-14.2,6.07-6.17,11.79-12.93,16.28-20.68,9.29-15.29,15.71-32.67,21.3-50.46,11.24-35.47,19.36-73.58,38.95-107.39,9.77-16.75,23.23-31.7,39.65-42.16,16.41-10.58,35.24-16.41,54.02-19.1,18.92-2.97,37.75-1.68,55.96-2.73,18.21-.83,36.31-2.71,53.39-7.28,17.05-4.55,33.04-12.16,45.78-23.35,12.58-11.37,21.99-25.43,29.58-39.83,15.09-28.95,26.75-57.84,40.34-83.05,26.34-51.02,56.32-88.69,78.13-113.86,11.09-12.48,19.99-22.11,26.32-28.43,6.25-6.39,9.57-9.81,9.57-9.81,0,0-3.28,3.44-9.47,9.89-6.27,6.37-15.09,16.08-26.04,28.69-21.55,25.37-51.08,63.24-76.84,114.37-13.33,25.29-24.64,54.16-39.57,83.5-7.51,14.61-16.95,29.09-29.84,40.99-13.07,11.71-29.58,19.72-46.98,24.54-17.44,4.85-35.73,6.92-54.22,7.97-18.49,1.21-37.15.12-55.4,3.22-18.25,2.77-36.29,8.6-51.79,18.82-15.54,10.14-28.16,24.42-37.47,40.64-18.57,32.79-26.34,70.51-37.32,106.48-5.48,18.05-11.87,35.99-21.55,52.3-4.66,8.23-10.75,15.64-17.34,22.44-7.06,6.31-14.68,12.18-23.29,15.9l-6.38,2.91-6.65,2.04c-4.35,1.56-8.91,2.43-13.51,3.1-4.61.95-9.04,1.38-13.34,1.48l-13.07.67c-16.81.36-33.14,3.26-48.26,8.34-30.37,10.01-55.76,27.9-75.34,47.85-19.83,19.85-34.55,41.33-46.1,61.06-11.52,19.81-19.82,38.1-26,53.35-6.16,15.3-10.26,27.58-12.79,35.99-2.57,8.48-3.61,12.89-3.61,12.89l-11.59-2.89Z" style="fill:#72a552;"/><path d="m-510.96,465.75s1.21-4.86,3.91-13.47c2.71-8.68,7.03-21.24,13.5-36.86,6.49-15.58,15.17-34.23,27.23-54.5,12.08-20.21,27.47-42.24,48.34-62.74,20.58-20.56,47.47-39.17,79.63-49.43,16-5.18,33.24-8.07,50.85-8.25,17.27-.36,34.15-1.62,49.72-8.92,7.88-3.3,14.76-8.56,21.28-14.2,6.07-6.19,11.78-12.95,16.28-20.7,9.28-15.3,15.71-32.67,21.31-50.44,11.23-35.47,19.34-73.6,38.93-107.41,9.79-16.73,23.23-31.7,39.65-42.16,16.41-10.56,35.24-16.41,54.04-19.08,18.92-2.99,37.73-1.68,55.94-2.73,18.21-.85,36.31-2.71,53.41-7.3,17.04-4.55,33.02-12.14,45.76-23.35,12.58-11.37,22.01-25.43,29.58-39.84,15.09-28.95,26.75-57.84,40.36-83.05,26.34-51.02,56.3-88.69,78.13-113.86,11.06-12.48,19.97-22.11,26.32-28.43,6.23-6.39,9.57-9.81,9.57-9.81,0,0-3.3,3.46-9.49,9.91-6.27,6.37-15.09,16.08-26.02,28.67-21.55,25.37-51.1,63.26-76.86,114.37-13.33,25.31-24.62,54.16-39.55,83.5-7.53,14.61-16.95,29.09-29.86,40.99-13.07,11.71-29.58,19.73-46.98,24.54-17.44,4.87-35.73,6.94-54.22,7.97-18.49,1.23-37.15.12-55.39,3.22-18.25,2.79-36.3,8.62-51.79,18.82-15.52,10.16-28.16,24.42-37.47,40.64-18.57,32.8-26.34,70.51-37.31,106.5-5.48,18.03-11.87,35.97-21.55,52.28-4.67,8.25-10.75,15.64-17.34,22.46-7.06,6.29-14.68,12.16-23.3,15.88l-6.37,2.93-6.65,2.02c-4.36,1.56-8.91,2.43-13.51,3.1-4.61.95-9.05,1.39-13.34,1.48l-13.08.69c-16.8.34-33.14,3.24-48.25,8.31-30.37,10.04-55.76,27.9-75.35,47.85-19.82,19.85-34.53,41.33-46.09,61.06-11.52,19.81-19.82,38.09-26,53.35-6.16,15.29-10.25,27.59-12.8,36.01-2.56,8.48-3.61,12.89-3.61,12.89l-11.59-2.89Z" style="fill:#72a552;"/><path d="m-489.83,486.87s1.21-4.86,3.91-13.47c2.71-8.68,7.03-21.24,13.49-36.84,6.49-15.6,15.18-34.25,27.23-54.52,12.09-20.19,27.48-42.24,48.34-62.74,20.59-20.56,47.48-39.17,79.64-49.4,15.99-5.2,33.24-8.07,50.84-8.28,17.27-.36,34.16-1.62,49.72-8.92,7.88-3.3,14.77-8.54,21.28-14.2,6.08-6.19,11.79-12.93,16.27-20.7,9.31-15.27,15.74-32.65,21.32-50.42,11.23-35.49,19.34-73.62,38.93-107.41,9.79-16.75,23.24-31.7,39.67-42.16C-62.77,7.23-43.93,1.4-25.16-1.29-6.24-4.26,12.57-2.97,30.78-4c18.21-.87,36.34-2.73,53.41-7.33,17.04-4.55,33.04-12.14,45.76-23.35,12.58-11.35,22.01-25.43,29.58-39.84,15.11-28.93,26.75-57.82,40.36-83.05,26.36-51.02,56.32-88.67,78.13-113.84,11.07-12.5,19.99-22.13,26.32-28.43,6.23-6.39,9.57-9.81,9.57-9.81,0,0-3.3,3.44-9.49,9.89-6.27,6.37-15.05,16.08-26.02,28.67-21.55,25.37-51.1,63.26-76.84,114.39-13.35,25.29-24.64,54.16-39.57,83.47-7.51,14.61-16.95,29.11-29.86,41.01-13.07,11.72-29.58,19.73-46.96,24.54C67.72-2.81,49.46-.74,30.94.29,12.47,1.52-6.2.43-24.45,3.51c-18.25,2.81-36.28,8.62-51.77,18.83-15.54,10.14-28.18,24.4-37.47,40.63-18.59,32.79-26.36,70.51-37.33,106.5-5.46,18.05-11.85,35.97-21.52,52.3-4.69,8.23-10.76,15.64-17.35,22.44-7.07,6.31-14.68,12.18-23.3,15.9l-6.37,2.91-6.65,2.02c-4.36,1.56-8.91,2.43-13.51,3.12-4.61.93-9.05,1.38-13.34,1.46l-13.08.69c-16.81.36-33.14,3.24-48.25,8.33-30.37,10.01-55.77,27.9-75.35,47.85-19.83,19.83-34.55,41.33-46.1,61.06-11.52,19.81-19.81,38.09-25.99,53.35-6.16,15.27-10.26,27.59-12.8,35.99-2.56,8.48-3.6,12.89-3.6,12.89l-11.6-2.89Z" style="fill:#72a552;"/><path d="m-468.7,508.02s1.21-4.88,3.91-13.5c2.71-8.66,7.03-21.24,13.49-36.84,6.49-15.6,15.17-34.25,27.23-54.52,12.09-20.19,27.48-42.24,48.34-62.72,20.58-20.56,47.48-39.19,79.63-49.42,16-5.2,33.24-8.07,50.85-8.27,17.27-.34,34.16-1.62,49.72-8.92,7.87-3.3,14.77-8.54,21.27-14.2,6.07-6.19,11.8-12.93,16.29-20.68,9.29-15.3,15.72-32.67,21.3-50.44,11.25-35.48,19.36-73.6,38.93-107.41,9.79-16.75,23.27-31.68,39.69-42.16C-41.65,28.35-22.79,22.52-4.02,19.83c18.9-2.97,37.73-1.66,55.92-2.71,18.21-.85,36.34-2.73,53.41-7.3,17.03-4.55,33.06-12.14,45.76-23.35,12.6-11.37,22.01-25.43,29.62-39.84,15.07-28.95,26.73-57.84,40.34-83.05,26.34-51.02,56.3-88.7,78.13-113.86,11.07-12.48,19.97-22.11,26.3-28.43,6.25-6.39,9.59-9.81,9.59-9.81,0,0-3.32,3.46-9.49,9.91-6.29,6.37-15.07,16.08-26.04,28.67-21.53,25.35-51.1,63.26-76.84,114.39-13.35,25.27-24.64,54.14-39.57,83.47-7.49,14.61-16.95,29.09-29.86,40.99-13.05,11.71-29.58,19.72-46.96,24.54-17.46,4.86-35.73,6.92-54.22,7.97-18.47,1.21-37.14.12-55.39,3.2-18.25,2.81-36.28,8.62-51.77,18.84-15.54,10.13-28.2,24.4-37.47,40.64-18.61,32.79-26.36,70.51-37.35,106.5-5.46,18.03-11.86,35.97-21.53,52.28-4.67,8.26-10.76,15.64-17.36,22.46-7.04,6.29-14.67,12.16-23.28,15.88l-6.37,2.93-6.65,2.02c-4.35,1.56-8.91,2.43-13.52,3.1-4.61.95-9.04,1.38-13.33,1.48l-13.08.69c-16.81.34-33.14,3.24-48.25,8.32-30.38,10.01-55.77,27.9-75.35,47.85-19.83,19.85-34.55,41.33-46.1,61.06-11.51,19.81-19.82,38.1-26,53.35-6.15,15.3-10.25,27.59-12.79,36.01-2.57,8.48-3.61,12.89-3.61,12.89l-11.59-2.89Z" style="fill:#72a552;"/><path d="m-447.58,529.14s1.21-4.87,3.91-13.49c2.71-8.66,7.03-21.24,13.5-36.84,6.49-15.6,15.17-34.25,27.23-54.52,12.08-20.19,27.47-42.24,48.34-62.72,20.58-20.56,47.48-39.17,79.63-49.43,16-5.2,33.24-8.05,50.85-8.25,17.27-.36,34.15-1.62,49.72-8.94,7.87-3.28,14.75-8.54,21.28-14.2,6.07-6.19,11.8-12.91,16.29-20.68,9.26-15.29,15.7-32.65,21.28-50.44,11.25-35.47,19.36-73.6,38.95-107.41,9.77-16.75,23.25-31.68,39.67-42.16C-20.52,49.49-1.67,43.65,17.11,40.95c18.9-2.97,37.73-1.66,55.94-2.71,18.21-.85,36.31-2.71,53.39-7.3,17.05-4.55,33.06-12.14,45.78-23.33,12.6-11.37,22.01-25.45,29.6-39.86,15.09-28.93,26.72-57.84,40.34-83.05,26.34-51.02,56.33-88.67,78.13-113.84,11.07-12.5,19.99-22.13,26.3-28.45,6.25-6.39,9.59-9.79,9.59-9.79,0,0-3.3,3.44-9.49,9.89-6.27,6.37-15.07,16.08-26.04,28.67-21.53,25.37-51.08,63.26-76.84,114.39-13.33,25.27-24.64,54.14-39.57,83.49-7.49,14.59-16.95,29.07-29.84,40.97-13.05,11.71-29.58,19.75-46.96,24.54-17.46,4.85-35.73,6.94-54.22,7.97-18.49,1.21-37.16.14-55.41,3.22-18.25,2.79-36.27,8.62-51.77,18.84-15.54,10.12-28.2,24.4-37.47,40.62-18.61,32.79-26.34,70.51-37.33,106.5-5.48,18.05-11.88,35.97-21.55,52.28-4.67,8.25-10.76,15.66-17.34,22.46-7.06,6.29-14.67,12.16-23.29,15.9l-6.39,2.91-6.64,2.02c-4.36,1.56-8.91,2.43-13.52,3.1-4.61.97-9.05,1.38-13.34,1.48l-13.08.69c-16.8.34-33.14,3.24-48.25,8.32-30.37,10.01-55.76,27.9-75.34,47.85-19.83,19.85-34.55,41.33-46.1,61.08-11.52,19.81-19.82,38.08-26,53.35-6.16,15.27-10.25,27.58-12.8,35.99-2.56,8.48-3.61,12.89-3.61,12.89l-11.59-2.89Z" style="fill:#72a552;"/><path d="m-426.45,550.26s1.21-4.88,3.91-13.47c2.71-8.66,7.03-21.24,13.49-36.86,6.49-15.58,15.18-34.23,27.23-54.5,12.09-20.19,27.48-42.24,48.34-62.72,20.59-20.56,47.48-39.19,79.64-49.45,15.99-5.18,33.24-8.05,50.84-8.23,17.27-.39,34.16-1.64,49.72-8.94,7.87-3.3,14.77-8.54,21.3-14.2,6.07-6.19,11.78-12.93,16.27-20.68,9.27-15.3,15.7-32.67,21.28-50.46,11.25-35.47,19.38-73.58,38.95-107.39,9.79-16.77,23.25-31.7,39.68-42.18,16.39-10.56,35.24-16.41,54.02-19.08,18.92-2.97,37.75-1.68,55.94-2.73,18.21-.83,36.34-2.71,53.41-7.28,17.06-4.55,33.04-12.16,45.78-23.35,12.58-11.37,21.99-25.43,29.58-39.83,15.09-28.95,26.75-57.86,40.34-83.07,26.34-51,56.32-88.67,78.13-113.84,11.09-12.48,19.99-22.13,26.32-28.43,6.25-6.41,9.57-9.81,9.57-9.81,0,0-3.3,3.44-9.47,9.89-6.27,6.37-15.09,16.08-26.04,28.69-21.55,25.35-51.1,63.24-76.86,114.37-13.31,25.29-24.62,54.14-39.55,83.5-7.51,14.61-16.98,29.07-29.86,40.97-13.05,11.73-29.56,19.75-46.96,24.56-17.46,4.85-35.73,6.92-54.22,7.97-18.49,1.21-37.15.12-55.4,3.2-18.25,2.79-36.29,8.62-51.79,18.84-15.54,10.14-28.18,24.4-37.47,40.64-18.59,32.78-26.34,70.49-37.33,106.48-5.48,18.05-11.87,35.99-21.55,52.3-4.66,8.23-10.74,15.64-17.32,22.44-7.08,6.31-14.69,12.16-23.31,15.9l-6.37,2.91-6.66,2.04c-4.35,1.54-8.9,2.43-13.51,3.08-4.6.97-9.05,1.39-13.33,1.5l-13.08.67c-16.81.34-33.14,3.26-48.25,8.33-30.37,10.01-55.77,27.9-75.35,47.83-19.83,19.87-34.55,41.35-46.09,61.08-11.53,19.81-19.82,38.1-26,53.35-6.16,15.3-10.26,27.58-12.8,35.99-2.56,8.48-3.6,12.89-3.6,12.89l-11.6-2.89Z" style="fill:#72a552;"/><path d="m-405.32,571.38s1.21-4.86,3.91-13.45c2.71-8.68,7.03-21.24,13.49-36.86,6.49-15.6,15.17-34.25,27.23-54.52,12.09-20.19,27.48-42.24,48.34-62.72,20.58-20.56,47.48-39.19,79.63-49.42,16.01-5.2,33.24-8.07,50.85-8.26,17.28-.38,34.15-1.62,49.73-8.94,7.87-3.28,14.77-8.54,21.28-14.2,6.07-6.17,11.77-12.93,16.26-20.68,9.29-15.3,15.7-32.67,21.31-50.44,11.23-35.49,19.36-73.6,38.94-107.41,9.77-16.75,23.23-31.7,39.65-42.16,16.41-10.56,35.24-16.41,54.02-19.1,18.94-2.97,37.75-1.68,55.96-2.71,18.21-.85,36.31-2.71,53.41-7.3,17.04-4.55,33.02-12.14,45.76-23.35,12.58-11.37,22.01-25.43,29.58-39.84,15.09-28.95,26.75-57.84,40.34-83.05,26.36-51.02,56.33-88.69,78.13-113.86,11.09-12.48,19.99-22.11,26.34-28.42,6.23-6.39,9.55-9.81,9.55-9.81,0,0-3.28,3.44-9.47,9.89-6.27,6.37-15.09,16.08-26.04,28.69-21.55,25.37-51.08,63.24-76.86,114.37-13.31,25.29-24.6,54.16-39.53,83.5-7.53,14.61-16.98,29.09-29.86,40.99-13.07,11.72-29.58,19.73-46.98,24.54-17.44,4.86-35.73,6.94-54.22,7.97-18.49,1.21-37.15.12-55.39,3.22-18.25,2.77-36.3,8.6-51.79,18.82-15.54,10.16-28.16,24.42-37.47,40.65-18.57,32.79-26.34,70.51-37.31,106.48-5.5,18.05-11.87,35.99-21.57,52.3-4.65,8.23-10.72,15.64-17.32,22.44-7.08,6.31-14.69,12.18-23.31,15.9l-6.35,2.93-6.66,2.02c-4.35,1.56-8.92,2.43-13.51,3.1-4.63.95-9.04,1.38-13.33,1.48l-13.09.67c-16.81.36-33.14,3.26-48.25,8.33-30.38,10.01-55.77,27.9-75.35,47.85-19.83,19.85-34.55,41.33-46.1,61.06-11.51,19.81-19.82,38.09-26,53.35-6.15,15.29-10.25,27.57-12.79,36.01-2.57,8.46-3.61,12.87-3.61,12.87l-11.59-2.89Z" style="fill:#72a552;"/></g></g></svg>