<?xml version="1.0" encoding="UTF-8"?><svg id="Calque_2" xmlns="http://www.w3.org/2000/svg" xmlns:xlink="http://www.w3.org/1999/xlink" viewBox="0 0 72.16 103.74"><defs><clipPath id="clippath"><path d="m22.69,64.55c5.83-5.17,10.71-10.5,14.66-16,3.95-5.5,5.92-10.73,5.92-15.71,0-3.01-.68-5.36-2.04-7.05-1.36-1.69-3.36-2.54-5.99-2.54s-4.84,1.15-6.34,3.45c-1.5,2.3-2.21,5.66-2.11,10.08H0c.28-8.36,2.11-15.29,5.5-20.79,3.38-5.5,7.8-9.54,13.25-12.12C24.19,1.29,30.25,0,36.93,0c11.56,0,20.16,2.87,25.79,8.6,5.64,5.73,8.46,13.16,8.46,22.27,0,9.77-3.27,18.94-9.8,27.48-6.53,8.55-14.68,16.21-24.45,22.97h35.24v22.41H.28v-20.72c9.11-7.14,16.58-13.29,22.41-18.46Z" style="fill:none;"/></clipPath></defs><g id="accueil_desktop"><path d="m22.69,64.55c5.83-5.17,10.71-10.5,14.66-16,3.95-5.5,5.92-10.73,5.92-15.71,0-3.01-.68-5.36-2.04-7.05-1.36-1.69-3.36-2.54-5.99-2.54s-4.84,1.15-6.34,3.45c-1.5,2.3-2.21,5.66-2.11,10.08H0c.28-8.36,2.11-15.29,5.5-20.79,3.38-5.5,7.8-9.54,13.25-12.12C24.19,1.29,30.25,0,36.93,0c11.56,0,20.16,2.87,25.79,8.6,5.64,5.73,8.46,13.16,8.46,22.27,0,9.77-3.27,18.94-9.8,27.48-6.53,8.55-14.68,16.21-24.45,22.97h35.24v22.41H.28v-20.72c9.11-7.14,16.58-13.29,22.41-18.46Z" style="fill:#8bb675;"/><g style="clip-path:url(#clippath);"><path d="m-132.55,43.02s1.2-4.86,3.92-13.45c2.7-8.68,7.02-21.24,13.48-36.86,6.5-15.58,15.18-34.23,27.23-54.52,12.09-20.19,27.49-42.22,48.35-62.72,20.57-20.56,47.48-39.17,79.63-49.42,16-5.18,33.24-8.05,50.85-8.25,17.27-.39,34.15-1.62,49.72-8.92,7.87-3.3,14.76-8.56,21.28-14.22,6.07-6.17,11.78-12.91,16.28-20.68,9.28-15.29,15.71-32.67,21.29-50.44,11.25-35.47,19.36-73.6,38.95-107.41,9.78-16.75,23.24-31.68,39.66-42.16,16.4-10.56,35.25-16.41,54.03-19.08,18.91-2.99,37.73-1.68,55.93-2.73,18.22-.85,36.33-2.71,53.41-7.3,17.04-4.55,33.04-12.14,45.77-23.35,12.59-11.37,22-25.43,29.59-39.84,15.09-28.95,26.74-57.84,40.35-83.05,26.34-51.02,56.31-88.69,78.13-113.84,11.07-12.5,19.97-22.13,26.3-28.42,6.27-6.41,9.59-9.81,9.59-9.81,0,0-3.3,3.44-9.49,9.89-6.27,6.37-15.07,16.08-26.04,28.67-21.53,25.37-51.09,63.24-76.84,114.37-13.33,25.31-24.63,54.16-39.56,83.49-7.51,14.61-16.95,29.09-29.85,40.99-13.07,11.73-29.58,19.73-46.97,24.54-17.46,4.88-35.73,6.94-54.22,7.97-18.49,1.23-37.15.12-55.4,3.22-18.25,2.79-36.29,8.62-51.78,18.84-15.53,10.14-28.17,24.4-37.46,40.62-18.6,32.8-26.35,70.51-37.33,106.48-5.48,18.05-11.87,35.99-21.55,52.32-4.67,8.21-10.75,15.64-17.34,22.44-7.07,6.29-14.68,12.16-23.29,15.88l-6.38,2.93-6.65,2.02c-4.36,1.56-8.91,2.43-13.51,3.1-4.61.95-9.05,1.38-13.34,1.48l-13.08.69c-16.81.34-33.14,3.24-48.25,8.32-30.37,10.01-55.77,27.9-75.34,47.85-19.84,19.85-34.56,41.33-46.1,61.08-11.52,19.81-19.82,38.08-26,53.33-6.16,15.3-10.26,27.59-12.8,36.01-2.56,8.48-3.6,12.89-3.6,12.89l-11.59-2.91Z" style="fill:#72a552;"/><path d="m-111.43,64.16s1.21-4.85,3.91-13.47c2.71-8.68,7.03-21.24,13.5-36.84,6.49-15.6,15.18-34.25,27.23-54.52,12.09-20.19,27.48-42.24,48.34-62.74,20.58-20.56,47.48-39.17,79.63-49.41,16-5.2,33.25-8.07,50.85-8.27,17.27-.36,34.16-1.62,49.72-8.92,7.88-3.3,14.77-8.56,21.29-14.2,6.07-6.19,11.77-12.93,16.27-20.7,9.29-15.27,15.72-32.65,21.3-50.44,11.25-35.47,19.36-73.6,38.94-107.39,9.79-16.75,23.25-31.7,39.67-42.16,16.4-10.58,35.24-16.41,54.02-19.1,18.91-2.97,37.74-1.68,55.94-2.73,18.22-.85,36.33-2.71,53.4-7.3,17.06-4.53,33.05-12.14,45.78-23.35,12.58-11.37,22-25.43,29.59-39.84,15.09-28.93,26.74-57.82,40.35-83.03,26.33-51.02,56.31-88.72,78.12-113.86,11.09-12.5,19.99-22.13,26.32-28.43,6.25-6.39,9.57-9.81,9.57-9.81,0,0-3.28,3.44-9.47,9.89-6.29,6.37-15.09,16.08-26.04,28.67-21.55,25.37-51.09,63.26-76.85,114.39-13.34,25.29-24.64,54.16-39.56,83.5-7.51,14.59-16.96,29.09-29.86,40.99-13.06,11.71-29.57,19.73-46.96,24.54-17.46,4.86-35.73,6.92-54.23,7.95-18.48,1.23-37.14.14-55.39,3.22-18.25,2.79-36.28,8.62-51.78,18.84-15.54,10.14-28.18,24.4-37.47,40.62-18.59,32.8-26.35,70.53-37.33,106.5-5.48,18.05-11.87,35.97-21.54,52.3-4.67,8.23-10.76,15.64-17.34,22.44-7.07,6.31-14.68,12.18-23.3,15.9l-6.37,2.91-6.66,2.04c-4.35,1.54-8.91,2.41-13.5,3.1-4.62.93-9.05,1.38-13.35,1.46l-13.07.69c-16.8.36-33.14,3.26-48.26,8.34-30.36,10.01-55.76,27.9-75.34,47.85-19.83,19.83-34.55,41.31-46.09,61.06-11.53,19.81-19.83,38.1-26,53.35-6.16,15.27-10.26,27.58-12.79,35.99-2.56,8.48-3.61,12.89-3.61,12.89l-11.59-2.89Z" style="fill:#72a552;"/><path d="m-90.31,85.28s1.21-4.86,3.93-13.47c2.71-8.66,7.03-21.24,13.49-36.84,6.49-15.6,15.17-34.25,27.23-54.52,12.09-20.19,27.48-42.24,48.34-62.72,20.57-20.56,47.48-39.19,79.63-49.43,16-5.2,33.24-8.07,50.85-8.27,17.27-.36,34.15-1.62,49.72-8.92,7.88-3.3,14.77-8.54,21.28-14.2,6.07-6.19,11.78-12.93,16.28-20.68,9.28-15.3,15.72-32.67,21.3-50.44,11.24-35.49,19.36-73.6,38.94-107.41,9.78-16.75,23.24-31.7,39.67-42.16,16.4-10.58,35.24-16.41,54.02-19.1,18.91-2.97,37.74-1.66,55.93-2.71,18.22-.85,36.34-2.73,53.41-7.3,17.04-4.55,33.04-12.14,45.77-23.35,12.59-11.37,22-25.43,29.59-39.84,15.1-28.95,26.75-57.84,40.35-83.05,26.33-51.02,56.31-88.7,78.12-113.86,11.09-12.48,19.99-22.11,26.32-28.43,6.25-6.39,9.57-9.81,9.57-9.81,0,0-3.28,3.46-9.47,9.91-6.27,6.37-15.09,16.08-26.04,28.67-21.55,25.37-51.08,63.26-76.84,114.37-13.34,25.29-24.64,54.16-39.57,83.49-7.5,14.61-16.95,29.09-29.85,40.99-13.06,11.71-29.58,19.73-46.96,24.54-17.47,4.86-35.74,6.92-54.23,7.97-18.48,1.21-37.14.12-55.39,3.2-18.25,2.81-36.28,8.64-51.79,18.84-15.53,10.14-28.18,24.4-37.46,40.64-18.59,32.8-26.35,70.51-37.33,106.5-5.48,18.03-11.87,35.97-21.55,52.28-4.66,8.23-10.75,15.64-17.34,22.46-7.06,6.29-14.67,12.16-23.29,15.88l-6.37,2.93-6.66,2.02c-4.36,1.56-8.91,2.43-13.5,3.1-4.62.95-9.06,1.38-13.35,1.48l-13.07.69c-16.81.34-33.14,3.24-48.26,8.32-30.37,10.01-55.76,27.9-75.34,47.85C-10.04-55.27-24.75-33.78-36.31-14.05c-11.52,19.81-19.81,38.1-26,53.35-6.16,15.3-10.25,27.6-12.8,36.01-2.56,8.48-3.6,12.89-3.6,12.89l-11.6-2.91Z" style="fill:#72a552;"/><path d="m-69.16,106.42s1.21-4.88,3.92-13.47c2.7-8.68,7.03-21.26,13.48-36.86,6.5-15.58,15.18-34.23,27.23-54.5C-12.44-18.61,2.95-40.66,23.82-61.15c20.58-20.56,47.48-39.17,79.63-49.42,16-5.18,33.24-8.07,50.85-8.26,17.27-.36,34.15-1.62,49.72-8.94,7.87-3.28,14.76-8.52,21.28-14.18,6.07-6.19,11.78-12.95,16.28-20.7,9.28-15.27,15.71-32.65,21.29-50.44,11.25-35.47,19.36-73.6,38.95-107.41,9.78-16.75,23.24-31.68,39.66-42.16,16.4-10.58,35.25-16.41,54.03-19.1,18.91-2.97,37.74-1.66,55.94-2.71,18.21-.85,36.33-2.73,53.4-7.3,17.04-4.55,33.04-12.14,45.77-23.35,12.59-11.35,22-25.43,29.59-39.84,15.09-28.93,26.74-57.84,40.35-83.05,26.34-51.02,56.3-88.67,78.11-113.84,11.09-12.5,19.99-22.13,26.34-28.44,6.23-6.39,9.57-9.79,9.57-9.79,0,0-3.3,3.44-9.49,9.89-6.27,6.37-15.09,16.08-26.02,28.67-21.55,25.37-51.1,63.26-76.86,114.39-13.33,25.27-24.63,54.14-39.56,83.47-7.51,14.61-16.95,29.09-29.85,40.99-13.06,11.71-29.58,19.75-46.97,24.54-17.46,4.88-35.73,6.92-54.22,7.97-18.49,1.21-37.16.14-55.4,3.2-18.24,2.81-36.29,8.64-51.77,18.86-15.54,10.12-28.18,24.4-37.47,40.62-18.59,32.8-26.35,70.51-37.33,106.5-5.48,18.05-11.87,35.97-21.55,52.28-4.67,8.26-10.75,15.64-17.34,22.46-7.07,6.29-14.68,12.16-23.29,15.9l-6.38,2.91-6.65,2.02c-4.36,1.56-8.91,2.43-13.51,3.1-4.61.95-9.04,1.38-13.34,1.48l-13.08.69c-16.81.34-33.14,3.24-48.25,8.31-30.37,10.01-55.77,27.92-75.34,47.85C11.08-34.14-3.63-12.66-15.18,7.09c-11.52,19.81-19.82,38.08-26,53.35-6.16,15.27-10.26,27.58-12.8,35.99-2.56,8.48-3.6,12.89-3.6,12.89l-11.59-2.89Z" style="fill:#72a552;"/><path d="m-48.04,127.55s1.21-4.86,3.92-13.47c2.71-8.66,7.03-21.24,13.5-36.86,6.49-15.58,15.18-34.23,27.24-54.5C8.69,2.51,24.08-19.54,44.94-40.01c20.58-20.56,47.48-39.19,79.63-49.42,16.01-5.2,33.25-8.07,50.85-8.27,17.28-.36,34.16-1.62,49.73-8.92,7.87-3.3,14.76-8.54,21.28-14.2,6.07-6.19,11.77-12.93,16.28-20.68,9.28-15.3,15.71-32.67,21.29-50.44,11.25-35.49,19.36-73.6,38.94-107.41,9.79-16.75,23.25-31.7,39.67-42.18,16.4-10.56,35.24-16.41,54.02-19.08,18.91-2.99,37.74-1.68,55.94-2.73,18.22-.83,36.33-2.71,53.41-7.28,17.04-4.55,33.04-12.14,45.77-23.35,12.58-11.37,22-25.43,29.59-39.84,15.09-28.95,26.73-57.86,40.36-83.07,26.32-51.02,56.3-88.67,78.11-113.84,11.07-12.48,19.97-22.11,26.32-28.45,6.23-6.39,9.57-9.79,9.57-9.79,0,0-3.3,3.44-9.49,9.89-6.27,6.37-15.07,16.08-26.02,28.69-21.52,25.35-51.1,63.24-76.84,114.37-13.35,25.29-24.65,54.14-39.57,83.49-7.51,14.59-16.95,29.07-29.86,40.97-13.06,11.73-29.57,19.75-46.96,24.56-17.46,4.86-35.73,6.92-54.22,7.97-18.49,1.21-37.16.12-55.4,3.2-18.25,2.79-36.28,8.62-51.78,18.84-15.54,10.14-28.18,24.4-37.47,40.64-18.59,32.77-26.35,70.49-37.33,106.48-5.48,18.05-11.87,35.99-21.54,52.3-4.67,8.23-10.75,15.64-17.34,22.44-7.07,6.31-14.68,12.16-23.3,15.9l-6.37,2.93-6.66,2c-4.35,1.56-8.91,2.43-13.5,3.1-4.62.97-9.05,1.38-13.34,1.5l-13.08.67c-16.8.34-33.14,3.24-48.25,8.32-30.37,10.01-55.77,27.92-75.35,47.85C32.22-13,17.5,8.48,5.96,28.21c-11.52,19.81-19.83,38.09-26,53.35-6.16,15.3-10.26,27.57-12.8,35.99-2.56,8.48-3.61,12.89-3.61,12.89l-11.59-2.89Z" style="fill:#72a552;"/><path d="m-26.92,148.67s1.21-4.85,3.92-13.47c2.71-8.66,7.03-21.24,13.5-36.84,6.49-15.6,15.17-34.25,27.23-54.52C29.82,23.64,45.21,1.58,66.07-18.89c20.58-20.55,47.48-39.17,79.63-49.42,16-5.2,33.24-8.07,50.85-8.25,17.27-.39,34.15-1.64,49.72-8.94,7.88-3.28,14.77-8.54,21.28-14.2,6.07-6.19,11.78-12.91,16.28-20.68,9.28-15.3,15.72-32.67,21.3-50.44,11.24-35.47,19.36-73.6,38.94-107.41,9.78-16.75,23.25-31.68,39.67-42.16,16.4-10.56,35.24-16.43,54.02-19.1,18.91-2.97,37.74-1.68,55.94-2.71,18.21-.85,36.33-2.71,53.4-7.3,17.04-4.55,33.04-12.14,45.77-23.35,12.59-11.37,22.01-25.43,29.59-39.84,15.11-28.95,26.75-57.84,40.36-83.07,26.34-51,56.33-88.67,78.13-113.82,11.07-12.5,19.97-22.13,26.3-28.45,6.25-6.39,9.59-9.79,9.59-9.79,0,0-3.32,3.42-9.49,9.87-6.27,6.37-15.07,16.1-26.04,28.69-21.53,25.37-51.08,63.24-76.84,114.37-13.35,25.29-24.64,54.16-39.57,83.49-7.5,14.61-16.95,29.09-29.85,40.99-13.06,11.71-29.58,19.73-46.96,24.54-17.46,4.86-35.73,6.94-54.23,7.97-18.48,1.21-37.14.12-55.39,3.22-18.25,2.79-36.28,8.6-51.79,18.82-15.53,10.14-28.17,24.4-37.46,40.64-18.59,32.8-26.35,70.51-37.33,106.48-5.48,18.05-11.87,35.99-21.54,52.3-4.67,8.23-10.76,15.66-17.35,22.44-7.06,6.31-14.67,12.16-23.29,15.9l-6.37,2.93-6.66,2.02c-4.36,1.54-8.91,2.43-13.5,3.1-4.61.95-9.06,1.38-13.35,1.48l-13.07.67c-16.81.36-33.14,3.26-48.25,8.34-30.38,10.01-55.77,27.9-75.35,47.85C53.35,8.12,38.63,29.61,27.08,49.35,15.56,69.16,7.27,87.43,1.08,102.68c-6.16,15.3-10.25,27.58-12.79,36.01-2.56,8.48-3.6,12.87-3.6,12.87l-11.6-2.89Z" style="fill:#72a552;"/><path d="m-5.78,169.79s1.21-4.86,3.91-13.46c2.7-8.68,7.03-21.24,13.5-36.86,6.49-15.58,15.17-34.23,27.22-54.5,12.09-20.21,27.49-42.24,48.35-62.74,20.57-20.56,47.48-39.17,79.63-49.43,16-5.18,33.24-8.05,50.85-8.25,17.27-.36,34.15-1.62,49.72-8.92,7.87-3.3,14.76-8.56,21.28-14.22,6.07-6.17,11.78-12.91,16.28-20.68,9.29-15.3,15.71-32.67,21.29-50.44,11.25-35.47,19.37-73.6,38.95-107.41,9.78-16.75,23.24-31.68,39.66-42.16,16.4-10.56,35.25-16.41,54.03-19.08,18.91-2.97,37.74-1.68,55.94-2.73,18.21-.85,36.33-2.71,53.4-7.3,17.05-4.55,33.04-12.14,45.77-23.35,12.6-11.37,21.99-25.43,29.6-39.84,15.09-28.95,26.75-57.84,40.34-83.05,26.34-51,56.33-88.69,78.13-113.84,11.09-12.5,19.97-22.13,26.32-28.43,6.25-6.41,9.57-9.81,9.57-9.81,0,0-3.3,3.44-9.49,9.89-6.27,6.37-15.07,16.08-26.04,28.67-21.53,25.37-51.08,63.26-76.84,114.37-13.33,25.31-24.64,54.16-39.57,83.52-7.49,14.59-16.95,29.07-29.84,40.97-13.06,11.73-29.58,19.73-46.97,24.56-17.46,4.86-35.73,6.92-54.22,7.95-18.48,1.23-37.16.12-55.39,3.22-18.25,2.79-36.28,8.62-51.78,18.84-15.54,10.14-28.18,24.4-37.47,40.62-18.59,32.79-26.35,70.51-37.33,106.5-5.48,18.03-11.87,35.97-21.55,52.3-4.66,8.21-10.75,15.64-17.34,22.44-7.07,6.31-14.68,12.16-23.29,15.88l-6.38,2.93-6.65,2.04c-4.35,1.54-8.91,2.41-13.51,3.07-4.61.95-9.04,1.38-13.34,1.48l-13.07.69c-16.81.34-33.14,3.26-48.26,8.32-30.37,10.04-55.77,27.9-75.34,47.85-19.84,19.85-34.55,41.33-46.1,61.08-11.52,19.81-19.82,38.08-26,53.33-6.16,15.3-10.26,27.6-12.8,36.01-2.56,8.48-3.6,12.89-3.6,12.89l-11.59-2.91Z" style="fill:#72a552;"/><path d="m15.34,190.93s1.21-4.86,3.92-13.47c2.71-8.68,7.03-21.24,13.5-36.84,6.49-15.6,15.18-34.25,27.23-54.52,12.08-20.19,27.47-42.24,48.33-62.72,20.58-20.58,47.48-39.19,79.64-49.43,16-5.2,33.24-8.07,50.84-8.27,17.28-.36,34.16-1.62,49.73-8.92,7.87-3.3,14.76-8.56,21.28-14.2,6.07-6.19,11.77-12.93,16.28-20.7,9.28-15.27,15.71-32.65,21.29-50.44,11.25-35.47,19.36-73.58,38.94-107.39,9.79-16.75,23.25-31.7,39.67-42.16,16.4-10.58,35.24-16.41,54.03-19.1,18.91-2.97,37.73-1.68,55.93-2.73,18.22-.83,36.33-2.71,53.41-7.3,17.05-4.53,33.04-12.14,45.78-23.33,12.58-11.37,21.99-25.45,29.58-39.86,15.09-28.93,26.75-57.82,40.34-83.03,26.34-51.02,56.32-88.69,78.13-113.86,11.09-12.5,19.99-22.13,26.32-28.43,6.25-6.39,9.57-9.81,9.57-9.81,0,0-3.28,3.44-9.47,9.89-6.27,6.37-15.09,16.08-26.04,28.67-21.55,25.39-51.08,63.26-76.86,114.39-13.31,25.29-24.62,54.16-39.55,83.49-7.51,14.61-16.95,29.09-29.86,40.99-13.05,11.71-29.57,19.73-46.96,24.54-17.46,4.86-35.73,6.92-54.22,7.97-18.49,1.21-37.16.12-55.4,3.2-18.25,2.79-36.28,8.62-51.78,18.84-15.53,10.14-28.18,24.4-37.47,40.62-18.59,32.81-26.35,70.53-37.32,106.5-5.49,18.05-11.87,35.97-21.55,52.3-4.67,8.23-10.75,15.64-17.34,22.44-7.06,6.31-14.68,12.18-23.3,15.9l-6.37,2.91-6.65,2.04c-4.36,1.54-8.92,2.43-13.51,3.1-4.62.95-9.05,1.38-13.34,1.46l-13.08.69c-16.8.36-33.14,3.26-48.25,8.33-30.37,10.01-55.77,27.9-75.35,47.85-19.83,19.83-34.55,41.31-46.09,61.06-11.52,19.81-19.82,38.1-26,53.35-6.16,15.27-10.26,27.58-12.8,35.99-2.56,8.48-3.61,12.89-3.61,12.89l-11.59-2.89Z" style="fill:#72a552;"/><path d="m36.47,212.07s1.21-4.88,3.92-13.47c2.71-8.68,7.03-21.26,13.5-36.86,6.49-15.58,15.18-34.25,27.23-54.52,12.09-20.19,27.49-42.22,48.34-62.72,20.58-20.56,47.48-39.19,79.63-49.42,16-5.18,33.25-8.07,50.85-8.27,17.27-.36,34.16-1.6,49.72-8.92,7.88-3.28,14.77-8.54,21.28-14.2,6.08-6.17,11.78-12.93,16.28-20.68,9.28-15.3,15.72-32.67,21.3-50.44,11.24-35.49,19.36-73.6,38.94-107.41,9.78-16.75,23.25-31.7,39.67-42.16,16.4-10.58,35.24-16.41,54.02-19.1,18.91-2.97,37.74-1.66,55.94-2.71,18.21-.85,36.32-2.73,53.4-7.3,17.06-4.55,33.04-12.14,45.78-23.35,12.58-11.37,22.01-25.43,29.58-39.84,15.09-28.95,26.75-57.84,40.34-83.05,26.34-51.02,56.33-88.69,78.13-113.86,11.09-12.48,19.99-22.11,26.34-28.43,6.23-6.39,9.55-9.81,9.55-9.81,0,0-3.28,3.46-9.47,9.91-6.27,6.37-15.09,16.08-26.04,28.67-21.55,25.37-51.08,63.26-76.84,114.37-13.33,25.29-24.64,54.16-39.55,83.49-7.53,14.61-16.98,29.09-29.86,40.99-13.07,11.71-29.58,19.73-46.97,24.54-17.46,4.88-35.73,6.92-54.23,7.97-18.48,1.21-37.14.12-55.39,3.2-18.25,2.81-36.28,8.64-51.78,18.84-15.54,10.14-28.18,24.42-37.47,40.65-18.59,32.79-26.35,70.51-37.33,106.5-5.48,18.03-11.87,35.97-21.54,52.28-4.67,8.23-10.76,15.64-17.34,22.46-7.07,6.29-14.68,12.16-23.3,15.88l-6.37,2.93-6.66,2.02c-4.36,1.56-8.91,2.43-13.5,3.1-4.61.95-9.05,1.38-13.35,1.48l-13.07.69c-16.81.34-33.14,3.24-48.25,8.31-30.37,10.01-55.77,27.9-75.35,47.85-19.83,19.85-34.55,41.33-46.1,61.06-11.52,19.81-19.81,38.09-25.99,53.35-6.16,15.3-10.26,27.59-12.8,36.01-2.56,8.48-3.61,12.89-3.61,12.89l-11.59-2.89Z" style="fill:#72a552;"/><path d="m57.61,233.19s1.21-4.86,3.92-13.47c2.71-8.68,7.03-21.24,13.5-36.86,6.49-15.58,15.17-34.23,27.23-54.5,12.09-20.19,27.49-42.24,48.34-62.74,20.58-20.55,47.48-39.17,79.63-49.4,16-5.2,33.24-8.09,50.85-8.27,17.27-.36,34.15-1.62,49.72-8.92,7.87-3.3,14.76-8.54,21.28-14.2,6.07-6.19,11.78-12.95,16.28-20.7,9.29-15.27,15.71-32.65,21.3-50.42,11.24-35.49,19.36-73.62,38.94-107.41,9.78-16.75,23.25-31.7,39.67-42.18,16.4-10.56,35.24-16.41,54.02-19.1,18.91-2.97,37.74-1.66,55.94-2.71,18.21-.85,36.33-2.73,53.41-7.3,17.03-4.55,33.04-12.14,45.76-23.35,12.59-11.35,22.01-25.43,29.58-39.84,15.09-28.93,26.75-57.84,40.36-83.05,26.34-51.02,56.33-88.67,78.13-113.84,11.07-12.5,19.97-22.13,26.32-28.45,6.23-6.39,9.57-9.79,9.57-9.79,0,0-3.3,3.44-9.49,9.89-6.27,6.37-15.09,16.08-26.02,28.67-21.55,25.37-51.1,63.26-76.84,114.39-13.35,25.29-24.64,54.14-39.57,83.47-7.51,14.61-16.95,29.09-29.86,40.99-13.07,11.71-29.58,19.75-46.98,24.54-17.45,4.88-35.72,6.92-54.21,7.97-18.48,1.23-37.14.14-55.39,3.22-18.25,2.79-36.28,8.62-51.78,18.84-15.54,10.14-28.18,24.4-37.47,40.62-18.59,32.79-26.35,70.51-37.33,106.5-5.48,18.05-11.87,35.97-21.55,52.28-4.66,8.25-10.75,15.66-17.34,22.46-7.06,6.29-14.68,12.16-23.29,15.9l-6.37,2.91-6.66,2.02c-4.35,1.56-8.91,2.43-13.51,3.1-4.61.95-9.04,1.38-13.33,1.48l-13.08.69c-16.81.34-33.14,3.24-48.25,8.32-30.38,10.01-55.78,27.92-75.35,47.85-19.83,19.85-34.56,41.35-46.1,61.08-11.52,19.81-19.82,38.1-26,53.35-6.16,15.27-10.25,27.57-12.8,35.99-2.56,8.48-3.6,12.89-3.6,12.89l-11.59-2.89Z" style="fill:#72a552;"/></g></g></svg>