<?xml version="1.0" encoding="UTF-8"?><svg id="Calque_2" xmlns="http://www.w3.org/2000/svg" viewBox="0 0 124 124"><g id="accueil_desktop"><circle cx="62" cy="62" r="62" style="fill:#fff;"/><path d="m90.77,86.26l-7.83-7.82v-37.41c0-.32-.13-.63-.36-.85l-8.9-8.91c-.23-.23-.54-.36-.86-.36h-34.35c-.67,0-1.22.55-1.22,1.22v54.77c0,.67.55,1.22,1.22,1.22h42.18l4.13,4.13c.56.56,1.29.84,2.02.84s1.47-.28,2.03-.84l1.94-1.94c1.11-1.11,1.11-2.93,0-4.05Zm-16.74-51.2l4.76,4.76h-4.76v-4.76Zm-34.35,50.63v-52.35h31.92v7.69c0,.68.55,1.22,1.22,1.22h7.69v34.35c-.39-.09-.79-.11-1.18-.04l-1.83-1.83c1.41-2.19,2.22-4.79,2.22-7.58,0-7.75-6.3-14.05-14.05-14.05-3.36,0-6.44,1.18-8.86,3.15h-9.53c-.68,0-1.22.54-1.22,1.21s.54,1.22,1.22,1.22h7.19c-.97,1.28-1.73,2.73-2.22,4.29h-4.97c-.68,0-1.22.55-1.22,1.22s.54,1.21,1.22,1.21h4.44c-.07.58-.11,1.16-.11,1.75,0,.87.08,1.72.24,2.55h-4.57c-.68,0-1.22.54-1.22,1.21s.54,1.22,1.22,1.22h5.24c.61,1.59,1.49,3.04,2.59,4.29h-7.83c-.68,0-1.22.55-1.22,1.22s.54,1.21,1.22,1.21h10.61c2.23,1.49,4.9,2.36,7.78,2.36s5.39-.82,7.58-2.22l1.83,1.83c-.16.89.11,1.83.79,2.52l2.35,2.35h-38.54Zm25.99-6.91c-6.41,0-11.63-5.22-11.63-11.63s5.22-11.62,11.63-11.62,11.62,5.21,11.62,11.62-5.21,11.63-11.62,11.63Zm11.58-.87l-.82.82-1.25-1.24c.29-.26.56-.54.82-.82l1.25,1.24Zm11.8,10.68l-1.94,1.94c-.17.17-.45.17-.61,0l-8.91-8.91c-.16-.16-.16-.45,0-.61l1.94-1.94c.16-.16.45-.16.61,0,.01.02,8.91,8.91,8.91,8.91.16.17.16.45,0,.61Z"/><path d="m74.13,50.74c0,.67-.54,1.21-1.21,1.21h-25.64c-.68,0-1.22-.54-1.22-1.21s.54-1.22,1.22-1.22h25.64c.67,0,1.21.55,1.21,1.22Z" style="fill:#72a552;"/><path d="m61.31,44.01c0,.67-.54,1.22-1.21,1.22h-12.82c-.68,0-1.22-.55-1.22-1.22s.54-1.21,1.22-1.21h12.82c.67,0,1.21.54,1.21,1.21Z" style="fill:#72a552;"/><path d="m65.67,57.35c-5.41,0-9.81,4.4-9.81,9.8s4.4,9.81,9.81,9.81,9.8-4.4,9.8-9.81-4.39-9.8-9.8-9.8Zm0,17.18c-4.07,0-7.38-3.31-7.38-7.38s3.31-7.37,7.38-7.37,7.38,3.31,7.38,7.37-3.31,7.38-7.38,7.38Z" style="fill:#72a552;"/></g></svg>