<?xml version="1.0" encoding="UTF-8"?><svg id="Calque_2" xmlns="http://www.w3.org/2000/svg" viewBox="0 0 124 124"><g id="accueil_desktop"><circle cx="62" cy="62" r="62" style="fill:#fff;"/><path d="m26.69,81.39l1.05-2.34,25.7,11.52-1.05,2.34-25.7-11.52Z"/><path d="m54.28,93.75l1.05-2.34,2.55,1.14-1.05,2.34-2.55-1.14Z"/><path d="m83.99,43.55l1.05-2.34,14.52,6.51-1.05,2.34-14.52-6.51Z"/><rect x="68.29" y="56.58" width="2.56" height="2.56" style="fill:#72a552;"/><rect x="51.63" y="56.58" width="2.57" height="2.56" style="fill:#72a552;"/><path d="m99.52,72.06l-7.39-3.31,7.39-3.32c.65-.29.94-1.04.65-1.69-.13-.29-.36-.52-.65-.65l-7.39-3.31,7.39-3.32c.46-.2.76-.66.76-1.17s-.3-.96-.76-1.17l-19.53-8.75-2.09,1.87,17.97,8.05-34.02,15.25-34.02-15.25,14.96-6.7-1.26-2.24-17.36,7.77c-.64.29-.93,1.05-.64,1.7.12.29.36.52.64.64l7.4,3.32-7.4,3.31c-.64.29-.93,1.05-.64,1.69.12.29.36.52.64.65l7.4,3.32-7.4,3.31c-.64.29-.93,1.05-.64,1.69.12.29.36.52.64.65l37.15,16.65c.34.15.72.15,1.05,0l37.15-16.65c.65-.29.94-1.05.65-1.69-.13-.29-.36-.52-.65-.65Zm-71.69-7.8l6.87-3.07,26.62,11.93c.34.15.72.15,1.05,0l26.63-11.93,6.87,3.07-34.02,15.25-34.02-15.25Zm34.02,24.21l-34.02-15.24,6.87-3.07,26.62,11.93c.34.15.72.15,1.05,0l26.63-11.93,6.87,3.07-34.02,15.24Zm0-48.42l2.09.93.09-2.77-1.65-.74c-.33-.15-.72-.15-1.05,0l-2.99,1.34,1,2.36,2.51-1.12Z"/><path d="m87.58,32.9c-.06-.09-.13-.18-.21-.26-.08-.08-8.17-7.84-17.54-2.72-3.09,1.74-5.23,4.79-5.8,8.29l-.09,2.77c.07.68.22,1.34.47,1.97.51,1.14,1.27,2.16,2.23,2.96-1.67,3.42-2.82,7.06-3.41,10.82l-.14.93,2.53.39.14-.93c.54-3.38,1.55-6.66,3.01-9.75.54.29,1.11.54,1.69.74.99.35,2.03.53,3.07.54,1.3.01,2.58-.32,3.71-.97.24-.14.44-.3.66-.44l2.09-1.87c1.19-1.5,2.16-3.16,2.88-4.94,1.05-2.28,2.04-4.44,4.27-5.77.6-.37.8-1.15.44-1.76Zm-7.03,6.46c-1.1,2.4-2.14,4.66-4.6,6.11-1.46.73-3.15.82-4.66.22-.47-.16-.92-.36-1.36-.6,1.89-3.38,4.3-6.44,7.16-9.04l-1.72-1.9c-2.98,2.72-5.51,5.9-7.5,9.41-.46-.45-.82-.98-1.08-1.57-1.04-2.56.09-7.54,4.27-9.82,5.86-3.21,11.06-.34,13.33,1.32-1.7,1.65-3.01,3.66-3.84,5.87Z" style="fill:#72a552;"/><path d="m59.29,47.38c.7-2.01.72-4.19.05-6.21l-1-2.36c-1.04-1.88-2.59-3.43-4.47-4.46-9.37-5.13-17.46,2.64-17.54,2.72-.51.49-.51,1.31-.02,1.81.08.08.16.15.26.2,2.22,1.34,3.21,3.49,4.26,5.78.22.49.46.99.7,1.49l1.26,2.24c.94,1.44,2.19,2.64,3.66,3.52,1.13.65,2.41.98,3.71.97,1.05,0,2.09-.19,3.08-.53.58-.21,1.15-.46,1.7-.76.87,1.84,1.58,3.75,2.12,5.71l2.47-.68c-.62-2.24-1.44-4.41-2.46-6.5.95-.8,1.71-1.8,2.22-2.94Zm-2.38-.95c-.26.58-.62,1.1-1.07,1.55-1.99-3.51-4.53-6.68-7.51-9.4l-1.73,1.89c2.87,2.61,5.29,5.67,7.18,9.05-.44.24-.89.44-1.36.6-1.52.59-3.21.51-4.66-.22-2.47-1.45-3.5-3.72-4.6-6.11-.84-2.21-2.15-4.21-3.84-5.86,2.27-1.64,7.51-4.5,13.32-1.33,4.18,2.29,5.3,7.26,4.27,9.83Z" style="fill:#72a552;"/></g></svg>