<?xml version="1.0" encoding="UTF-8"?><svg id="Calque_2" xmlns="http://www.w3.org/2000/svg" viewBox="0 0 274.14 354.6"><g id="accueil_desktop"><path d="m137.08,0h0c-6.07,0-12.15,1.58-17.57,4.74L17.54,64.23C6.7,70.56,0,82.29,0,94.92v116.45c0,14.18,7.53,27.36,19.7,34.47h0s.09.05.09.05l.15.09,95.21,41.57,1.18-2.75,2.52-5.89-94.66-41.32c-9.13-5.43-14.82-15.47-14.82-26.21v-116.45c0-9.28,4.95-17.94,12.88-22.56L124.21,12.87c3.96-2.31,8.41-3.47,12.86-3.47s8.9,1.16,12.86,3.47l101.96,59.48c7.93,4.62,12.89,13.29,12.88,22.56v116.45c0,10.74-5.69,20.78-14.82,26.21l-93.78,40.94,3.7,8.64,94.16-41.11.26-.13.08-.04.07-.04c12.17-7.11,19.7-20.3,19.7-34.47v-116.45c0-12.62-6.7-24.36-17.54-30.69L154.64,4.74C149.22,1.58,143.14,0,137.08,0" style="fill:#fff;"/><path d="m138.78,351.63h0v-2.97,2.97h2.97-2.97m56.92-175.09l-60.42,25.16-1.06.44-1.83.76v151.7h9.37v-145.42l57.78-24.06c-2.02-2.38-3.39-5.33-3.84-8.58" style="fill:#fff;"/><path d="m212.17,181.59c-2,0-3.79-.81-5.12-2.15-1.33-1.34-2.14-3.17-2.14-5.22,0-2.05.82-3.88,2.14-5.22,1.33-1.34,3.12-2.15,5.12-2.15h0c2,0,3.79.81,5.12,2.15,1.33,1.34,2.14,3.17,2.14,5.22,0,2.05-.82,3.88-2.14,5.22-1.33,1.34-3.12,2.15-5.12,2.15m0-24.15h0c-4.59,0-8.77,1.89-11.77,4.93-3,3.03-4.87,7.24-4.87,11.85,0,.79.05,1.56.16,2.32.45,3.25,1.82,6.2,3.84,8.58.28.33.57.64.87.94,3,3.03,7.17,4.93,11.76,4.93h0c4.59,0,8.77-1.9,11.77-4.93,3-3.03,4.87-7.24,4.87-11.85,0-4.61-1.86-8.82-4.87-11.85-3-3.03-7.17-4.93-11.76-4.93" style="fill:#fff;"/><path d="m138.26,179.76h2.97-2.97m-6.39-78.54v69.04l-49.23-19.85c-.32,3.27-1.57,6.28-3.48,8.73l62.07,25.03v-82.95c-1.49.44-3.06.68-4.68.68h0c-1.62,0-3.19-.24-4.68-.68" style="fill:#fff;"/><path d="m136.55,92.49c-2,0-3.79-.81-5.13-2.15-1.32-1.34-2.14-3.18-2.14-5.22,0-2.05.82-3.88,2.14-5.22,1.33-1.34,3.13-2.15,5.13-2.15h0c2,0,3.79.81,5.12,2.15,1.32,1.34,2.14,3.17,2.14,5.22,0,2.05-.82,3.88-2.14,5.22-1.33,1.34-3.13,2.15-5.12,2.15m0-24.15h0c-4.59,0-8.77,1.9-11.77,4.93-3,3.03-4.87,7.24-4.87,11.85,0,4.61,1.86,8.82,4.87,11.85,1.94,1.96,4.37,3.45,7.08,4.25,1.49.44,3.06.68,4.68.68h0c1.62,0,3.2-.24,4.68-.68,2.72-.81,5.15-2.29,7.08-4.25,3-3.03,4.87-7.24,4.87-11.85,0-4.61-1.86-8.82-4.87-11.85-3-3.03-7.17-4.93-11.76-4.93" style="fill:#fff;"/><path d="m66.08,156.14c-2,0-3.79-.81-5.12-2.15-1.32-1.34-2.14-3.17-2.14-5.22,0-2.05.82-3.88,2.14-5.22,1.33-1.34,3.12-2.15,5.12-2.15h0c2,0,3.79.81,5.12,2.15,1.32,1.34,2.14,3.17,2.14,5.22,0,2.05-.82,3.88-2.14,5.22-1.33,1.34-3.12,2.15-5.12,2.15m0-24.15h0c-4.59,0-8.77,1.9-11.77,4.93-3,3.03-4.87,7.24-4.87,11.85,0,4.61,1.86,8.82,4.87,11.85,3,3.03,7.17,4.93,11.76,4.93h0c4.59,0,8.77-1.9,11.77-4.93.46-.47.9-.96,1.31-1.49,1.91-2.45,3.16-5.46,3.48-8.73.05-.54.08-1.08.08-1.63,0-4.61-1.86-8.82-4.87-11.85-3-3.03-7.18-4.93-11.76-4.93" style="fill:#fff;"/></g></svg>